<svg xmlns="http://www.w3.org/2000/svg" xmlns:xlink="http://www.w3.org/1999/xlink" width="352.98" height="288.546" viewBox="0 0 352.98 288.546">
  <defs>
    <linearGradient id="linear-gradient" x1="-0.02" y1="0.156" x2="0.907" y2="0.821" gradientUnits="objectBoundingBox">
      <stop offset="0" stop-color="#2a1617"/>
      <stop offset="1" stop-color="#614444"/>
    </linearGradient>
    <radialGradient id="radial-gradient" cx="0.603" cy="0.464" r="0.623" gradientUnits="objectBoundingBox">
      <stop offset="0" stop-color="#614444"/>
      <stop offset="1" stop-color="#2a1617"/>
    </radialGradient>
    <linearGradient id="linear-gradient-2" x1="0.371" y1="0.451" x2="0.941" y2="0.727" gradientUnits="objectBoundingBox">
      <stop offset="0.245" stop-color="#2a1617" stop-opacity="0.2"/>
      <stop offset="0.569" stop-color="#271314" stop-opacity="0.545"/>
      <stop offset="0.834" stop-color="#1d0a0a" stop-opacity="0.824"/>
      <stop offset="0.999" stop-color="#120000"/>
    </linearGradient>
    <linearGradient id="linear-gradient-3" x1="-0.133" y1="0.307" x2="1.173" y2="0.693" gradientUnits="objectBoundingBox">
      <stop offset="0.001" stop-color="#120000"/>
      <stop offset="0.162" stop-color="#1c090a" stop-opacity="0.831"/>
      <stop offset="0.436" stop-color="#271314" stop-opacity="0.537"/>
      <stop offset="0.755" stop-color="#2a1617" stop-opacity="0.2"/>
    </linearGradient>
    <linearGradient id="linear-gradient-4" x1="0.035" y1="-0.062" x2="0.965" y2="1.061" gradientUnits="objectBoundingBox">
      <stop offset="0" stop-color="#7d5a56"/>
      <stop offset="1" stop-color="#614444"/>
    </linearGradient>
    <linearGradient id="linear-gradient-5" x1="0.035" y1="-0.072" x2="0.965" y2="1.072" gradientUnits="objectBoundingBox">
      <stop offset="0" stop-color="#614444"/>
      <stop offset="0.051" stop-color="#5a3e3e"/>
      <stop offset="0.3" stop-color="#3c2323"/>
      <stop offset="0.544" stop-color="#261010"/>
      <stop offset="0.781" stop-color="#190404"/>
      <stop offset="1" stop-color="#150000"/>
    </linearGradient>
    <linearGradient id="linear-gradient-6" x1="-0.082" y1="-0.249" x2="0.867" y2="1.046" gradientUnits="objectBoundingBox">
      <stop offset="0" stop-color="#ffcb1e"/>
      <stop offset="0.095" stop-color="#fecc2a"/>
      <stop offset="0.713" stop-color="#f5d376"/>
      <stop offset="0.999" stop-color="#f2d694"/>
    </linearGradient>
    <linearGradient id="linear-gradient-7" x1="0.097" y1="0.298" x2="1.016" y2="0.897" gradientUnits="objectBoundingBox">
      <stop offset="0" stop-color="#ffdf86"/>
      <stop offset="1" stop-color="#ffc83e"/>
    </linearGradient>
    <linearGradient id="linear-gradient-8" x1="-0.07" y1="-0.305" x2="1.459" y2="1.772" gradientUnits="objectBoundingBox">
      <stop offset="0" stop-color="#e4b135"/>
      <stop offset="0.158" stop-color="#e5b43d"/>
      <stop offset="0.403" stop-color="#e8bd53"/>
      <stop offset="0.702" stop-color="#eeca76"/>
      <stop offset="0.919" stop-color="#f2d694"/>
    </linearGradient>
    <linearGradient id="linear-gradient-9" x1="-4.419" y1="-4.537" x2="-4.414" y2="-4.532" xlink:href="#linear-gradient-7"/>
    <linearGradient id="linear-gradient-10" x1="0.075" y1="0.278" x2="0.899" y2="0.7" gradientUnits="objectBoundingBox">
      <stop offset="0" stop-color="#3f522a"/>
      <stop offset="0.268" stop-color="#3e4d2e"/>
      <stop offset="1" stop-color="#3d4337"/>
    </linearGradient>
    <linearGradient id="linear-gradient-11" x1="-0.013" y1="0.104" x2="1.018" y2="0.891" gradientUnits="objectBoundingBox">
      <stop offset="0" stop-color="#c50000"/>
      <stop offset="0.163" stop-color="#cc1106"/>
      <stop offset="0.499" stop-color="#d82e11"/>
      <stop offset="0.789" stop-color="#df4018"/>
      <stop offset="1" stop-color="#e2461a"/>
    </linearGradient>
    <linearGradient id="linear-gradient-12" x1="0.002" y1="0.039" x2="1.003" y2="0.955" xlink:href="#linear-gradient-11"/>
    <linearGradient id="linear-gradient-13" x1="0.241" y1="0.468" x2="0.822" y2="0.557" xlink:href="#linear-gradient-7"/>
    <linearGradient id="linear-gradient-14" x1="0.233" y1="0.463" x2="0.736" y2="0.566" xlink:href="#linear-gradient-7"/>
    <linearGradient id="linear-gradient-15" x1="0.322" y1="0.473" x2="0.701" y2="0.563" xlink:href="#linear-gradient-7"/>
    <linearGradient id="linear-gradient-16" x1="0.146" y1="0.216" x2="1.086" y2="0.61" gradientUnits="objectBoundingBox">
      <stop offset="0" stop-color="#fff"/>
      <stop offset="1" stop-color="#d8d8d8"/>
    </linearGradient>
    <linearGradient id="linear-gradient-17" x1="0.058" y1="0.106" x2="1.072" y2="0.701" gradientUnits="objectBoundingBox">
      <stop offset="0" stop-color="#ff8f00"/>
      <stop offset="0.403" stop-color="#ff9800"/>
      <stop offset="1" stop-color="#ffae00"/>
    </linearGradient>
    <linearGradient id="linear-gradient-18" x1="0.146" y1="0.244" x2="1.001" y2="0.582" xlink:href="#linear-gradient-16"/>
    <linearGradient id="linear-gradient-19" x1="0.075" y1="0.243" x2="1.001" y2="0.653" xlink:href="#linear-gradient-17"/>
    <linearGradient id="linear-gradient-20" x1="0.215" y1="0.418" x2="0.741" y2="0.623" xlink:href="#linear-gradient-7"/>
    <linearGradient id="linear-gradient-21" x1="0.313" y1="0.469" x2="0.708" y2="0.564" xlink:href="#linear-gradient-7"/>
    <linearGradient id="linear-gradient-22" x1="0.201" y1="0.424" x2="0.763" y2="0.623" xlink:href="#linear-gradient-7"/>
    <linearGradient id="linear-gradient-23" x1="0.289" y1="0.469" x2="0.726" y2="0.56" xlink:href="#linear-gradient-7"/>
    <linearGradient id="linear-gradient-24" x1="0.142" y1="0.418" x2="0.667" y2="0.544" xlink:href="#linear-gradient-7"/>
    <linearGradient id="linear-gradient-25" x1="0.291" y1="0.47" x2="0.729" y2="0.563" xlink:href="#linear-gradient-7"/>
    <linearGradient id="linear-gradient-26" x1="0.334" y1="0.473" x2="0.749" y2="0.575" xlink:href="#linear-gradient-7"/>
    <linearGradient id="linear-gradient-27" x1="0.176" y1="0.396" x2="0.786" y2="0.652" xlink:href="#linear-gradient-7"/>
    <linearGradient id="linear-gradient-28" x1="0.008" y1="0.171" x2="0.954" y2="0.818" gradientUnits="objectBoundingBox">
      <stop offset="0" stop-color="#cd7100"/>
      <stop offset="0.491" stop-color="#c16a00"/>
      <stop offset="0.999" stop-color="#b96600"/>
    </linearGradient>
    <linearGradient id="linear-gradient-29" x1="0.048" y1="0.094" x2="0.953" y2="0.903" xlink:href="#linear-gradient-28"/>
    <linearGradient id="linear-gradient-30" x1="0.104" y1="0.264" x2="0.838" y2="0.763" xlink:href="#linear-gradient-17"/>
    <linearGradient id="linear-gradient-31" x1="0.041" y1="0.385" x2="1.038" y2="0.708" xlink:href="#linear-gradient-17"/>
    <linearGradient id="linear-gradient-32" x1="0.075" y1="0.202" x2="0.919" y2="0.673" xlink:href="#linear-gradient-17"/>
    <linearGradient id="linear-gradient-33" x1="-0.107" y1="0.255" x2="1.062" y2="0.693" xlink:href="#linear-gradient-17"/>
    <linearGradient id="linear-gradient-34" x1="0.131" y1="0.326" x2="0.995" y2="0.616" xlink:href="#linear-gradient-17"/>
    <linearGradient id="linear-gradient-35" x1="-0.029" y1="0.292" x2="0.981" y2="0.831" xlink:href="#linear-gradient-17"/>
    <linearGradient id="linear-gradient-36" x1="-4.236" y1="-4.638" x2="-4.231" y2="-4.633" xlink:href="#linear-gradient-7"/>
    <linearGradient id="linear-gradient-37" x1="0.038" y1="-0.273" x2="0.979" y2="1.104" xlink:href="#linear-gradient-11"/>
    <linearGradient id="linear-gradient-38" x1="0.012" y1="-0.036" x2="1.033" y2="0.827" xlink:href="#linear-gradient-11"/>
    <linearGradient id="linear-gradient-39" x1="0.017" y1="0.133" x2="0.997" y2="0.605" xlink:href="#linear-gradient-11"/>
    <linearGradient id="linear-gradient-40" x1="0.082" y1="0.304" x2="0.901" y2="0.889" xlink:href="#linear-gradient-11"/>
    <linearGradient id="linear-gradient-41" x1="0.036" y1="0.279" x2="0.893" y2="0.742" xlink:href="#linear-gradient-11"/>
    <linearGradient id="linear-gradient-42" x1="0.066" y1="-0.243" x2="1.004" y2="0.924" xlink:href="#linear-gradient-7"/>
    <linearGradient id="linear-gradient-43" x1="0.039" y1="-0.117" x2="0.995" y2="0.923" xlink:href="#linear-gradient-7"/>
    <linearGradient id="linear-gradient-44" x1="-0.29" y1="0.015" x2="-0.042" y2="0.153" xlink:href="#linear-gradient-7"/>
    <linearGradient id="linear-gradient-45" x1="-0.108" y1="0.35" x2="1.131" y2="0.728" xlink:href="#linear-gradient-10"/>
    <linearGradient id="linear-gradient-46" x1="-12.468" y1="-1.408" x2="-12.453" y2="-1.406" xlink:href="#linear-gradient-7"/>
  </defs>
  <g id="Group_8451" data-name="Group 8451" transform="translate(-2.78 -120.039)" opacity="0.87">
    <g id="Group" transform="translate(92.742 179.086)">
      <path id="Path" d="M31.03,22.416C-5.787,14.78.39,0,.39,0L68.018,14.022S67.809,30.034,30.992,22.4" transform="translate(44.336 133.577)" fill="#150001"/>
      <path id="Path-2" data-name="Path" d="M53.145,70.451C-15.468,56.221,1.984,0,1.984,0L127.993,26.13s-6.348,58.513-74.961,44.283" transform="translate(22.903 82.359)" fill="url(#linear-gradient)"/>
      <path id="Path-3" data-name="Path" d="M53.145,70.451C-15.468,56.221,1.984,0,1.984,0L127.993,26.13s-6.348,58.513-74.961,44.283" transform="translate(22.903 82.359)" fill="url(#radial-gradient)"/>
      <path id="Path-4" data-name="Path" d="M52.374,1.289,46.14,0C44.226,9.664,35.4,40.948,0,47.77,47.485,46.311,52.374,1.289,52.374,1.289Z" transform="translate(98.541 107.2)" fill="url(#linear-gradient-2)"/>
      <path id="Path-5" data-name="Path" d="M8.236,1.289,1.983,0S-15.052,54.894,50.738,69.921C21.86,54.117,16.8,29.124,17.1,12.43A11.133,11.133,0,0,0,8.236,1.289Z" transform="translate(22.904 82.359)" fill="url(#linear-gradient-3)"/>
      <path id="Path-6" data-name="Path" d="M126.257,34.377c-1.933,9.285-31.72,10.933-66.567,3.714S-1.817,17.494.1,8.209,31.817-2.725,66.664,4.495,128.19,25.092,126.257,34.377Z" transform="translate(24.79 74.15)" fill="url(#linear-gradient-4)"/>
      <path id="Path-7" data-name="Path" d="M104.309,33.748c-12.468.7-28.556-.834-45.287-4.3s-32.1-8.47-43.279-14.06C4.923,9.967-.78,4.472.091.341A.681.681,0,0,0,.053,0C0,1.5-.023,3.108.034,4.775c2.122,3.638,7.333,7.617,15.235,11.6,2.6,1.307,5.4,2.558,8.413,3.79A205.934,205.934,0,0,0,58.813,30.526c16.826,3.487,33.009,5.021,45.572,4.32,8.641-.474,14.894-2.009,18.342-4.4.417-.853.8-1.705,1.137-2.52C121.514,31.076,114.6,33.179,104.309,33.748Z" transform="translate(22.939 95.054)" fill="#150001" opacity="0.5"/>
      <g id="Group-2" data-name="Group" transform="translate(24.944 112.98)" opacity="0.5">
        <path id="Path-8" data-name="Path" d="M96.43,27.949c-11.6.644-26.566-.777-42.142-4S24.425,16.068,14.022,10.858C6.5,7.087,1.649,3.278,0,0,.3,1.1.663,2.2,1.061,3.316c2.52,2.748,6.727,5.628,12.468,8.508,2.406,1.213,5.04,2.388,7.826,3.524a191.492,191.492,0,0,0,32.686,9.645c15.652,3.24,30.716,4.68,42.426,4.017,6.594-.36,11.691-1.383,15.1-2.975.947-1.023,1.838-2.046,2.653-3.108C111.778,25.656,105.525,27.438,96.43,27.949Z" transform="translate(0 0)" fill="#150001"/>
      </g>
      <ellipse id="Oval" cx="15.936" cy="61.586" rx="15.936" ry="61.586" transform="matrix(0.203, -0.979, 0.979, 0.203, 24.438, 98.527)" fill="#b2b2b2"/>
      <path id="Path-9" data-name="Path" d="M120.7,32.5c-1.781,8.622-30.242,10-63.535,3.089C23.849,28.67-1.693,16.088.088,7.485S30.33-2.52,63.623,4.4,122.477,23.895,120.7,32.5Z" transform="translate(27.585 75.442)" fill="url(#linear-gradient-5)"/>
      <path id="Path-10" data-name="Path" d="M56.789,28.383c21.867,4.529,41.63,5.5,53.132,3.183-1.08-.928-2.274-1.876-3.6-2.842-5.647-4.112-13.037-9.759-22.738-12.487-7.485-2.1-14.022-5.514-21.829-7.712C57.718,7.388,53.8,6.175,49.949,5.19c-5-1.27-10.1-1.724-14.666-2.52-5.154-.91-9.74-2.122-14.1-2.444A76.982,76.982,0,0,0,9.133.244C4.813.642,1.857,1.552,0,3.03,3.2,11.405,26.869,22.187,56.789,28.383Z" transform="translate(27.957 82.645)" fill="#cbcbcb"/>
      <path id="Path-11" data-name="Path" d="M56.789,28.383c21.867,4.529,41.63,5.5,53.132,3.183-1.08-.928-2.274-1.876-3.6-2.842-5.647-4.112-13.037-9.759-22.738-12.487-7.485-2.1-14.022-5.514-21.829-7.712C57.718,7.388,53.8,6.175,49.949,5.19c-5-1.27-10.1-1.724-14.666-2.52-5.154-.91-9.74-2.122-14.1-2.444A76.982,76.982,0,0,0,9.133.244C4.813.642,1.857,1.552,0,3.03,3.2,11.405,26.869,22.187,56.789,28.383Z" transform="translate(27.957 82.645)" fill="url(#linear-gradient-6)"/>
      <path id="Path-12" data-name="Path" d="M20.086,13.535c.379.095,1.724.682,1.933.189a.7.7,0,0,1,.246-.322c-1.876-.985-6.367-3.695-7.712-5.855-.587-.947-1.023-1.819-1.421-2.577-1.08-2.1-1.933-3.752-4.263-4.7H8.849A3.135,3.135,0,0,0,5.59.688,4.824,4.824,0,0,0,4.358,5.444c.322,1.573-.095,1.667-1.44,2.009a3.7,3.7,0,0,0-2.9,2.009.181.181,0,0,0,.057.227,3.967,3.967,0,0,0,.531.455,1.1,1.1,0,0,0,1.118.114.221.221,0,0,0,.114-.114c.171-.4.587-.55,1.573-.8,1.326-.341,3.543-.891,2.861-4.263A3.05,3.05,0,0,1,6.84,2.2,1.193,1.193,0,0,1,8.129,2.09h.019c1.667.682,2.274,1.857,3.278,3.79.417.8.891,1.705,1.5,2.71a17.775,17.775,0,0,0,5.154,4.586A13.2,13.2,0,0,1,20.086,13.535Z" transform="translate(58.483 75.588)" fill="url(#linear-gradient-7)"/>
      <path id="Path-13" data-name="Path" d="M82.929,17.618S75.9,9.375,66.236,9.584,40.257-2.013,37.983,2.023c-2.274,4.017-22.34-4.282-24.1-1.4S2.3-1.994.181,1.152,15.226,10.1,20.74,11.649c3.449.966,6.575,3.43,10.535,5.476,3.979,1.156,8.148,2.236,12.468,3.221,4.908.019,6.613-1.63,11.748.265,6.727,2.463,12.449,4.263,16.959,3.505,2.179-.36,7.542.777,12.449,1.686,3.562.057,6.878-.038,9.872-.265C94.374,22.431,88.557,21.976,82.929,17.618Z" transform="translate(36.095 89.62)" fill="#d28d3c" opacity="0.3"/>
      <path id="Path-14" data-name="Path" d="M38.074,10.48a1.509,1.509,0,0,0-.436-.91C35.876,7.5,33.147,7.9,29,5.534c-1.611-.872-3.411-2.065-5.116-2.16-1.118-.057-2.16.246-3.3.095a11.213,11.213,0,0,1-1.99-.568,32.117,32.117,0,0,0-3.941-.928C12.986,1.65,11.337,1.309,9.67.987A43.27,43.27,0,0,0,2.64,0C1.541-.018.271.172.025,1.081a.5.5,0,0,0,.038.4.827.827,0,0,0,.322.3c2.729,1.857,6.2,1.63,9.171,3.013a2.716,2.716,0,0,1,.777.493c.152.152.265.322.417.474a4.941,4.941,0,0,0,2.5,1.459,20.509,20.509,0,0,0,2.8.436c6.746.777,13.662,3.9,20.237,3.752C37.126,11.389,38.074,11.181,38.074,10.48Z" transform="translate(61.282 96.341)" fill="url(#linear-gradient-8)"/>
      <path id="Path-15" data-name="Path" d="M19.6,6.389a7.867,7.867,0,0,0-4.358-4.623C10.254-.641,1.348.1.988.136A1.091,1.091,0,0,0,0,1.292a1.225,1.225,0,0,0,.114.4c.72.171,1.44.284,2.141.512,2.463-.114,8.546-.189,12.051,1.5,2.653,1.289,3.3,3.108,3.43,4.169l2.179.341A7.082,7.082,0,0,0,19.6,6.389Z" transform="translate(77.24 105.037)" fill="url(#linear-gradient-9)"/>
      <path id="Path-16" data-name="Path" d="M19.82,0S31.7,7.106,38.352,11.843c0,0-5.722,7.958-8.792,11.085A38.958,38.958,0,0,1,19.1,30.545L0,15.5A45.416,45.416,0,0,0,11.54,8.868,36.7,36.7,0,0,0,19.82,0Z" transform="translate(75.139 15.413)" fill="url(#linear-gradient-10)"/>
      <path id="Path-17" data-name="Path" d="M17.414,25.448c-2.88-2.672-5.95-3.3-10.175-5.5a9.472,9.472,0,0,1-1.667-1.061,1.6,1.6,0,0,1,.625-2.8,9.914,9.914,0,0,1,3.43-.284c3.6.341,6.651,2.785,10.1,3.847a.531.531,0,0,0,.606-.189c.171-.246,0-.493-.152-.7-.985-1.345-1.971-2.672-2.956-4.017a10.667,10.667,0,0,1-1.535-2.558,3.589,3.589,0,0,1,.076-2.9A3.819,3.819,0,0,1,18.229,7.6c2.236-.55,4.6.152,6.859-.284a36.221,36.221,0,0,0,3.884-1.345c.114-.038.227-.057.322-.095C24.273,2.691,19.782,0,19.782,0a36.581,36.581,0,0,1-8.262,8.849A46.673,46.673,0,0,1,1.27,14.969c-.417.171-.739.3-.947.4h0a.924.924,0,0,0-.133.057H.171c-.038.019-.076.019-.095.038h0a.07.07,0,0,1-.057.019H0L19.1,30.526a32,32,0,0,0,3.373-1.895A22.834,22.834,0,0,1,17.414,25.448Z" transform="translate(75.12 15.432)" fill="#2d3b1c" opacity="0.5"/>
      <g id="Group-3" data-name="Group" transform="translate(6.922 0.243)">
        <path id="Path-18" data-name="Path" d="M136.015,69.117h0L4.435.238C3.109-.444,1.347.39.475,2.1s-.512,3.619.815,4.3l132.83,66.4v-.019h0a1.9,1.9,0,0,0,2.369-1.1A1.865,1.865,0,0,0,136.015,69.117Z" transform="translate(0 0)" fill="url(#linear-gradient-11)"/>
        <path id="Path-19" data-name="Path" d="M10.056,3.254,4.049.108A3.18,3.18,0,0,0,.468,2.06C-.328,3.595-.081,5.338,1,6.1L7.062,9.128c-1.213-.663-1.535-2.482-.72-4.074S8.806,2.666,10.056,3.254Z" transform="translate(8.742 4.507)" fill="#ff7c66"/>
        <path id="Path-20" data-name="Path" d="M9.577,3.1,3.854.1A3.026,3.026,0,0,0,.443,1.96,3.051,3.051,0,0,0,.936,5.807L6.7,8.687C5.54,8.043,5.218,6.338,6.014,4.8,6.81,3.287,8.383,2.529,9.577,3.1Z" transform="translate(22.543 11.655)" fill="#ff7c66"/>
      </g>
      <g id="Group-4" data-name="Group" transform="translate(0.313 15.267)">
        <path id="Path-21" data-name="Path" d="M140.5,59h0L4.147.165C2.783-.4,1.078.544.339,2.306S.111,5.944,1.475,6.532L138.91,62.809V62.79h0A2.118,2.118,0,0,0,140.5,59Z" transform="translate(0 0)" fill="url(#linear-gradient-12)"/>
        <path id="Path-22" data-name="Path" d="M9.977,2.754,3.762.064a3.2,3.2,0,0,0-3.43,2.2,3.226,3.226,0,0,0,.815,4L7.419,8.818C6.149,8.249,5.695,6.468,6.4,4.8,7.1,3.171,8.688,2.243,9.977,2.754Z" transform="translate(9.064 3.834)" fill="#ff7c66"/>
        <path id="Path-23" data-name="Path" d="M9.492,2.617,3.58.059a3.043,3.043,0,0,0-3.259,2.1A3.061,3.061,0,0,0,1.1,5.971L7.067,8.415c-1.194-.55-1.649-2.236-.985-3.828C6.744,3.015,8.26,2.143,9.492,2.617Z" transform="translate(23.363 9.94)" fill="#ff7c66"/>
      </g>
      <path id="Path-24" data-name="Path" d="M.662,59.9a1.09,1.09,0,0,1-.133-1.933,29.99,29.99,0,0,0,7.238-6.727,28.7,28.7,0,0,0,6.2-20.275c-.777-10.649,2.558-17.584,4.756-22.151,1.156-2.388,2.065-4.282,1.724-5.419a1.573,1.573,0,0,0-1.023-1.118L16.579,1.218c-.152-.568.246-.928.815-1.08C18.8-.2,21.657-.109,22.51,2.772c.568,1.933-.436,4.036-1.838,6.973-2.236,4.642-5.287,10.99-4.548,21.071A31.156,31.156,0,0,1,9.435,52.645a31.181,31.181,0,0,1-7.788,7.163A1.144,1.144,0,0,1,.662,59.9Z" transform="translate(37.054 100.942)" fill="url(#linear-gradient-13)"/>
      <path id="Path-25" data-name="Path" d="M.67,50.7a1.077,1.077,0,0,1,.55-2.065A9.773,9.773,0,0,0,8.439,46.3c2.388-2.255,3.43-5.988,3.089-11.142-.568-8.792,3.922-15.083,7.542-20.123,3.543-4.946,5.438-7.9,3.411-10.971a3.821,3.821,0,0,0-1.857-1.5C17.648,1.357,15.356.315,15.356.315a14.669,14.669,0,0,1,2.293-.3c2.994-.133,5.287.853,6.613,2.88,2.956,4.453-.019,8.6-3.468,13.416-3.6,5.021-7.674,10.706-7.144,18.74.379,5.817-.891,10.156-3.771,12.866a11.861,11.861,0,0,1-8.944,2.88A1.486,1.486,0,0,1,.67,50.7Z" transform="translate(30.375 98.567)" fill="url(#linear-gradient-14)"/>
      <path id="Path-26" data-name="Path" d="M.677,37.781a1.048,1.048,0,0,1-.663-.834A1.073,1.073,0,0,1,.9,35.716C1.359,35.64,12.236,33.783,10.72,22,9.375,11.556,11.762,4.072,14.737,1.267A3.791,3.791,0,0,1,18.11.054a4.684,4.684,0,0,1,3.922,3.373c.019.076-2.16-.625-3.847-1.137-.152-.038-.3-.076-.474-.114a1.923,1.923,0,0,0-1.478.663c-2.577,2.425-4.548,9.683-3.373,18.873.928,7.238-2.293,11.256-5.173,13.34a16.374,16.374,0,0,1-6.461,2.785A1.118,1.118,0,0,1,.677,37.781Z" transform="translate(46.361 103.602)" fill="url(#linear-gradient-15)"/>
      <path id="Path-27" data-name="Path" d="M.5.5h0" transform="translate(137.871 75.132)" fill="#b2b2b2"/>
      <g id="Group-5" data-name="Group" transform="translate(85.125 78.422)">
        <path id="Path-28" data-name="Path" d="M15.064,18.02C16.087,3.676,7.864,0,7.864,0L0,17.054a4.4,4.4,0,0,1,.417.568c.606.246,1.213.512,1.838.777A1.166,1.166,0,0,0,2.5,18.38a6.856,6.856,0,0,1,1.971.076,3.6,3.6,0,0,1,1.762,1.061.975.975,0,0,0,.739.4,1.586,1.586,0,0,1,.815.3c.208.171.284.341.455.493a16.16,16.16,0,0,0,2.084.568,4.824,4.824,0,0,0,1.27-.133A18.029,18.029,0,0,0,14.913,19.5C14.969,19.024,15.026,18.532,15.064,18.02Z" transform="translate(10.327 0.45)" fill="#f1f1f1"/>
        <path id="Path-29" data-name="Path" d="M5.419,14.85a.824.824,0,0,1,.114.133l.455.284c.644.4,1.27.8,1.876,1.251l.227.171a4.273,4.273,0,0,1,1.307.171,2.669,2.669,0,0,1,1.326,1.213c.606.246,1.213.512,1.838.777a1.165,1.165,0,0,0,.246-.019,6.856,6.856,0,0,1,1.971.076,3.6,3.6,0,0,1,1.762,1.061.975.975,0,0,0,.739.4,1.586,1.586,0,0,1,.815.3c.208.171.284.341.455.493a16.159,16.159,0,0,0,2.084.568h.208c2.179-6.424,2.634-18.873-2.653-21.3C12.771-2.071,3.24,6.892,0,12.709a6.08,6.08,0,0,0,.853.455,9.2,9.2,0,0,0,2.482.417A3.761,3.761,0,0,1,5.419,14.85Z" transform="translate(0.019 0)" fill="url(#linear-gradient-16)"/>
        <path id="Path-30" data-name="Path" d="M13.472,13.87C11.18,12.2,9.19,9.891,8.716,7.106A10.322,10.322,0,0,1,10.1.493c.095-.171.189-.322.284-.493A33.271,33.271,0,0,0,0,10.706a7.108,7.108,0,0,0,.834.455,9.2,9.2,0,0,0,2.482.417,3.675,3.675,0,0,1,2.1,1.251.824.824,0,0,1,.114.133l.455.284c.644.4,1.27.8,1.876,1.251l.227.171a4.273,4.273,0,0,1,1.307.171,2.669,2.669,0,0,1,1.326,1.213c.606.246,1.213.512,1.838.777a1.165,1.165,0,0,0,.246-.019,6.856,6.856,0,0,1,1.971.076,3.6,3.6,0,0,1,1.762,1.061.975.975,0,0,0,.739.4,1.586,1.586,0,0,1,.815.3c.208.171.284.341.455.493a16.159,16.159,0,0,0,2.084.568h.208a22.663,22.663,0,0,0,.663-2.388A19.715,19.715,0,0,1,13.472,13.87Z" transform="translate(0 2.003)" fill="#e5e5e5"/>
        <path id="Path-31" data-name="Path" d="M1.1,3.507l.455.284c.644.4,1.27.8,1.876,1.251l.227.171a4.273,4.273,0,0,1,1.307.171A2.669,2.669,0,0,1,6.291,6.6c.606.246,1.213.512,1.838.777a1.166,1.166,0,0,0,.246-.019,6.856,6.856,0,0,1,1.971.076,3.6,3.6,0,0,1,1.762,1.061l.133.133A7.012,7.012,0,0,0,0,2.56a3.948,3.948,0,0,1,.966.815A.227.227,0,0,1,1.1,3.507Z" transform="translate(4.434 11.476)" fill="url(#linear-gradient-17)"/>
        <path id="Path-32" data-name="Path" d="M.891,3.28A7.661,7.661,0,0,1,9.417,1.84a7.888,7.888,0,0,1,1.705,1.08A7.031,7.031,0,0,0,0,2.56,3.626,3.626,0,0,1,.891,3.28Z" transform="translate(4.453 11.476)" fill="#f49100"/>
      </g>
      <g id="Group-6" data-name="Group" transform="translate(106.518 84.597)">
        <path id="Path-33" data-name="Path" d="M.777,20.862a17.241,17.241,0,0,0,4.586,1.649c1.516.474,3.543,1.686,5,2.255a6.666,6.666,0,0,0,5.192-.777A15.628,15.628,0,0,0,17.528,18.8C20.332,4.7,12.658,0,12.658,0L0,20.294A7.4,7.4,0,0,0,.777,20.862Z" transform="translate(9.133 0.736)" fill="#f1f1f1"/>
        <path id="Path-34" data-name="Path" d="M2.046,16.634a39.657,39.657,0,0,1,4.245,2.274c1.289.8,2.369,1.857,3.619,2.691A17.241,17.241,0,0,0,14.5,23.247c1.516.474,2.785,1.345,4.226,1.952a5.426,5.426,0,0,0,.777.284,11.937,11.937,0,0,0,1.478-1.876c3.335-5.344,6.158-19.536.815-22.871S4.946,6.174,1.611,11.518A11.217,11.217,0,0,0,0,15.952,9.982,9.982,0,0,1,2.046,16.634Z" transform="translate(0 0)" fill="url(#linear-gradient-18)"/>
        <path id="Path-35" data-name="Path" d="M19.214,18.267c-1.118-1.592-1.421-3.619-2.255-5.381A9.931,9.931,0,0,0,12.6,8.337C11.35,7.693,9.91,7.257,9.076,6.12a4.212,4.212,0,0,1-.341-3.866A8.773,8.773,0,0,1,9.986,0,30.536,30.536,0,0,0,1.611,8.034,11.217,11.217,0,0,0,0,12.468a9.269,9.269,0,0,1,2.046.682,39.658,39.658,0,0,1,4.245,2.274c1.289.8,2.369,1.857,3.619,2.691A17.241,17.241,0,0,0,14.5,19.763c1.516.474,2.785,1.345,4.226,1.952A5.426,5.426,0,0,0,19.5,22a11.937,11.937,0,0,0,1.478-1.876c.019-.038.038-.057.057-.095A6.992,6.992,0,0,1,19.214,18.267Z" transform="translate(0 3.484)" fill="#e5e5e5"/>
        <path id="Path-36" data-name="Path" d="M2.049,8.327c1.289.8,2.369,1.857,3.619,2.691a17.241,17.241,0,0,0,4.586,1.649,3.325,3.325,0,0,1,.606.227,6.746,6.746,0,0,0,2.1-2.16,7.014,7.014,0,0,0-11.9-7.428A6.9,6.9,0,0,0,0,7.171C.723,7.531,1.386,7.929,2.049,8.327Z" transform="translate(4.242 10.581)" fill="url(#linear-gradient-19)"/>
        <path id="Path-37" data-name="Path" d="M1.064,4.832A7.668,7.668,0,0,1,11.618,2.387a7.307,7.307,0,0,1,1.554,1.289A7,7,0,0,0,1.064,3.3,6.9,6.9,0,0,0,0,7.162c.038.019.057.038.095.057A7.63,7.63,0,0,1,1.064,4.832Z" transform="translate(4.261 10.59)" fill="#f49100"/>
      </g>
      <g id="Group-7" data-name="Group" transform="translate(109.171 66.652)">
        <path id="Path-38" data-name="Path" d="M5.643,0C4.089,1.592,2.649,3.392,1.417,4.927,1,5.457.6,5.95.243,6.386A1.01,1.01,0,0,0,.394,7.845a1.175,1.175,0,0,0,1.554-.208c.36-.436.777-.947,1.194-1.478A65.03,65.03,0,0,1,7.727.872Z" transform="translate(6.427 4.015)" fill="url(#linear-gradient-20)"/>
        <path id="Path-39" data-name="Path" d="M19.763,2.385A3.765,3.765,0,0,1,21.279,5.55c.133,2.615-1.251,6.651-5.552,10.156A34.468,34.468,0,0,0,4.131,32.23C2.975,35.3,2.16,37.5,0,38.956a.994.994,0,0,0,.436.644,1.771,1.771,0,0,0,2.312-.246c1.705-1.781,2.558-4.036,3.468-6.5A32.238,32.238,0,0,1,17.13,17.26C20.37,14.626,23.743,10.1,23.5,5.341A5.667,5.667,0,0,0,21,.585a4.8,4.8,0,0,0-4.965.246L19.024,2.12A2.892,2.892,0,0,1,19.763,2.385Z" transform="translate(0 0)" fill="url(#linear-gradient-21)"/>
      </g>
      <g id="Group-8" data-name="Group" transform="translate(103.789 63.301)">
        <path id="Path-40" data-name="Path" d="M5.149,0C3.728,1.649,2.4,3.524,1.284,5.1.9,5.647.545,6.158.2,6.594a1.081,1.081,0,0,0,.227,1.5,1.063,1.063,0,0,0,1.5-.227c.341-.455.7-.985,1.1-1.535A58.989,58.989,0,0,1,7.234.853Z" transform="translate(4.704 4.297)" fill="url(#linear-gradient-22)"/>
        <path id="Path-41" data-name="Path" d="M17.395,2.421a4.116,4.116,0,0,1,1.649,3.24c.265,2.691-.872,6.859-4.889,10.517A33.78,33.78,0,0,0,3.695,33.288C2.729,36.453,2.046,38.726,0,40.261a1.689,1.689,0,0,0,2.2.91c1.933-1.933,2.71-4.472,3.543-7.257,1.345-4.434,3.013-9.948,9.853-16.144,3.032-2.748,6.083-7.428,5.59-12.317A6.27,6.27,0,0,0,18.494.583a4.449,4.449,0,0,0-4.832.3l2.994,1.289A1.493,1.493,0,0,1,17.395,2.421Z" transform="translate(0)" fill="url(#linear-gradient-23)"/>
      </g>
      <g id="Group-9" data-name="Group" transform="translate(100.113 61.942)">
        <path id="Path-42" data-name="Path" d="M2.9,12.677a3.894,3.894,0,0,1-.682-1.611A5.211,5.211,0,0,1,3.374,7.011,46.116,46.116,0,0,1,8.547.891L6.367,0A55.536,55.536,0,0,0,1.63,5.741C-1.1,9.474.19,12.809,1.251,14.06a1.06,1.06,0,0,0,1.516.114A1.056,1.056,0,0,0,2.9,12.677Z" transform="translate(3.448 4.14)" fill="url(#linear-gradient-24)"/>
        <path id="Path-43" data-name="Path" d="M18.1,2.491a4.119,4.119,0,0,1,1.63,3.221c.284,2.767-.872,7.03-4.946,10.725A33.78,33.78,0,0,0,4.32,33.548C3.278,37.016,2.539,39.4,0,40.957c.152.947,2.406,1.27,2.88.436,1.895-1.933,2.672-4.453,3.506-7.219,1.345-4.434,3.013-9.948,9.853-16.144,3.051-2.785,6.139-7.523,5.628-12.544A6.1,6.1,0,0,0,19.195.634a5.084,5.084,0,0,0-5.154.152l3.506,1.478A2.8,2.8,0,0,1,18.1,2.491Z" transform="translate(0 0)" fill="url(#linear-gradient-25)"/>
      </g>
      <g id="Group-10" data-name="Group" transform="translate(94.448 60.898)">
        <path id="Path-44" data-name="Path" d="M0,40.22a2.015,2.015,0,0,0,2.71,1.118c3.3-1.895,4.358-4.851,5.552-8.186a31.332,31.332,0,0,1,10.649-15.5c5.021-4.15,6.518-9.1,6.234-12.336A5.528,5.528,0,0,0,22.568.75,6.323,6.323,0,0,0,16.845.617l3.941,1.705a4.052,4.052,0,0,1,.739.3A3.47,3.47,0,0,1,23,5.506c.36,4.112-2.71,8.224-5.457,10.479A33.608,33.608,0,0,0,6.253,32.413C4.889,36.2,3.941,38.818,0,40.22Z" transform="translate(0 0)" fill="url(#linear-gradient-26)"/>
        <path id="Path-45" data-name="Path" d="M8.318.872,6.2,0c-.189.208-.379.417-.55.644A41.111,41.111,0,0,1,.4,6.177,1.1,1.1,0,0,0,.227,7.693a1.1,1.1,0,0,0,1.516.171A41.782,41.782,0,0,0,7.314,2.009C7.636,1.611,7.977,1.232,8.318.872Z" transform="translate(6.253 3.933)" fill="url(#linear-gradient-27)"/>
      </g>
      <path id="Path-46" data-name="Path" d="M.5.5h0" transform="translate(139.462 71.342)" fill="#b2b2b2"/>
      <path id="Path-47" data-name="Path" d="M.782,4.965c1.307.322,2.653.3,3.847,1.08A5.771,5.771,0,0,0,6.922,7.106,18.825,18.825,0,0,1,9.2,7.447c1.649.417,3.183,1.573,4.965,1.251a4.564,4.564,0,0,0,1.8-.815,3.65,3.65,0,0,0,1.383-1.289,16.125,16.125,0,0,0-6.556-4.7C7.547.531,4.4.095,2.355.55L1.048,0,.176,2.046A2.983,2.983,0,0,0,.782,4.965Z" transform="translate(64.276 91.397)" fill="#a65200"/>
      <path id="Path-48" data-name="Path" d="M6.105,8.8a21.537,21.537,0,0,1,2.217.322c1.649.417,3.183,1.573,4.965,1.251a4.564,4.564,0,0,0,1.8-.815A3.2,3.2,0,0,0,16.7,7.72c.152-.531.3-1,.815-1.232-1.137-1.762-3.6-3.638-6.746-4.965C5.821-.56,1.065-.5.155,1.676-.678,3.665,1.918,6.7,6.105,8.8Z" transform="translate(65.13 89.703)" fill="url(#linear-gradient-28)"/>
      <path id="Path-49" data-name="Path" d="M3.791,5.958a18.96,18.96,0,0,0,1.876.91A19.065,19.065,0,0,0,11.92,8.4c.152-.076.3-.171.455-.265A19.019,19.019,0,0,1,3.923,5.711C1.687,4.48.285,3,.247,1.827A1.267,1.267,0,0,1,.948.671c1.345-.834,4.623-.3,7.3,1.156,1.4.758,2.312,1.724,2.312,2.444a.789.789,0,0,1-.417.7c-.853.512-2.918.189-4.6-.739-.872-.474-1.44-1.08-1.459-1.516a.429.429,0,0,1,.246-.4,3.67,3.67,0,0,1,2.9.474c.625.341.91.7.91.928A.242.242,0,0,1,8,3.93a2.27,2.27,0,0,1-1.8-.3c-.379-.208-.55-.436-.55-.55A.1.1,0,0,1,5.7,2.983a1.509,1.509,0,0,1,1.1.189.14.14,0,0,0,.133-.246,1.633,1.633,0,0,0-1.383-.189.346.346,0,0,0-.189.341c0,.265.265.55.7.8a2.5,2.5,0,0,0,2.084.3A.54.54,0,0,0,8.414,3.7c0-.379-.4-.815-1.061-1.175-1.175-.644-2.577-.853-3.183-.474a.68.68,0,0,0-.379.663C3.81,3.286,4.4,3.93,5.4,4.48c1.8.985,3.96,1.307,4.908.739a1.062,1.062,0,0,0,.568-.947c-.019-.834-.966-1.857-2.463-2.691C5.667.065,2.275-.447.835.425A1.55,1.55,0,0,0,0,1.846C0,3.1,1.479,4.669,3.791,5.958Z" transform="translate(67.653 91.276)" fill="#a65200"/>
      <path id="Path-50" data-name="Path" d="M20.806,6.005l.284-2.388-1.535-.189C17.888,1.893,14.685.6,10.914.169,7.144-.286,3.733.207,1.743,1.287L.208,1.1,0,2.86c.057.057.114.133.171.189a2.978,2.978,0,0,1,.36,1.118c.322.246.625.512.947.8.114.095.208.227.322.341a12.536,12.536,0,0,1,1.175.872,2.784,2.784,0,0,1,.493.095,1.227,1.227,0,0,1,.493.265.553.553,0,0,1,.171.038A6.391,6.391,0,0,1,5.8,7.351l.4.171.284.171a3.183,3.183,0,0,0,.72.227c1.251.246,2.463.682,3.714.91.322.057.644.114.947.189.322,0,.663-.019,1.023,0,.815.057,1.686.265,2.539.284C18.456,8.848,20.6,7.654,20.806,6.005Z" transform="translate(36.616 84.387)" fill="#a65200"/>
      <path id="Path-51" data-name="Path" d="M20.877,6.008c-.3,2.539-5.23,4.036-10.99,3.335S-.288,6.027.015,3.506,5.245-.53,11,.171C16.765.854,21.18,3.468,20.877,6.008Z" transform="translate(36.829 81.998)" fill="url(#linear-gradient-29)"/>
      <path id="Path-52" data-name="Path" d="M17.948,4.725c0-.038.019-.076.019-.114,0-.057.019-.133.019-.189a.172.172,0,0,0-.208.019c-1.819,1.99-7.409,2.691-12.449,1.554C2.637,5.388.743,4.27.364,3.058a1.351,1.351,0,0,1,.379-1.4C1.9.386,5.442-.05,8.663.67c1.667.379,2.9,1.1,3.145,1.838a.827.827,0,0,1-.227.853c-.72.8-2.975,1.061-5,.606C5.518,3.721,4.76,3.285,4.608,2.83a.467.467,0,0,1,.133-.493c.455-.493,1.895-.663,3.145-.379.739.171,1.156.474,1.213.682a.206.206,0,0,1-.076.246,2.448,2.448,0,0,1-1.952.227c-.455-.095-.7-.284-.739-.4A.111.111,0,0,1,6.37,2.6,1.545,1.545,0,0,1,7.564,2.47a.158.158,0,0,0,.189-.114.168.168,0,0,0-.114-.189,1.817,1.817,0,0,0-1.516.227.389.389,0,0,0-.095.417c.076.265.455.493.966.625a2.656,2.656,0,0,0,2.274-.322.6.6,0,0,0,.152-.568c-.114-.4-.663-.739-1.459-.91-1.4-.322-2.918-.114-3.468.474a.8.8,0,0,0-.208.8c.189.587,1,1.08,2.2,1.364,2.179.493,4.51.189,5.325-.7a1.183,1.183,0,0,0,.3-1.156C11.846,1.561,10.539.765,8.739.348,5.423-.391,1.747.083.515,1.428A1.716,1.716,0,0,0,.079,3.152C.439,4.27,1.955,5.332,4.134,5.995c.36.114.739.208,1.156.3C10.331,7.454,15.977,6.734,17.948,4.725Z" transform="translate(39.739 83.394)" fill="#a65200"/>
      <path id="Path-53" data-name="Path" d="M26.349,14.95c-2.084.379-3.089,3.127-3.089,3.127S10.318,20.009,9.9,8.943C9.541-.228,5.335-1.005,2.777.757.522,2.311-2.472,11.141,3.516,18.7s17.6,3.695,20.521,1.118c0,0,7.371-1,8.034-4.548A12.04,12.04,0,0,0,26.349,14.95Z" transform="translate(142.131 44.595)" fill="#ffd0a4"/>
      <g id="Group-11" data-name="Group" transform="translate(142.133 44.595)">
        <path id="Path-54" data-name="Path" d="M12.013.52A11.893,11.893,0,0,0,6.31.2C4.226.577,3.221,3.324,3.221,3.324a19.112,19.112,0,0,1-2.615.133A6.9,6.9,0,0,1,0,7.19a12.921,12.921,0,0,0,3.96-2.1C3.979,5.067,11.35,4.044,12.013.52Z" transform="translate(20.038 14.752)" fill="url(#linear-gradient-30)"/>
        <path id="Path-55" data-name="Path" d="M9.957,9.777c-.019-.265-.057-.55-.057-.834C9.54-.228,5.334-1.005,2.775.757,1.2,1.837-.749,6.5.293,11.8,4.651,13.775,8.289,11.293,9.957,9.777Z" transform="translate(0 0)" fill="url(#linear-gradient-31)"/>
        <path id="Path-56" data-name="Path" d="M12.828,3.657A8.495,8.495,0,0,1,8.243,0C6.329,4.6,2.312,4.642,0,4.226c.189.265.379.512.568.777A11.719,11.719,0,0,0,8.963,9.361C10.99,8.167,12.241,5.344,12.828,3.657Z" transform="translate(2.927 13.68)" fill="url(#linear-gradient-32)"/>
      </g>
      <path id="Path-57" data-name="Path" d="M3.725,4.485c1.213.739,1.194,2.71,1.194,2.71s7.712,4.358,10.649-2.558c2.444-5.722,5.287-5.192,6.48-3.449,1.042,1.535.815,7.826-4.794,11.161S5.222,10.434,4.009,8.1c0,0-4.415-2.425-3.979-4.813A8.391,8.391,0,0,1,3.725,4.485Z" transform="translate(56.482 54.624)" fill="#ffd0a4"/>
      <g id="Group-12" data-name="Group" transform="translate(56.501 54.643)">
        <path id="Path-58" data-name="Path" d="M.03,0A7.947,7.947,0,0,1,3.706,1.175C4.919,1.914,4.9,3.884,4.9,3.884a11.431,11.431,0,0,0,1.611.7,4.928,4.928,0,0,0-.531,2.5,8.665,8.665,0,0,1-1.99-2.293C4.009,4.813-.406,2.388.03,0Z" transform="translate(0 3.291)" fill="url(#linear-gradient-33)"/>
        <path id="Path-59" data-name="Path" d="M0,5.148c.076-.171.171-.341.246-.512C2.691-1.086,5.533-.556,6.727,1.188c.739,1.061.834,4.491-1.1,7.579A5.973,5.973,0,0,1,0,5.148Z" transform="translate(15.322 0)" fill="url(#linear-gradient-34)"/>
        <path id="Path-60" data-name="Path" d="M.006,1.194A5.805,5.805,0,0,0,3.777,0,4.668,4.668,0,0,0,7.965,4.661c-.171.114-.36.227-.55.341a8.03,8.03,0,0,1-6.367.739A7.707,7.707,0,0,1,.006,1.194Z" transform="translate(9.84 7.346)" fill="url(#linear-gradient-35)"/>
      </g>
      <path id="Path-61" data-name="Path" d="M14.662,2.1C9.129.152.469.019.109,0,.015,0-.023.057.015.171.28.4.545.625.791.853c.493.208,1,.36,1.345.512,1.326.606,2.8.568,4.112,1.213a36.66,36.66,0,0,1,7.693,1.554,5.86,5.86,0,0,1,3.752,3.278c.8.133,1.592.284,2.369.417A7.741,7.741,0,0,0,14.662,2.1Z" transform="translate(73.874 104.945)" fill="url(#linear-gradient-36)"/>
      <path id="Path-62" data-name="Path" d="M6.632,1.528A10.867,10.867,0,0,0,4.434.164C4.017.126.057-.2,0,.183A.255.255,0,0,0,.038.334,2.726,2.726,0,0,1,1.63.5,7.551,7.551,0,0,1,3.24,1.7C4.68,1.774,6.689,1.774,6.632,1.528Z" transform="translate(107.352 109.045)" fill="url(#linear-gradient-37)"/>
      <path id="Path-63" data-name="Path" d="M2.5,1.166a12.289,12.289,0,0,0,1.857.815C4.261,1.6,2.177.257,1.949.105A8.9,8.9,0,0,0,.017.01C-.078.086.244.408.7.768A2.61,2.61,0,0,1,2.5,1.166Z" transform="translate(36.77 91.766)" fill="url(#linear-gradient-38)"/>
      <path id="Path-64" data-name="Path" d="M1.811,1.116c.038-.208.095-.455.133-.7-.322-.208-.606-.36-.682-.4A4.292,4.292,0,0,0,.011.263c-.152.189,1.345,1.175,1.649,1.27.019,0,.019,0,.038.019C1.754,1.4,1.773,1.248,1.811,1.116Z" transform="translate(61.296 86.283)" fill="url(#linear-gradient-39)"/>
      <path id="Path-65" data-name="Path" d="M.234,1.638A2.8,2.8,0,0,1,1.2,1.7c.531.152.436.114.966-.095a3.548,3.548,0,0,1,.606-.152c.36-.322.644-.663.512-.815A7.8,7.8,0,0,0,1.542.009C1.371.1-.22,1.032.026,1.411A.482.482,0,0,0,.234,1.638Z" transform="translate(87.581 95.292)" fill="url(#linear-gradient-40)"/>
      <path id="Path-66" data-name="Path" d="M2.994.634A7.8,7.8,0,0,0,1.251.009,8.152,8.152,0,0,0,0,.88a3.472,3.472,0,0,1,.436.72,1.073,1.073,0,0,1,.057.341,2.067,2.067,0,0,0,.928.208C1.8,2.055,3.278.937,2.994.634Z" transform="translate(126.964 111.701)" fill="url(#linear-gradient-41)"/>
      <path id="Path-67" data-name="Path" d="M17.016,5.522a2.646,2.646,0,0,1,.322.171c.644.379,1.326.853,1.686.227A6.344,6.344,0,0,0,14.4.33,5.748,5.748,0,0,0,9.967.557,4.916,4.916,0,0,1,6.632.9C2.028.027.246,1.353,0,1.581a25.123,25.123,0,0,1,2.6.72c.265.095.531.171.815.246a12.276,12.276,0,0,1,2.88.246,6.7,6.7,0,0,0,4.415-.455,3.92,3.92,0,0,1,3.164-.152A4.349,4.349,0,0,1,17.016,5.522Z" transform="translate(65.456 85.136)" fill="url(#linear-gradient-42)"/>
      <path id="Path-68" data-name="Path" d="M.369.879a12.346,12.346,0,0,0,1.364.4c.36.133.625.379.985.512.3.133.625.171.928.284a3.209,3.209,0,0,1,.512.246Q4.7,2.432,5.3,2.6a9.126,9.126,0,0,1,1.573.663c.379.114.758.265,1.1.379A4.514,4.514,0,0,0,9.483,3.7H9.5a.477.477,0,0,0,.4-.758A7.682,7.682,0,0,0,6.016.575,11.82,11.82,0,0,0,.236.2.288.288,0,0,0,.142.727.793.793,0,0,0,.369.879Z" transform="translate(55.726 94.1)" fill="url(#linear-gradient-43)"/>
      <path id="Path-69" data-name="Path" d="M.8.8a13.259,13.259,0,0,0,1.383.474c.36.152.644.417.985.568.3.133.644.189.947.322a2.225,2.225,0,0,1,.512.284c.36.095.758.208,1.156.341a8.375,8.375,0,0,1,1.592.758c.4.133.777.322,1.118.455a4.6,4.6,0,0,0,1.535.133c.341.019.625.038.91.038C10.573,3.416,9.512,1.863,6.5.782A10.914,10.914,0,0,0,0,.271C.284.441.512.65.8.8Z" transform="translate(54.276 95.086)" fill="url(#linear-gradient-44)"/>
      <path id="Shape" d="M2.642,3.473C.993,2.81-.106,1.767.008,1.047c0,0,.114-.966,1.592-1.042A6.169,6.169,0,0,1,4.158.536c1.686.7,2.823,1.781,2.615,2.5A1.553,1.553,0,0,1,5.6,3.946H5.56A2.8,2.8,0,0,1,4.973,4,6.306,6.306,0,0,1,2.642,3.473Z" transform="translate(94.856 104.77)" fill="#4a9500"/>
      <path id="Path-70" data-name="Path" d="M1.583.005h0C.1.081.01,1.047.01,1.047h0A1.389,1.389,0,0,0,.484,2.108l1.27.057C1,1.673.56,1.161.711.8.938.233,2.454.27,4.008.915a6.293,6.293,0,0,1,2.1,1.345h.455A5.534,5.534,0,0,0,4.141.555,5.934,5.934,0,0,0,1.583.005Z" transform="translate(116.683 113.202)" fill="#4a9500"/>
      <path id="Shape-2" data-name="Shape" d="M2.825,3.408C1.12,2.877-.055,1.93,0,1.191,0,1.191.04.224,1.5.035a6.07,6.07,0,0,1,2.6.322C5.838.926,7.051,1.911,6.9,2.65a1.52,1.52,0,0,1-1.1,1H5.762a3.066,3.066,0,0,1-.884.114A6.868,6.868,0,0,1,2.825,3.408Z" transform="translate(66.553 100.003)" fill="#4a9500"/>
      <path id="Shape-3" data-name="Shape" d="M2.144,2.586C.855,2.169-.054,1.449,0,.9,0,.9.021.18,1.139.028A4.553,4.553,0,0,1,3.11.274C4.437.691,5.346,1.43,5.232,2a1.182,1.182,0,0,1-.815.777H4.38a2.464,2.464,0,0,1-.669.082A5.28,5.28,0,0,1,2.144,2.586Z" transform="translate(80.745 91.937)" fill="#4a9500"/>
      <path id="Path-71" data-name="Path" d="M19.6,5S8.178,1.516,1.3,0C1.3,0,.333,8.584.106,12.355A53.078,53.078,0,0,0,.485,23.136l20.673,3.506a62.555,62.555,0,0,1-1.63-10.914A70.163,70.163,0,0,1,19.6,5Z" transform="translate(21.105 39.743)" fill="url(#linear-gradient-45)"/>
      <g id="Group-13" data-name="Group" transform="translate(21.105 39.743)" opacity="0.5">
        <path id="Path-72" data-name="Path" d="M8.235,1.743C5.81,1.08,3.346.455,1.3,0,1.3,0,.333,8.584.106,12.355A53.078,53.078,0,0,0,.485,23.136L9.22,24.614c-.758-1.307-2.425-1.819-3.392-2.975a4.187,4.187,0,0,1-.739-3.676,6,6,0,0,1,2.179-3.145,15.822,15.822,0,0,1,4.927-2.2,2.374,2.374,0,0,0,1.023-.512.876.876,0,0,0,.208-1.061,1.294,1.294,0,0,0-.682-.436c-1.307-.493-2.634-.985-3.941-1.459-1.421-.531-3.032-1.27-3.335-2.767C5.2,5.1,6.094,3.884,7,2.956A14.9,14.9,0,0,1,8.235,1.743Z" transform="translate(0 0)" fill="#2d3b1c"/>
      </g>
      <path id="Path-73" data-name="Path" d="M2.16,17.384c0-.019.114-2.217,2.558-7.049C6.613,6.621,7.182,3.684,6.367,1.827A2.924,2.924,0,0,0,4.415.122,3.535,3.535,0,0,0,.777,1.353c1.383.379,3.07.834,3.07.834A.782.782,0,0,1,4.4,2.7c.189.436.663,2.236-1.592,6.67C.133,14.618.019,17.081,0,17.346a1.106,1.106,0,0,0,.663,1.023.848.848,0,0,0,.379.076A1.085,1.085,0,0,0,2.16,17.384Z" transform="translate(68.204 105.847)" fill="url(#linear-gradient-46)"/>
      <path id="Path-74" data-name="Path" d="M21.8,21.226c-4.965.512-12.866.36-16.068-5.116C2.246,10.141,3.989,3.319,5.221,0A4.061,4.061,0,0,0,2.777.761C.522,2.315-2.472,11.145,3.516,18.706,8.461,24.959,17.253,23.424,21.8,21.226Z" transform="translate(142.112 44.572)" fill="#fb8000" opacity="0.2"/>
      <path id="Path-75" data-name="Path" d="M17.236,9.057a10.59,10.59,0,0,0,4.6-5.381C20.419,7.352,15.928,9.285,11.475,8.47a13.821,13.821,0,0,1-8.7-5.476A14.4,14.4,0,0,0,.03,0h0C-.406,2.388,4.009,4.813,4.009,4.813,5.222,7.144,11.627,12.392,17.236,9.057Z" transform="translate(56.52 57.934)" fill="#fb8000" opacity="0.2"/>
    </g>
    <g id="No_Results" data-name="No Results" transform="translate(23 120.5)">
      <g id="circle" transform="translate(-19.155 1)">
        <path id="Stroke_1" data-name="Stroke 1" d="M0,0V3" transform="translate(10 131)" fill="none" stroke="#d2d8df" stroke-linecap="round" stroke-width="2.921"/>
        <g id="Group_8" data-name="Group 8" transform="translate(0 132)">
          <path id="Stroke_2" data-name="Stroke 2" d="M0,0,2.451,2.524" transform="translate(3.262 0.625)" fill="none" stroke="#d2d8df" stroke-linecap="round" stroke-width="2.921"/>
          <path id="Stroke_4" data-name="Stroke 4" d="M0,0H3.466" transform="translate(0.395 7.343)" fill="none" stroke="#d2d8df" stroke-linecap="round" stroke-width="2.921"/>
          <path id="Stroke_6" data-name="Stroke 6" d="M0,2.524,2.451,0" transform="translate(2.982 11.657)" fill="none" stroke="#d2d8df" stroke-linecap="round" stroke-width="2.921"/>
        </g>
        <path id="Stroke_9" data-name="Stroke 9" d="M0,3V0" transform="translate(10 144)" fill="none" stroke="#d2d8df" stroke-linecap="round" stroke-width="2.921"/>
        <path id="Stroke_10" data-name="Stroke 10" d="M2,2,0,0" transform="translate(13 143)" fill="none" stroke="#d2d8df" stroke-linecap="round" stroke-width="2.921"/>
        <path id="Stroke_11" data-name="Stroke 11" d="M3,0H0" transform="translate(16 140)" fill="none" stroke="#d2d8df" stroke-linecap="round" stroke-width="2.921"/>
        <path id="Stroke_12" data-name="Stroke 12" d="M2,0,0,2" transform="translate(15 133)" fill="none" stroke="#d2d8df" stroke-linecap="round" stroke-width="2.921"/>
        <path id="Stroke_13" data-name="Stroke 13" d="M0,0V2" transform="translate(171)" fill="none" stroke="#d2d8df" stroke-linecap="round" stroke-width="2.921"/>
        <path id="Stroke_15" data-name="Stroke 15" d="M0,0H2" transform="translate(165 6)" fill="none" stroke="#d2d8df" stroke-linecap="round" stroke-width="2.921"/>
        <path id="Stroke_16" data-name="Stroke 16" d="M0,2V0" transform="translate(171 10)" fill="none" stroke="#d2d8df" stroke-linecap="round" stroke-width="2.921"/>
        <path id="Stroke_17" data-name="Stroke 17" d="M2,0H0" transform="translate(174 6)" fill="none" stroke="#d2d8df" stroke-linecap="round" stroke-width="2.921"/>
        <path id="Stroke_18" data-name="Stroke 18" d="M0,0V3" transform="translate(55 84)" fill="none" stroke="#d2d8df" stroke-linecap="round" stroke-width="2.921"/>
        <path id="Stroke_19" data-name="Stroke 19" d="M0,0H3" transform="translate(46 93)" fill="none" stroke="#d2d8df" stroke-linecap="round" stroke-width="2.921"/>
        <path id="Stroke_20" data-name="Stroke 20" d="M0,3V0" transform="translate(55 98)" fill="none" stroke="#d2d8df" stroke-linecap="round" stroke-width="2.921"/>
        <path id="Stroke_21" data-name="Stroke 21" d="M3,0H0" transform="translate(60 93)" fill="none" stroke="#d2d8df" stroke-linecap="round" stroke-width="2.921"/>
        <g id="Group_42" data-name="Group 42" transform="translate(26 27)">
          <path id="Stroke_22" data-name="Stroke 22" d="M4.328,0A4.329,4.329,0,1,1,0,4.329" transform="translate(239.926 166.039)" fill="none" stroke="#d2d8df" stroke-linecap="round" stroke-width="2.921"/>
          <path id="Fill_26" data-name="Fill 26" d="M0,7.326C2.57,6.524,6.509,3.381,7.421,0c.827,2.989,4.293,6.524,7.421,6.792-3.521,1.247-6.887,4.95-7.421,7.859C7.057,11.686,2.4,7.758,0,7.326" transform="translate(264.062 119.437)" fill="#ebecee"/>
          <path id="Fill_28" data-name="Fill 28" d="M0,3.663A6.307,6.307,0,0,0,3.71,0,5.071,5.071,0,0,0,7.42,3.4,6.169,6.169,0,0,0,3.71,7.325C3.528,5.842,1.2,3.878,0,3.663" transform="translate(0.273 161.043)" fill="#ebecee"/>
          <path id="Fill_30" data-name="Fill 30" d="M6.712,3.357A3.356,3.356,0,1,1,3.356,0,3.356,3.356,0,0,1,6.712,3.357" transform="translate(17.413 22.24)" fill="#d1d8df"/>
          <path id="Fill_32" data-name="Fill 32" d="M11.219,5.611A5.609,5.609,0,1,1,5.61,0a5.61,5.61,0,0,1,5.609,5.611" transform="translate(237 29)" fill="#ebecee"/>
          <path id="Fill_34" data-name="Fill 34" d="M8.9,4.451A4.449,4.449,0,1,1,4.449,0,4.449,4.449,0,0,1,8.9,4.451" transform="translate(317.017 14.959)" fill="#ebecee"/>
          <path id="Stroke_36" data-name="Stroke 36" d="M5.609,2.806A2.8,2.8,0,1,1,2.8,0,2.805,2.805,0,0,1,5.609,2.806Z" transform="translate(81.235 224.462)" fill="none" stroke="#d2d8df" stroke-linecap="round" stroke-width="2.921"/>
          <path id="Stroke_38" data-name="Stroke 38" d="M6.712,3.357A3.356,3.356,0,1,1,3.356,0,3.356,3.356,0,0,1,6.712,3.357Z" transform="translate(78.463 0.675)" fill="none" stroke="#d2d8df" stroke-linecap="round" stroke-width="2.921"/>
          <path id="Stroke_40" data-name="Stroke 40" d="M5.633,8.04A4.155,4.155,0,1,1,8.038,2.679,4.155,4.155,0,0,1,5.633,8.04Z" transform="translate(165.146 250.296)" fill="none" stroke="#d2d8df" stroke-linecap="round" stroke-width="2.921"/>
        </g>
      </g>
    </g>
  </g>
</svg>
