<svg xmlns="http://www.w3.org/2000/svg" xmlns:xlink="http://www.w3.org/1999/xlink" width="352.98" height="305.118" viewBox="0 0 352.98 305.118">
  <defs>
    <clipPath id="clip-path">
      <rect id="Rectangle_17099" data-name="Rectangle 17099" width="132" height="212.245" fill="none"/>
    </clipPath>
    <clipPath id="clip-path-3">
      <rect id="Rectangle_17066" data-name="Rectangle 17066" width="44.581" height="69.836" fill="none"/>
    </clipPath>
    <clipPath id="clip-path-4">
      <rect id="Rectangle_17067" data-name="Rectangle 17067" width="61.154" height="51.333" fill="none"/>
    </clipPath>
    <clipPath id="clip-path-5">
      <rect id="Rectangle_17068" data-name="Rectangle 17068" width="30.32" height="24.195" fill="none"/>
    </clipPath>
    <clipPath id="clip-path-6">
      <rect id="Rectangle_17069" data-name="Rectangle 17069" width="9.918" height="12.165" fill="none"/>
    </clipPath>
    <clipPath id="clip-path-7">
      <rect id="Rectangle_17070" data-name="Rectangle 17070" width="5.93" height="4.43" fill="none"/>
    </clipPath>
    <clipPath id="clip-path-8">
      <rect id="Rectangle_17071" data-name="Rectangle 17071" width="16.642" height="21.085" fill="none"/>
    </clipPath>
    <clipPath id="clip-path-9">
      <rect id="Rectangle_17072" data-name="Rectangle 17072" width="63.054" height="47.565" fill="none"/>
    </clipPath>
    <clipPath id="clip-path-10">
      <rect id="Rectangle_17073" data-name="Rectangle 17073" width="10.015" height="8.509" fill="none"/>
    </clipPath>
    <clipPath id="clip-path-11">
      <rect id="Rectangle_17074" data-name="Rectangle 17074" width="11.427" height="6.873" fill="none"/>
    </clipPath>
    <clipPath id="clip-path-12">
      <rect id="Rectangle_17075" data-name="Rectangle 17075" width="25.151" height="41.691" fill="none"/>
    </clipPath>
    <clipPath id="clip-path-13">
      <rect id="Rectangle_17076" data-name="Rectangle 17076" width="5.149" height="7.333" fill="none"/>
    </clipPath>
    <clipPath id="clip-path-14">
      <rect id="Rectangle_17077" data-name="Rectangle 17077" width="5.405" height="10.299" fill="none"/>
    </clipPath>
    <clipPath id="clip-path-15">
      <rect id="Rectangle_17078" data-name="Rectangle 17078" width="7.412" height="13.405" fill="none"/>
    </clipPath>
    <clipPath id="clip-path-16">
      <rect id="Rectangle_17079" data-name="Rectangle 17079" width="37.351" height="27.06" fill="none"/>
    </clipPath>
    <clipPath id="clip-path-17">
      <rect id="Rectangle_17080" data-name="Rectangle 17080" width="2.197" height="1.535" fill="none"/>
    </clipPath>
    <clipPath id="clip-path-18">
      <rect id="Rectangle_17081" data-name="Rectangle 17081" width="42.224" height="38.516" fill="none"/>
    </clipPath>
    <clipPath id="clip-path-19">
      <rect id="Rectangle_17082" data-name="Rectangle 17082" width="4.986" height="6.515" fill="none"/>
    </clipPath>
    <clipPath id="clip-path-20">
      <rect id="Rectangle_17083" data-name="Rectangle 17083" width="12.617" height="11.82" fill="none"/>
    </clipPath>
    <clipPath id="clip-path-21">
      <rect id="Rectangle_17084" data-name="Rectangle 17084" width="6.961" height="10.906" fill="none"/>
    </clipPath>
    <clipPath id="clip-path-22">
      <rect id="Rectangle_17085" data-name="Rectangle 17085" width="17.189" height="14.033" fill="none"/>
    </clipPath>
    <clipPath id="clip-path-23">
      <rect id="Rectangle_17086" data-name="Rectangle 17086" width="0.652" height="0.051" fill="none"/>
    </clipPath>
    <clipPath id="clip-path-24">
      <rect id="Rectangle_17087" data-name="Rectangle 17087" width="8.264" height="11.069" fill="none"/>
    </clipPath>
    <clipPath id="clip-path-25">
      <rect id="Rectangle_17088" data-name="Rectangle 17088" width="17.86" height="41.105" fill="none"/>
    </clipPath>
    <clipPath id="clip-path-26">
      <rect id="Rectangle_17093" data-name="Rectangle 17093" width="29.464" height="117.016" fill="none"/>
    </clipPath>
    <clipPath id="clip-path-27">
      <rect id="Rectangle_17094" data-name="Rectangle 17094" width="31.969" height="10.439" fill="none"/>
    </clipPath>
    <clipPath id="clip-path-28">
      <rect id="Rectangle_17095" data-name="Rectangle 17095" width="75.963" height="53.171" fill="none"/>
    </clipPath>
    <clipPath id="clip-path-29">
      <rect id="Rectangle_17096" data-name="Rectangle 17096" width="97.052" height="13.736" fill="none"/>
    </clipPath>
    <clipPath id="clip-path-30">
      <rect id="Rectangle_17097" data-name="Rectangle 17097" width="8.46" height="15.794" fill="none"/>
    </clipPath>
  </defs>
  <g id="Group_9048" data-name="Group 9048" transform="translate(-2.78 -109.039)">
    <g id="Group_8765" data-name="Group 8765" transform="translate(114 201.912)">
      <g id="Group_8764" data-name="Group 8764" clip-path="url(#clip-path)">
        <g id="Group_8763" data-name="Group 8763" transform="translate(0 0)">
          <g id="Group_8762" data-name="Group 8762" clip-path="url(#clip-path)">
            <path id="Path_2675" data-name="Path 2675" d="M364.386,724.343s-8.236,11.557-2.306,27.536-4.118,28.168-4.118,28.168S353.5,799.587,369.734,810s15.353-29.235,14.31-35.44-12.374-40.8-12.374-40.8" transform="translate(-335.74 -680.444)" fill="#fff"/>
            <path id="Path_2676" data-name="Path 2676" d="M356.782,802.516a10.5,10.5,0,0,1-5.576-1.923,27.415,27.415,0,0,1-12.491-19.68,34.062,34.062,0,0,1,.217-11.5,1.153,1.153,0,0,1,.235-.477c.1-.116,9.545-11.9,3.927-27.033-6.073-16.363,2.1-28.114,2.448-28.607l1.878,1.338-.939-.669.94.668c-.079.111-7.8,11.29-2.165,26.467a30.4,30.4,0,0,1,.172,20.859,30.72,30.72,0,0,1-4.3,8.208,32.949,32.949,0,0,0-.124,10.483,24.841,24.841,0,0,0,11.443,18c2.715,1.741,4.905,2.013,6.7.83,7.055-4.658,6.757-29.738,5.854-35.108-1.017-6.049-12.22-40.284-12.333-40.629l2.192-.718c.464,1.416,11.37,34.746,12.416,40.965.844,5.022,1.754,31.729-6.857,37.415a6.478,6.478,0,0,1-3.636,1.11" transform="translate(-317.835 -670.07)" fill="#371a45"/>
            <path id="Path_2677" data-name="Path 2677" d="M362.515,914.63a34.929,34.929,0,1,1-34.922-34.922,34.923,34.923,0,0,1,34.922,34.922" transform="translate(-274.934 -826.393)" fill="#fff"/>
            <g id="Group_8680" data-name="Group 8680" transform="translate(43 53.317)" opacity="0.25">
              <g id="Group_8679" data-name="Group 8679">
                <g id="Group_8678" data-name="Group 8678" clip-path="url(#clip-path-3)">
                  <path id="Path_2678" data-name="Path 2678" d="M754.093,914.651a34.918,34.918,0,0,1-34.412,34.915A34.928,34.928,0,0,0,710,881.082c-.161,0-.324,0-.485.006a34.937,34.937,0,0,1,44.581,33.563" transform="translate(-709.512 -879.73)" fill="#371a45"/>
                </g>
              </g>
            </g>
            <path id="Path_2679" data-name="Path 2679" d="M353.053,971.827c-4.283,25.971-41.965,27.556-54.379,13.7a34.928,34.928,0,0,1,11.768-50c21.9-5.047,49.639,5.825,42.611,36.3" transform="translate(-274.934 -877.716)" fill="#371a45"/>
            <g id="Group_8683" data-name="Group 8683" transform="translate(18.077 63.924)" opacity="0.7">
              <g id="Group_8682" data-name="Group 8682">
                <g id="Group_8681" data-name="Group 8681" clip-path="url(#clip-path-4)">
                  <path id="Path_2680" data-name="Path 2680" d="M358.312,1084.936c-4.283,25.971-43.092,24.765-54.379,13.7a34.664,34.664,0,0,1-5.663-14.7,31.644,31.644,0,0,0,22.6,9.258c16.927,0,30.649-12.773,30.649-28.531a26.7,26.7,0,0,0-1.9-9.92c7.7,6.059,11.969,16,8.7,30.188" transform="translate(-298.269 -1054.748)" fill="#111a28"/>
                </g>
              </g>
            </g>
            <path id="Path_2681" data-name="Path 2681" d="M402.248,980.02a40.768,40.768,0,0,1-8.9-.963c-6.384-1.434-11.59-4.4-14.659-8.344l1.56-1.213c5.711,7.344,19.427,10.491,31.906,7.322,11.5-2.921,19.053-10.417,20.726-20.567q.005-.031.012-.061c2.588-11.22.5-20.61-6.048-27.155-7.832-7.833-22.049-11.031-35.378-7.959l-.444-1.926a47.147,47.147,0,0,1,20.123-.255,33.726,33.726,0,0,1,17.1,8.742c4.914,4.914,10.042,13.927,6.583,28.966-1.817,10.946-9.9,19.01-22.185,22.131a42.444,42.444,0,0,1-10.394,1.282" transform="translate(-355.738 -862.303)" fill="#371a45"/>
            <path id="Path_2682" data-name="Path 2682" d="M309.719,932.833a36.075,36.075,0,1,1,36.075-36.075,36.063,36.063,0,0,1-36.075,36.075m0-69.844a33.769,33.769,0,1,0,33.769,33.769,33.77,33.77,0,0,0-33.769-33.769" transform="translate(-257.06 -808.521)" fill="#371a45"/>
            <path id="Path_2683" data-name="Path 2683" d="M545.758,1714.043a44.573,44.573,0,0,1-16.506-3.156l.734-1.835a41.824,41.824,0,0,0,33.406-.953c6.267-3.068,10.777-7.575,12.064-12.055l1.9.546c-1.439,5.009-6.334,9.975-13.095,13.285a42.2,42.2,0,0,1-18.5,4.168" transform="translate(-497.176 -1593.254)" fill="#371a45"/>
            <g id="Group_8686" data-name="Group 8686" transform="translate(25.516 61.748)" opacity="0.5">
              <g id="Group_8685" data-name="Group 8685">
                <g id="Group_8684" data-name="Group 8684" clip-path="url(#clip-path-5)">
                  <path id="Path_2684" data-name="Path 2684" d="M421.015,1043.033c2.208-16.1,7.29-29.063,30.32-22.414-13.047.956-22.483,9.915-30.32,22.414" transform="translate(-421.015 -1018.839)" fill="#f8f8f8"/>
                </g>
              </g>
            </g>
            <g id="Group_8689" data-name="Group 8689" transform="translate(59.556 91.699)" opacity="0.5">
              <g id="Group_8688" data-name="Group 8688">
                <g id="Group_8687" data-name="Group 8687" clip-path="url(#clip-path-6)">
                  <path id="Path_2685" data-name="Path 2685" d="M988.466,1514.12a56.21,56.21,0,0,1-5.263,7.471,2.2,2.2,0,0,0,3.17,3.041,23.842,23.842,0,0,0,6.072-8.537,2.179,2.179,0,0,0-.453-2.327l-.04-.043a2.2,2.2,0,0,0-3.486.395" transform="translate(-982.687 -1513.042)" fill="#f8f8f8"/>
                </g>
              </g>
            </g>
            <g id="Group_8692" data-name="Group 8692" transform="translate(48.303 103.519)" opacity="0.5">
              <g id="Group_8691" data-name="Group 8691">
                <g id="Group_8690" data-name="Group 8690" clip-path="url(#clip-path-7)">
                  <path id="Path_2686" data-name="Path 2686" d="M802.936,1710.293c0,1.224-1.328,2.215-2.965,2.215s-2.965-.992-2.965-2.215,1.328-2.215,2.965-2.215,2.965.992,2.965,2.215" transform="translate(-797.006 -1708.078)" fill="#f8f8f8"/>
                </g>
              </g>
            </g>
            <path id="Path_2687" data-name="Path 2687" d="M1222.141,1290.7c0,5.822-4.41,10.542-9.849,10.542s-9.849-4.72-9.849-10.542,4.41-10.542,9.849-10.542,9.849,4.72,9.849,10.542" transform="translate(-1129.568 -1202.576)" fill="#fff"/>
            <g id="Group_8695" data-name="Group 8695" transform="translate(75.93 77.586)" opacity="0.25">
              <g id="Group_8694" data-name="Group 8694">
                <g id="Group_8693" data-name="Group 8693" clip-path="url(#clip-path-8)">
                  <path id="Path_2688" data-name="Path 2688" d="M1269.5,1290.723c0,5.821-4.409,10.542-9.848,10.542a9.481,9.481,0,0,1-6.794-2.912,10.425,10.425,0,0,0,7.57-10.257,10.868,10.868,0,0,0-3.055-7.63,9.136,9.136,0,0,1,2.279-.285c5.439,0,9.848,4.718,9.848,10.542" transform="translate(-1252.861 -1280.181)" fill="#371a45"/>
                </g>
              </g>
            </g>
            <path id="Path_2689" data-name="Path 2689" d="M1196.973,1286.916c-5.976,0-10.838-5.173-10.838-11.531s4.862-11.531,10.838-11.531,10.838,5.173,10.838,11.531-4.862,11.531-10.838,11.531m0-21.085c-4.886,0-8.861,4.286-8.861,9.554s3.975,9.554,8.861,9.554,8.861-4.286,8.861-9.554-3.975-9.554-8.861-9.554" transform="translate(-1114.249 -1187.257)" fill="#371a45"/>
            <path id="Path_2690" data-name="Path 2690" d="M1274.3,1343.083c-3.68,0-6.674-3.253-6.674-7.251s2.994-7.251,6.674-7.251,6.675,3.253,6.675,7.251-2.994,7.251-6.675,7.251m0-12.684a5.467,5.467,0,1,0,4.856,5.433,5.175,5.175,0,0,0-4.856-5.433" transform="translate(-1190.799 -1248.062)" fill="#371a45"/>
            <path id="Path_2691" data-name="Path 2691" d="M469.631,381.208c-.709,26.7-21.954,37.766-42.224,35.781H427.4c-19.382-1.9-37.866-15.733-36.636-39.236a9.3,9.3,0,0,1,5.912-8.173c17.309-6.721,65.405-3.33,72.184,9.118a6.349,6.349,0,0,1,.776,2.509" transform="translate(-367.023 -343.997)" fill="#9e0e3e"/>
            <g id="Group_8698" data-name="Group 8698" transform="translate(23.679 25.653)" opacity="0.6">
              <g id="Group_8697" data-name="Group 8697">
                <g id="Group_8696" data-name="Group 8696" clip-path="url(#clip-path-9)">
                  <path id="Path_2692" data-name="Path 2692" d="M453.757,464.913c-23.56,14.824-64.814,1.209-63-33.53a9.292,9.292,0,0,1,5.742-8.1,9.3,9.3,0,0,0-3.564,6.839c-1.764,33.691,36.988,47.512,60.818,34.794" transform="translate(-390.703 -423.28)" fill="#fff"/>
                </g>
              </g>
            </g>
            <path id="Path_2693" data-name="Path 2693" d="M390.806,601.709c8.433,16.1,65.992,20.184,78.243,6.965l-1.794,7.3c-11.737,10.22-58.043,10.488-75.634-6.834" transform="translate(-367.121 -565.242)" fill="#fff"/>
            <path id="Path_2694" data-name="Path 2694" d="M1461.341,578.5s-.66-2.777-8.4-4.82a14.074,14.074,0,0,1,3.218,6.467Z" transform="translate(-1364.883 -538.908)" fill="#c99335"/>
            <path id="Path_2695" data-name="Path 2695" d="M417.945,404.053q-1.37,0-2.756-.079a46.562,46.562,0,0,1-22.366-7.056c-11.739-7.48-17.8-19.3-17.07-33.286a10.21,10.21,0,0,1,6.49-8.972c7.286-2.828,20.535-4.045,34.578-3.173,14.629.908,27.3,3.9,33.9,8.015,3.549,2.211,5.472,4.753,5.715,7.555a.935.935,0,0,1,0,.1c-.387,14.566-6.988,25.983-18.587,32.148a42.361,42.361,0,0,1-19.909,4.745m-9.983-50.989c-10.093,0-19.41,1.1-25.061,3.292a8.389,8.389,0,0,0-5.332,7.372c-.7,13.3,5.068,24.546,16.231,31.658,12.937,8.243,30.3,9.174,43.2,2.317,10.982-5.836,17.238-16.68,17.621-30.537-.21-2.183-1.845-4.242-4.86-6.12-8.551-5.326-26.111-7.982-41.8-7.982" transform="translate(-352.925 -329.925)" fill="#371a45"/>
            <path id="Path_2696" data-name="Path 2696" d="M958.362,302.342l.933-8.447,9.083,1.853-1.718,8.566,3.942-6.136,7.742,2.2-3.871,6.794" transform="translate(-900.28 -276.084)" fill="#73c61a"/>
            <g id="Group_8701" data-name="Group 8701" transform="translate(57.829 17.811)" opacity="0.6">
              <g id="Group_8700" data-name="Group 8700">
                <g id="Group_8699" data-name="Group 8699" clip-path="url(#clip-path-10)">
                  <path id="Path_2697" data-name="Path 2697" d="M963.849,297.54l-8.721-1.782-.733,6.63-.2-.061.933-8.448,9.082,1.855Z" transform="translate(-954.194 -293.88)" fill="#fff"/>
                </g>
              </g>
            </g>
            <g id="Group_8704" data-name="Group 8704" transform="translate(66.384 22.096)" opacity="0.6">
              <g id="Group_8703" data-name="Group 8703">
                <g id="Group_8702" data-name="Group 8702" clip-path="url(#clip-path-11)">
                  <path id="Path_2698" data-name="Path 2698" d="M1106.772,366.777l-.921,1.621-6.821-1.939-3.206,4.994-.479-.145.291-1.442,3.394-5.285Z" transform="translate(-1095.344 -364.58)" fill="#fff"/>
                </g>
              </g>
            </g>
            <path id="Path_2699" data-name="Path 2699" d="M962.727,296.188a.758.758,0,0,1-.658-1.133l3.393-5.955-6.272-1.782-3.638,5.663a.758.758,0,0,1-1.38-.558l1.57-7.826-7.529-1.536-.842,7.622a.758.758,0,1,1-1.506-.166l.933-8.447a.758.758,0,0,1,.9-.659l9.083,1.853a.758.758,0,0,1,.591.891l-.929,4.63,1.772-2.759a.758.758,0,0,1,.844-.319l7.742,2.2a.758.758,0,0,1,.451,1.1l-3.871,6.795a.757.757,0,0,1-.659.383" transform="translate(-888.536 -264.341)" fill="#371a45"/>
            <path id="Path_2700" data-name="Path 2700" d="M690.119,292.662c-7.537,3.084-15.065,6.134-19.823-1.314-.853-7.35-.036-13,4.487-14.335,4.612-1.173,13.125,5.709,15.336,15.649" transform="translate(-629.392 -260.102)" fill="#fff"/>
            <path id="Path_2701" data-name="Path 2701" d="M1327.428,12.968h0a3.257,3.257,0,0,1,1.022,4.494l-23.135,36.7-2.306-1.486,19.79-38.438a3.257,3.257,0,0,1,4.629-1.267" transform="translate(-1224.04 -11.712)" fill="#fbb987"/>
            <g id="Group_8707" data-name="Group 8707" transform="translate(78.97 0.757)" opacity="0.6">
              <g id="Group_8706" data-name="Group 8706">
                <g id="Group_8705" data-name="Group 8705" clip-path="url(#clip-path-12)">
                  <path id="Path_2702" data-name="Path 2702" d="M1328.162,13.612a3.255,3.255,0,0,0-3.557,1.7l-19.791,38.439.549.351-.046.073-2.306-1.485L1322.8,14.248a3.256,3.256,0,0,1,4.627-1.267,3.211,3.211,0,0,1,.733.63" transform="translate(-1303.011 -12.482)" fill="#fff"/>
                </g>
              </g>
            </g>
            <path id="Path_2703" data-name="Path 2703" d="M1293.385,42.969a1.345,1.345,0,0,1-.731-.216l-1.8-1.159a.758.758,0,0,1-.263-.984l19.79-38.438a4.014,4.014,0,1,1,6.965,3.979l-22.812,36.186a1.36,1.36,0,0,1-1.149.633m-1.131-2.277,1.085.7,22.727-36.049a2.5,2.5,0,1,0-4.336-2.477Z" transform="translate(-1212.296 0.004)" fill="#371a45"/>
            <path id="Path_2704" data-name="Path 2704" d="M1574.08,126.153c-2.4,0-4.007-2.127-4.594-3.488a.758.758,0,0,1,1.391-.6c.063.144,1.54,3.436,4.335,2.343a.758.758,0,1,1,.551,1.412,4.609,4.609,0,0,1-1.683.334" transform="translate(-1474.309 -114.237)" fill="#371a45"/>
            <path id="Path_2705" data-name="Path 2705" d="M1545.483,180.989a4.178,4.178,0,0,1-2.329-.659,4.882,4.882,0,0,1-1.953-2.986.758.758,0,0,1,1.491-.27,3.366,3.366,0,0,0,1.3,1.993,3.305,3.305,0,0,0,2.633.257.757.757,0,0,1,.359,1.472,6.34,6.34,0,0,1-1.5.193" transform="translate(-1447.784 -165.758)" fill="#371a45"/>
            <path id="Path_2706" data-name="Path 2706" d="M991.48,422.19c1.656-3.022-.989-4.9-3.182-3.248-.741-2.615-3.233-2.327-4.448-.288-1.441-1.441-3.4-.453-3.626,1.73,0,0-.146,5.93,0,6.095s2.815,4.424,4.858,3.86,5.913-4.107,6.325-4.477" transform="translate(-920.756 -391.777)" fill="#fff"/>
            <path id="Path_2707" data-name="Path 2707" d="M1010.164,471.643a.659.659,0,0,1-.575-.336c-.7-1.251-.39-3.2.091-4.492a2.349,2.349,0,0,1,.514-.855,2.716,2.716,0,0,1,1.205-.617,3.418,3.418,0,0,1,2.208-.109,2.591,2.591,0,0,1,.989.721,3.593,3.593,0,0,1,.855,1.711,3.174,3.174,0,0,1-.243,1.951,1.8,1.8,0,0,1-.914.93,1.927,1.927,0,0,1-1.035.075,2.074,2.074,0,0,1-1.361-.712,1.6,1.6,0,0,1,.209-2.141.659.659,0,1,1,.862,1,.284.284,0,0,0-.032.334.885.885,0,0,0,.534.222.687.687,0,0,0,.328,0,.565.565,0,0,0,.222-.279,1.847,1.847,0,0,0,.136-1.135,2.274,2.274,0,0,0-.545-1.081,1.311,1.311,0,0,0-.479-.368,2.29,2.29,0,0,0-1.358.143,1.686,1.686,0,0,0-.65.287,1.137,1.137,0,0,0-.209.382,4.792,4.792,0,0,0-.177,3.387.659.659,0,0,1-.574.982" transform="translate(-948.017 -436.9)" fill="#f244a8"/>
            <path id="Path_2708" data-name="Path 2708" d="M524.384,300.742s-.661,6.361-.77,6.576a7.027,7.027,0,0,1-1.394.809c-.561.285-1.076.527-1.076.527l-4.506-.361c-2.724,1.4-3.194-1.655-2.218-2.833a.807.807,0,0,1,.106-.121,2.755,2.755,0,0,1-.4.082,1.755,1.755,0,0,1-.652-.036c-1.9-.488-1.479-4.4.27-4.327-1.342-2.091.288-3.588,2.058-3.13a2.1,2.1,0,0,1,3.13-2.182c.173-2.2,3.336-2.679,4.345-.185Z" transform="translate(-481.187 -276.073)" fill="#fff"/>
            <path id="Path_2709" data-name="Path 2709" d="M577.015,374.434a3.125,3.125,0,0,1-1.168-.217,2.985,2.985,0,0,1-1.754-3.087,3.867,3.867,0,0,1,1.377-3.253c1.753-1.352,4.487-.656,4.6-.626a.659.659,0,0,1-.333,1.275c-.022-.006-2.231-.561-3.467.4a2.6,2.6,0,0,0-.861,2.207c0,.989.313,1.616.929,1.864a2.356,2.356,0,0,0,2.25-.456,1.211,1.211,0,0,0,.194-1.38c-.288-.423-.995-.214-1.39-.051a.659.659,0,0,1-.5-1.219c1.9-.781,2.762.208,2.981.529a2.533,2.533,0,0,1-.333,3.035,3.666,3.666,0,0,1-2.524.982" transform="translate(-539.3 -344.801)" fill="#f244a8"/>
            <path id="Path_2710" data-name="Path 2710" d="M544.749,524.765a6.839,6.839,0,0,0,.267-1.9,7.584,7.584,0,0,0-7.825-7.317,7.833,7.833,0,0,0-7.238,4.54,51.471,51.471,0,0,0,14.8,4.675" transform="translate(-497.835 -484.305)" fill="#ffb839"/>
            <g id="Group_8710" data-name="Group 8710" transform="translate(35.886 31.248)" opacity="0.6">
              <g id="Group_8709" data-name="Group 8709">
                <g id="Group_8708" data-name="Group 8708" clip-path="url(#clip-path-13)">
                  <path id="Path_2711" data-name="Path 2711" d="M592.282,515.955s-.758,2.3,1.079,3.415l1.61,3.049a7.449,7.449,0,0,0,1.875.481,3.076,3.076,0,0,0-.545-3.8s.712-2.579-.839-3.511" transform="translate(-592.127 -515.587)" fill="#fff"/>
                </g>
              </g>
            </g>
            <path id="Path_2712" data-name="Path 2712" d="M798.275,366.034c1.472,2.77,1.448,5.662-.053,6.46s-3.911-.8-5.383-3.571-1.448-5.662.053-6.46,3.911.8,5.383,3.571" transform="translate(-743.767 -340.303)" fill="#ffa64d"/>
            <path id="Path_2713" data-name="Path 2713" d="M533,513.781a.761.761,0,0,1-.127-.011,52.444,52.444,0,0,1-15.013-4.747.757.757,0,0,1-.35-.979,8.568,8.568,0,0,1,7.932-4.994,8.35,8.35,0,0,1,8.582,8.075,7.609,7.609,0,0,1-.3,2.107.758.758,0,0,1-.727.548m-13.777-5.772a51.1,51.1,0,0,0,13.2,4.144,6.123,6.123,0,0,0,.087-1.027,6.835,6.835,0,0,0-7.067-6.56,7.126,7.126,0,0,0-6.219,3.443" transform="translate(-486.09 -472.563)" fill="#371a45"/>
            <path id="Path_2714" data-name="Path 2714" d="M583.409,568.806a.607.607,0,0,1-.573-.8,2.969,2.969,0,0,0,.158-.964,3.4,3.4,0,0,0-3.522-3.255,3.51,3.51,0,0,0-3.335,2.206.606.606,0,1,1-1.138-.418,4.725,4.725,0,0,1,4.473-3,4.612,4.612,0,0,1,4.734,4.467,4.178,4.178,0,0,1-.224,1.356.606.606,0,0,1-.573.41" transform="translate(-540.116 -528.478)" fill="#371a45"/>
            <path id="Path_2715" data-name="Path 2715" d="M748.145,516a9.886,9.886,0,0,0,.128-1.6,10.474,10.474,0,0,0-20.884-.873A81.052,81.052,0,0,0,748.145,516" transform="translate(-683.305 -473.631)" fill="#ffb839"/>
            <g id="Group_8713" data-name="Group 8713" transform="translate(49.83 30.739)" opacity="0.6">
              <g id="Group_8712" data-name="Group 8712">
                <g id="Group_8711" data-name="Group 8711" clip-path="url(#clip-path-14)">
                  <path id="Path_2716" data-name="Path 2716" d="M822.365,508.394s-.922,2.179,1.616,4.006c0,0-1.288,1.073.985,2.662a18.9,18.9,0,0,0,1.364,2.157c.627.8,2.008-.251.8-2.209l-.246-.9s.814-1.136-1-2.424c0,0,1.847-2.9-.971-4.5" transform="translate(-822.202 -507.189)" fill="#fff"/>
                </g>
              </g>
            </g>
            <path id="Path_2717" data-name="Path 2717" d="M733.077,502.828a82.581,82.581,0,0,1-20-2.508.909.909,0,0,1-.685-.961,11.383,11.383,0,0,1,22.7.952,10.785,10.785,0,0,1-.141,1.749.909.909,0,0,1-.885.761q-.494.007-.988.006m.977-.915h0ZM714.3,498.749a80.71,80.71,0,0,0,18.942,2.261c.017-.23.026-.464.026-.7a9.441,9.441,0,0,0-9.551-9.3,9.545,9.545,0,0,0-9.418,7.741" transform="translate(-669.214 -459.541)" fill="#371a45"/>
            <path id="Path_2718" data-name="Path 2718" d="M802.262,574.084a.768.768,0,0,1-.183-.022.758.758,0,0,1-.553-.918,4.737,4.737,0,0,0,.136-1.139,5.122,5.122,0,0,0-10.24-.014.769.769,0,0,1-.76.755.757.757,0,0,1-.755-.76,6.637,6.637,0,0,1,13.27.019,6.256,6.256,0,0,1-.18,1.5.758.758,0,0,1-.735.575" transform="translate(-742.034 -531.236)" fill="#371a45"/>
            <path id="Path_2719" data-name="Path 2719" d="M847.485,621.051a.758.758,0,0,1-.693-1.062,1.849,1.849,0,0,0,.157-.747,2,2,0,0,0-3.993,0,1.812,1.812,0,0,0,.028.319.758.758,0,1,1-1.492.265,3.3,3.3,0,0,1-.051-.584,3.512,3.512,0,0,1,7.024,0,3.354,3.354,0,0,1-.285,1.355.758.758,0,0,1-.694.453" transform="translate(-790.444 -578.472)" fill="#371a45"/>
            <path id="Path_2720" data-name="Path 2720" d="M492,472.787c-12.737,0-27.3-1.467-35.969-4.574-6.75-2.419-10.053-4.821-10.1-7.343-.044-2.478,3.072-3.749,3.2-3.8a.909.909,0,0,1,.675,1.688c-.542.219-2.082,1.073-2.062,2.084.015.749.912,2.8,8.893,5.66,16.411,5.881,51.964,5.407,58.251,1.615,1.238-.747,1.907-1.495,1.935-2.162.035-.839-.952-1.681-1.544-2.108a.909.909,0,1,1,1.064-1.474c1.577,1.138,2.349,2.369,2.3,3.657-.055,1.325-1,2.551-2.812,3.644-3.382,2.04-12.941,3.114-23.834,3.114" transform="translate(-418.908 -429.307)" fill="#371a45"/>
            <path id="Path_2721" data-name="Path 2721" d="M1022.456,495.827a14.644,14.644,0,0,1,28.956-.913,127.143,127.143,0,0,1-28.956.913" transform="translate(-960.49 -453.614)" fill="#ffb839"/>
            <g id="Group_8716" data-name="Group 8716" transform="translate(69.842 29.439)" opacity="0.6">
              <g id="Group_8715" data-name="Group 8715">
                <g id="Group_8714" data-name="Group 8714" clip-path="url(#clip-path-15)">
                  <path id="Path_2722" data-name="Path 2722" d="M1152.956,486.863s-1.865,3.115,1.267,4.145c0,0-.707,2.094,1.869,3.911,0,0-.859,2.834,1.566,3.765s2.151.181,2.151.181l-1.2-4.247a4.4,4.4,0,0,0-.866-4.514s.918-3.227-.973-4.359" transform="translate(-1152.405 -485.745)" fill="#fff"/>
                </g>
              </g>
            </g>
            <path id="Path_2723" data-name="Path 2723" d="M1019.137,483.064q-5.328,0-10.843-.421a.909.909,0,0,1-.837-.981,15.553,15.553,0,0,1,30.76-.973.909.909,0,0,1-.762,1.034,121.333,121.333,0,0,1-18.32,1.342m-9.758-2.165a126.891,126.891,0,0,0,26.873-.836,13.772,13.772,0,0,0-26.873.836" transform="translate(-946.398 -439.524)" fill="#371a45"/>
            <path id="Path_2724" data-name="Path 2724" d="M1086.655,554.015c-.024,0-.048,0-.073,0a.758.758,0,0,1-.682-.826,10.548,10.548,0,0,1,10.684-9.419,10.677,10.677,0,0,1,10.616,8.874.758.758,0,1,1-1.5.226,9.153,9.153,0,0,0-9.118-7.585,9.039,9.039,0,0,0-9.175,8.048.758.758,0,0,1-.753.685" transform="translate(-1020.085 -510.811)" fill="#371a45"/>
            <path id="Path_2725" data-name="Path 2725" d="M1165.15,625.108a.758.758,0,0,1-.748-.88,5.914,5.914,0,0,1,5.92-4.9,5.98,5.98,0,0,1,5.87,4.631.758.758,0,0,1-1.481.318,4.458,4.458,0,0,0-4.389-3.434,4.4,4.4,0,0,0-4.425,3.631.758.758,0,0,1-.747.635" transform="translate(-1093.823 -581.791)" fill="#371a45"/>
            <path id="Path_2726" data-name="Path 2726" d="M678.462,281.753a.758.758,0,0,1-.739-.593,22.332,22.332,0,0,0-9.316-13.753c-1.944-1.2-3.754-1.667-5.094-1.325-3.564,1.049-4.856,5.472-3.923,13.513a.758.758,0,0,1-1.505.175c-1.032-8.894.613-13.849,5.028-15.149,1.768-.451,3.992.083,6.288,1.5a23.92,23.92,0,0,1,10,14.715.758.758,0,0,1-.575.9.767.767,0,0,1-.165.018" transform="translate(-617.734 -248.437)" fill="#371a45"/>
            <path id="Path_2727" data-name="Path 2727" d="M503.718,297.693a2.072,2.072,0,0,1-1.708-.857,3.066,3.066,0,0,1-.4-2.432,2.2,2.2,0,0,1-1.135-.728,3.789,3.789,0,0,1-.293-3.815,2.433,2.433,0,0,1,.823-.973,2.568,2.568,0,0,1,.269-2.449,2.67,2.67,0,0,1,2.089-1.067,2.705,2.705,0,0,1,1.035-1.754,2.943,2.943,0,0,1,2.329-.551,2.741,2.741,0,0,1,2.134-1.621,3.2,3.2,0,0,1,3.447,2.114.758.758,0,1,1-1.4.568,1.694,1.694,0,0,0-1.811-1.184,1.218,1.218,0,0,0-1.076,1.143.757.757,0,0,1-1.081.625,1.517,1.517,0,0,0-1.61.1,1.23,1.23,0,0,0-.451,1.25.758.758,0,0,1-.932.878,1.352,1.352,0,0,0-1.441.383,1.44,1.44,0,0,0,.208,1.6.758.758,0,0,1-.668,1.167c-.233-.01-.4.232-.5.436a2.3,2.3,0,0,0,.1,2.174c.137.165.391.362,1.008.187a.757.757,0,0,1,.732,1.274,1.644,1.644,0,0,0-.141,1.787c.285.4.908.192,1.38-.052a.758.758,0,1,1,.693,1.347,3.508,3.508,0,0,1-1.6.443" transform="translate(-469.517 -264.357)" fill="#371a45"/>
            <path id="Path_2728" data-name="Path 2728" d="M980.742,411.206a.758.758,0,0,1-.664-1.122c.564-1.028.567-1.967.009-2.45a1.638,1.638,0,0,0-2.071.171.758.758,0,0,1-1.185-.4c-.223-.787-.639-1.259-1.17-1.329a2.143,2.143,0,0,0-1.9,1.222.758.758,0,0,1-1.186.148,1.219,1.219,0,0,0-1.286-.4,1.879,1.879,0,0,0-1.052,1.67.758.758,0,1,1-1.507-.158,3.356,3.356,0,0,1,2.052-2.94,2.584,2.584,0,0,1,2.169.22,3.36,3.36,0,0,1,2.9-1.267,2.758,2.758,0,0,1,2.078,1.533,2.935,2.935,0,0,1,3.143.38c.885.766,1.436,2.3.328,4.324a.757.757,0,0,1-.665.394" transform="translate(-910.019 -380.035)" fill="#371a45"/>
            <path id="Path_2729" data-name="Path 2729" d="M1547.394,88.187l31.424-23.809a3.424,3.424,0,0,1,4.69.527h0a3.424,3.424,0,0,1-.834,5.124l-33.628,20.579a1.467,1.467,0,0,1-1.651-2.42" transform="translate(-1453.068 -59.824)" fill="#fbb987"/>
            <g id="Group_8719" data-name="Group 8719" transform="translate(93.745 3.86)" opacity="0.6">
              <g id="Group_8718" data-name="Group 8718">
                <g id="Group_8717" data-name="Group 8717" clip-path="url(#clip-path-16)">
                  <path id="Path_2730" data-name="Path 2730" d="M1584.162,66.115a3.417,3.417,0,0,0-4.361-.191l-31.424,23.809a1.461,1.461,0,0,0-.573,1,1.472,1.472,0,0,1-.994-1.385,1.467,1.467,0,0,1,.582-1.173l31.424-23.809a3.423,3.423,0,0,1,4.688.527,3.349,3.349,0,0,1,.658,1.218" transform="translate(-1546.811 -63.676)" fill="#fff"/>
                </g>
              </g>
            </g>
            <path id="Path_2731" data-name="Path 2731" d="M1536.535,79.823a2.224,2.224,0,0,1-1.345-4l31.424-23.809a4.182,4.182,0,1,1,4.708,6.9L1537.694,79.5a2.216,2.216,0,0,1-1.159.327m32.6-27.14a2.657,2.657,0,0,0-1.61.542L1536.1,77.033h0a.709.709,0,0,0,.8,1.17l33.628-20.579a2.667,2.667,0,0,0-1.393-4.942m-33.491,23.747h0Z" transform="translate(-1441.321 -48.066)" fill="#371a45"/>
            <path id="Path_2732" data-name="Path 2732" d="M1995.984,122.752l-.054,0a4.3,4.3,0,0,1-3.124-1.5,6.684,6.684,0,0,1-1.215-4.5.758.758,0,0,1,1.507.153,5.207,5.207,0,0,0,.872,3.373,2.811,2.811,0,0,0,2.067.955.758.758,0,0,1-.053,1.513" transform="translate(-1870.868 -109.041)" fill="#371a45"/>
            <path id="Path_2733" data-name="Path 2733" d="M1936.878,166.206a.756.756,0,0,1-.248-.042,4.767,4.767,0,0,1-3.236-5.826.758.758,0,0,1,1.465.386,3.266,3.266,0,0,0,2.266,4.008.758.758,0,0,1-.248,1.474" transform="translate(-1816.078 -150.092)" fill="#371a45"/>
            <path id="Path_2734" data-name="Path 2734" d="M1449.6,567.505a.758.758,0,0,1-.73-.559c-.033-.093-.947-2.46-7.864-4.286a.758.758,0,1,1,.387-1.465c7.95,2.1,8.867,5.048,8.945,5.377a.758.758,0,0,1-.738.933" transform="translate(-1353.138 -527.159)" fill="#371a45"/>
            <path id="Path_2735" data-name="Path 2735" d="M1258.949,45.1c-.2,2.545-2.382,4.106-5.657,5.121a.776.776,0,0,1-1-.782,12.148,12.148,0,0,1,.515-2.979,5.891,5.891,0,0,1,2.082-3.085,4.768,4.768,0,0,1,.915-.521,2.234,2.234,0,0,1,3.145,2.245" transform="translate(-1176.395 -40.068)" fill="#c99335"/>
            <path id="Path_2736" data-name="Path 2736" d="M1295.75,216.684c-.7-.924-2.026-1.058-3.818-.61a1.047,1.047,0,0,0-.757,1.3c.525,1.784,1.6,2.9,3.094,2.651a2.146,2.146,0,0,0,1.482-3.342" transform="translate(-1212.883 -202.745)" fill="#c99335"/>
            <g id="Group_8722" data-name="Group 8722" transform="translate(79.109 13.554)" opacity="0.6">
              <g id="Group_8721" data-name="Group 8721">
                <g id="Group_8720" data-name="Group 8720" clip-path="url(#clip-path-17)">
                  <path id="Path_2737" data-name="Path 2737" d="M1307.508,224.41c0,.424-.492.767-1.1.767s-1.1-.343-1.1-.767.492-.767,1.1-.767,1.1.343,1.1.767" transform="translate(-1305.311 -223.643)" fill="#fff"/>
                </g>
              </g>
            </g>
            <path id="Path_2738" data-name="Path 2738" d="M1241.334,39.276a1.533,1.533,0,0,1-1.53-1.618c.275-4.669,2.307-6.512,3.964-7.235a2.992,2.992,0,0,1,4.2,3c-.213,2.67-2.237,4.562-6.19,5.784h0a1.521,1.521,0,0,1-.448.068m3.671-7.6a1.574,1.574,0,0,0-.63.136c-1.845.8-2.874,2.8-3.058,5.935l.242.737-.224-.724c3.293-1.018,4.97-2.476,5.127-4.456a1.476,1.476,0,0,0-.613-1.354,1.446,1.446,0,0,0-.845-.274" transform="translate(-1164.663 -28.335)" fill="#371a45"/>
            <path id="Path_2739" data-name="Path 2739" d="M1282.1,209.127c-1.551,0-2.8-1.17-3.41-3.229a1.77,1.77,0,0,1,.165-1.391,1.823,1.823,0,0,1,1.134-.86c2.2-.549,3.747-.25,4.607.889a2.741,2.741,0,0,1,.349,2.691,3.034,3.034,0,0,1-2.311,1.855,3.284,3.284,0,0,1-.534.045m-.176-4.235a6.6,6.6,0,0,0-1.567.226.3.3,0,0,0-.186.142.266.266,0,0,0-.027.211c.261.886.9,2.342,2.243,2.117a1.509,1.509,0,0,0,1.151-.922,1.214,1.214,0,0,0-.151-1.215,1.726,1.726,0,0,0-1.464-.558" transform="translate(-1201.129 -191.054)" fill="#371a45"/>
            <g id="Group_8725" data-name="Group 8725" transform="translate(60.385 34.702)" opacity="0.25">
              <g id="Group_8724" data-name="Group 8724">
                <g id="Group_8723" data-name="Group 8723" clip-path="url(#clip-path-18)">
                  <path id="Path_2740" data-name="Path 2740" d="M1038.585,575.089c-.709,26.7-21.954,37.766-42.224,35.781,15.452.559,18.556-15.154,19.143-23.035a4.958,4.958,0,0,1,4.587-4.583c21.943-1.584,17.715-10.673,17.715-10.673h0a6.35,6.35,0,0,1,.776,2.509" transform="translate(-996.361 -572.58)" fill="#371a45"/>
                </g>
              </g>
            </g>
            <g id="Group_8728" data-name="Group 8728" transform="translate(28.139 28.358)" opacity="0.25">
              <g id="Group_8727" data-name="Group 8727">
                <g id="Group_8726" data-name="Group 8726" clip-path="url(#clip-path-19)">
                  <path id="Path_2741" data-name="Path 2741" d="M467.2,467.913s-4.409,2.012-2.364,4.2,3.586,2.315,3.586,2.315l.859-2.813-.682-2.54Z" transform="translate(-464.295 -467.913)" fill="#371a45"/>
                </g>
              </g>
            </g>
            <g id="Group_8731" data-name="Group 8731" transform="translate(78.234 30.557)" opacity="0.25">
              <g id="Group_8730" data-name="Group 8730">
                <g id="Group_8729" data-name="Group 8729" clip-path="url(#clip-path-20)">
                  <path id="Path_2742" data-name="Path 2742" d="M1294.71,504.189s2.525.989,1.212,5.91l-1.212-.589s.759,2.97-2.07,3.71a2.774,2.774,0,0,1-1.566,1.9c-1.323.573,4.6.888,4.6.888l7.828-1.5s-2.088-6.161-4.486-7.892" transform="translate(-1290.881 -504.189)" fill="#371a45"/>
                </g>
              </g>
            </g>
            <g id="Group_8734" data-name="Group 8734" transform="translate(56.799 30.915)" opacity="0.25">
              <g id="Group_8733" data-name="Group 8733">
                <g id="Group_8732" data-name="Group 8732" clip-path="url(#clip-path-21)">
                  <path id="Path_2743" data-name="Path 2743" d="M937.65,510.1a5.223,5.223,0,0,1,1.638,6.043l-1.5-1.182s1.367,2.782-.6,3.813l.909,1.9,3.864.331s1.631-4.364,2.16-5.87-6.47-5.035-6.47-5.035" transform="translate(-937.187 -510.102)" fill="#371a45"/>
                </g>
              </g>
            </g>
            <g id="Group_8737" data-name="Group 8737" transform="translate(43.196 20.05)" opacity="0.25">
              <g id="Group_8736" data-name="Group 8736">
                <g id="Group_8735" data-name="Group 8735" clip-path="url(#clip-path-22)">
                  <path id="Path_2744" data-name="Path 2744" d="M722.6,330.83s5.085,7.437-1.8,8.521a7.059,7.059,0,0,0-4.577,2.708c-.611.815-1.664,1.339-3.477.665l2.554,2.139s5.143-6.339,14.634-2.139A23.566,23.566,0,0,0,722.6,330.83" transform="translate(-712.748 -330.83)" fill="#371a45"/>
                </g>
              </g>
            </g>
            <g id="Group_8740" data-name="Group 8740" transform="translate(32.288 29.31)" opacity="0.25">
              <g id="Group_8739" data-name="Group 8739">
                <g id="Group_8738" data-name="Group 8738" clip-path="url(#clip-path-23)">
                  <path id="Path_2745" data-name="Path 2745" d="M533.413,483.66a1.756,1.756,0,0,1-.652-.036,4.94,4.94,0,0,1,.652.036" transform="translate(-532.761 -483.623)" fill="#371a45"/>
                </g>
              </g>
            </g>
            <g id="Group_8743" data-name="Group 8743" transform="translate(32.767 21.511)" opacity="0.25">
              <g id="Group_8742" data-name="Group 8742">
                <g id="Group_8741" data-name="Group 8741" clip-path="url(#clip-path-24)">
                  <path id="Path_2746" data-name="Path 2746" d="M548.5,359.988s.151,3.364.306,4.821a8.326,8.326,0,0,0-5.461.83.161.161,0,0,1-.033.015c-2.694,1.364-3.158-1.676-2.185-2.848.094.015.194.03.294.052,5.736,1.148,7.409-7.424,7.5-7.927Z" transform="translate(-540.657 -354.93)" fill="#371a45"/>
                </g>
              </g>
            </g>
            <path id="Path_2747" data-name="Path 2747" d="M1389.421,1854.349l-1.024,6.606-2.624,16.915-.5,3.212-.306,1.964a6.359,6.359,0,0,1-7.033,5.358c-.042,0-.088-.009-.13-.015a25.139,25.139,0,0,1-7.294-2.052l4.045-38.99.567-5.467,6.739,1.461a9.737,9.737,0,0,1,7.558,11.009" transform="translate(-1287.451 -1730.251)" fill="#fff"/>
            <path id="Path_2748" data-name="Path 2748" d="M1370.637,1872.144a7.626,7.626,0,0,1-.929-.057l-.148-.019a26.062,26.062,0,0,1-7.659-2.166l1.043-2.057a24.268,24.268,0,0,0,6.927,1.938l.116.015a5.179,5.179,0,0,0,5.753-4.392l4.452-28.695a8.6,8.6,0,0,0-6.664-9.706l-6.738-1.461.488-2.254,6.738,1.461a10.9,10.9,0,0,1,8.454,12.313l-4.452,28.7a7.478,7.478,0,0,1-7.382,6.384" transform="translate(-1279.362 -1712.789)" fill="#371a45"/>
            <path id="Path_2749" data-name="Path 2749" d="M1451.656,2141.928l-1.667,12.188-.291,2.115a3.074,3.074,0,0,1-3.412,2.648l-7.445-.852a3.087,3.087,0,0,1-2.718-3.4l1.545-14.257a3.092,3.092,0,0,1,3.388-2.74l3.636.376,4.218.433a3.051,3.051,0,0,1,1.1.327,3.1,3.1,0,0,1,1.642,3.164" transform="translate(-1349.069 -2008.061)" fill="#fff"/>
            <g id="Group_8746" data-name="Group 8746" transform="translate(83.06 117.095)" opacity="0.25">
              <g id="Group_8745" data-name="Group 8745">
                <g id="Group_8744" data-name="Group 8744" clip-path="url(#clip-path-25)">
                  <path id="Path_2750" data-name="Path 2750" d="M1388.371,1961.04l-.291,2.115a3.1,3.1,0,0,1-2.806,2.66l-.306,1.964a6.359,6.359,0,0,1-7.033,5.358c-.042,0-.088-.009-.13-.015a25.143,25.143,0,0,1-7.294-2.052l4.045-38.99,5.467,1.879s-.912,8.694,3.53,10.579l-.479.391L1381.75,1946,1379.69,1957l-.6,5.321a22.043,22.043,0,0,0,6.679.285,3.211,3.211,0,0,0,2.6-1.567Z" transform="translate(-1370.511 -1932.08)" fill="#371a45"/>
                </g>
              </g>
            </g>
            <path id="Path_2751" data-name="Path 2751" d="M1428.748,2142.2a4.2,4.2,0,0,1-.477-.027l-7.445-.852a4.251,4.251,0,0,1-3.734-4.672l1.547-14.258a4.249,4.249,0,0,1,4.651-3.761l7.855.808a4.241,4.241,0,0,1,3.768,4.794l-1.958,14.3a4.27,4.27,0,0,1-4.208,3.666m-5.893-21.287a1.941,1.941,0,0,0-1.924,1.727l-1.547,14.258a1.94,1.94,0,0,0,1.7,2.132l7.445.852a1.946,1.946,0,0,0,2.138-1.66l1.958-14.3a1.936,1.936,0,0,0-1.719-2.188l-7.855-.808a1.951,1.951,0,0,0-.2-.01" transform="translate(-1331.185 -1990.204)" fill="#371a45"/>
            <path id="Path_2752" data-name="Path 2752" d="M1500.094,2152.265l-.484-.055a4.328,4.328,0,0,1-3.8-4.816l1.656-13.8a4.348,4.348,0,0,1,4.74-3.789l1.927.2-.2,1.967-1.927-.2a2.363,2.363,0,0,0-2.575,2.058l-1.656,13.8a2.352,2.352,0,0,0,2.067,2.616l.484.055Z" transform="translate(-1405.121 -2000.708)" fill="#371a45"/>
            <path id="Path_2753" data-name="Path 2753" d="M131.983,1014.07c-1.045,5.164-9.282,10.188-18.094,2.858-20.2,10.651-32.524,4.079-38.3-16.8a.1.1,0,0,1-.021,0c-.588-.042-12.479-.879-17.233,3.3a81.4,81.4,0,0,0-12.479,15.815s-2.633,4.873-9.224,2.724c-4.361-1.421-11.567-6.121-15.23-11.785-1.873-2.9-2.821-6.048-1.985-9.142,2.473-9.142,11.945-7.824,15.979-2.882,0,0,2.364-10.379,8.4-12.906,0,0,4.391-1.509,7.139-2.167,0,0-1.97-14.388,3.133-27.8a34.949,34.949,0,0,0,36.757-2.282c14.788-20.93,6.954-50.1,6.827-50.569,0,0,0,0,0-.006-5.261-12.824,8.145-16.873,12.2-5.579a3.4,3.4,0,0,1,1.23-1.9c1.827-1.109,4.03,3.024,2.009,7.067,5.3,21.07,2.345,43.412-7.558,66.824a46.008,46.008,0,0,1,.373,5.379,49.7,49.7,0,0,1-.606,8.315,65.994,65.994,0,0,1-4.015,14.309,11.371,11.371,0,0,0,1.03,6.179l9.585-6.339a2.562,2.562,0,0,1,2.267-.294c1.37.488,3.736,1.785,7.051,5.23.23.24.461.47.691.694,5.361,5.206,11.073,6.824,10.073,11.77" transform="translate(-17.953 -836.279)" fill="#fff"/>
            <path id="Path_2754" data-name="Path 2754" d="M21.844,1005.787a11.342,11.342,0,0,1-3.522-.6,34.815,34.815,0,0,1-12.466-8.125c-3.349-3.377-7.022-8.582-5.5-14.2,1.087-4.022,3.594-6.645,7.059-7.385a11.473,11.473,0,0,1,9.458,2.589c1.044-3.284,3.652-9.713,8.531-11.755.023-.01.047-.019.07-.027.161-.055,3.557-1.22,6.255-1.946-.353-3.571-1.109-15.716,3.314-27.341a1.153,1.153,0,0,1,1.625-.6A33.792,33.792,0,0,0,72.046,934.3c13.907-19.884,7.066-47.445,6.563-49.371-1.823-4.483-1.663-8.565.441-11.206a6.674,6.674,0,0,1,6.4-2.414,9.543,9.543,0,0,1,6.584,5.159,2.513,2.513,0,0,1,1.366-.707,2.72,2.72,0,0,1,2.6,1.266,7.534,7.534,0,0,1,.357,7.228,91.012,91.012,0,0,1,1.851,32.549,127.669,127.669,0,0,1-9.444,34.318c1.082,8.861-.328,18.068-4.3,28.131a10.523,10.523,0,0,0,.446,4.145l8.408-5.559a3.731,3.731,0,0,1,3.286-.419c1.523.543,4.055,1.94,7.5,5.52a42.5,42.5,0,0,0,5.515,4.649c3.42,2.545,6.374,4.743,5.547,8.841h0a9.71,9.71,0,0,1-6.428,6.825c-2.421.853-7.254,1.577-12.931-2.827-9.742,4.994-17.983,6.1-24.5,3.281-6.563-2.836-11.455-9.681-14.547-20.349-2.74-.124-11.833-.261-15.61,3.056a81.231,81.231,0,0,0-12.242,15.53,8.054,8.054,0,0,1-7.055,3.834m-12.467-28.2a7.1,7.1,0,0,0-1.484.152c-2.614.558-4.452,2.54-5.314,5.731-2.285,8.456,10.661,17.64,16.458,19.53,5.548,1.808,7.765-2.02,7.857-2.184.009-.016.022-.039.032-.055A81.816,81.816,0,0,1,39.6,984.7c5.2-4.567,17.6-3.634,18.125-3.592a1.153,1.153,0,0,1,1.02.842c2.882,10.419,7.412,17.028,13.464,19.644,6,2.591,13.8,1.4,23.185-3.554a1.153,1.153,0,0,1,1.275.134c5.061,4.209,9.248,3.629,11.292,2.908a7.479,7.479,0,0,0,4.934-5.107c.515-2.551-1.151-3.921-4.663-6.534a44.372,44.372,0,0,1-5.8-4.9c-3.3-3.428-5.555-4.57-6.607-4.945a1.413,1.413,0,0,0-1.241.167L85,986.107a1.153,1.153,0,0,1-1.673-.458,12.514,12.514,0,0,1-1.129-6.866,1.16,1.16,0,0,1,.067-.241c3.916-9.861,5.282-18.833,4.175-27.431a1.153,1.153,0,0,1,.082-.6c10.042-23.739,12.566-45.976,7.5-66.092a1.153,1.153,0,0,1,.087-.8,5.654,5.654,0,0,0,.216-4.932c-.268-.506-.526-.642-.575-.649-.065.019-.423.3-.754,1.3a1.153,1.153,0,0,1-1.08.79,1.168,1.168,0,0,1-1.1-.763c-1.155-3.216-3.3-5.376-5.74-5.78a4.34,4.34,0,0,0-4.221,1.575c-1.575,1.977-1.609,5.233-.094,8.937a1.186,1.186,0,0,1,.058.166h0c.33,1.239,7.876,30.472-7,51.529a1.151,1.151,0,0,1-.273.274,36.1,36.1,0,0,1-36.789,2.968c-4.379,12.618-2.645,25.882-2.627,26.018a1.153,1.153,0,0,1-.873,1.277c-2.531.607-6.57,1.979-7,2.125-5.4,2.3-7.666,11.985-7.688,12.082a1.153,1.153,0,0,1-2.017.474,9.63,9.63,0,0,0-7.174-3.429" transform="translate(0 -818.415)" fill="#371a45"/>
            <path id="Path_2755" data-name="Path 2755" d="M519.9,2268.939l-6.024-1.205c-2.36,1.646-1.97,6.378.2,8.114a16.442,16.442,0,0,0,6.109,1.275" transform="translate(-481.225 -2130.297)" fill="#fff"/>
            <path id="Path_2756" data-name="Path 2756" d="M501.975,2260.411a17.93,17.93,0,0,1-6.232-1.376,1.16,1.16,0,0,1-.261-.158,6.963,6.963,0,0,1-2.232-5.56,5.445,5.445,0,0,1,2.1-4.4,1.154,1.154,0,0,1,.886-.185l6.024,1.205-.452,2.261-5.471-1.094a3.582,3.582,0,0,0-.776,2.29,4.882,4.882,0,0,0,1.256,3.586,15.057,15.057,0,0,0,5.457,1.119l.088,2.3c-.126,0-.253.007-.38.007" transform="translate(-463.352 -2112.425)" fill="#371a45"/>
            <path id="Path_2757" data-name="Path 2757" d="M636.821,2161.472c-.482,3.377-1.192,11.42,1.808,17.206a3.5,3.5,0,0,0,2.1,1.73,42.222,42.222,0,0,0,16.208,1.38,35.543,35.543,0,0,0,7.676-1.816,3.514,3.514,0,0,0,2.152-2.6,37.691,37.691,0,0,0-.55-16.7,3.532,3.532,0,0,0-2.811-2.6,89.565,89.565,0,0,0-19.106-1.337,3.634,3.634,0,0,0-.578.079,17.256,17.256,0,0,0-5.258,2.148,3.522,3.522,0,0,0-1.64,2.513" transform="translate(-597.816 -2025.93)" fill="#fff"/>
            <path id="Path_2758" data-name="Path 2758" d="M891.195,2288.888a2.233,2.233,0,1,1-2.392-2.317,2.362,2.362,0,0,1,2.392,2.317" transform="translate(-833.019 -2147.987)" fill="#10afff"/>
            <path id="Path_2759" data-name="Path 2759" d="M634.456,2165.279a41,41,0,0,1-11.842-1.653,4.672,4.672,0,0,1-2.791-2.3c-3.171-6.115-2.4-14.555-1.925-17.9a4.657,4.657,0,0,1,2.18-3.334,18.512,18.512,0,0,1,5.607-2.289,4.786,4.786,0,0,1,.764-.105,90.189,90.189,0,0,1,19.37,1.352,4.692,4.692,0,0,1,3.731,3.449,38.705,38.705,0,0,1,.566,17.205,4.643,4.643,0,0,1-2.855,3.455,36.317,36.317,0,0,1-7.974,1.892q-2.466.231-4.83.231m-4.419-25.377c-1.15,0-2.307.03-3.456.1a2.466,2.466,0,0,0-.393.053,15.982,15.982,0,0,0-4.909,2.006,2.36,2.36,0,0,0-1.1,1.692h0c-.446,3.125-1.174,10.989,1.69,16.512a2.354,2.354,0,0,0,1.409,1.156,41.281,41.281,0,0,0,15.768,1.337,34.6,34.6,0,0,0,7.354-1.738,2.348,2.348,0,0,0,1.448-1.742,36.446,36.446,0,0,0-.533-16.2,2.382,2.382,0,0,0-1.891-1.753,94.244,94.244,0,0,0-15.387-1.419" transform="translate(-580.034 -2008.045)" fill="#371a45"/>
            <path id="Path_2760" data-name="Path 2760" d="M648.712,2221.618l-1.865-.656c1.695-4.819,1.077-13.286.732-16.7a1.592,1.592,0,0,0-1.391-1.41l-16.4-1.928a2.661,2.661,0,0,0-2.887,1.936l-1.9-.532a4.629,4.629,0,0,1,5.022-3.366l16.4,1.928a3.582,3.582,0,0,1,3.127,3.175c.444,4.407.927,12.55-.834,17.557" transform="translate(-587.119 -2065.658)" fill="#371a45"/>
            <path id="Path_2761" data-name="Path 2761" d="M751.623,2248.121l-.309-7.743a2.428,2.428,0,0,0-1.935-2.284l-1.945-.4a4.412,4.412,0,0,1-3.505-4.079l-.352-6.541,1.974-.106.352,6.541a2.434,2.434,0,0,0,1.933,2.25l1.945.4a4.4,4.4,0,0,1,3.508,4.14l.309,7.743Z" transform="translate(-698.511 -2091.998)" fill="#371a45"/>
            <path id="Path_2762" data-name="Path 2762" d="M879.619,2282.738a2.7,2.7,0,0,1-1.891-.788,3.3,3.3,0,0,1-.312-4.309,2.661,2.661,0,0,1,4.031-.292,3.3,3.3,0,0,1,.312,4.308,2.69,2.69,0,0,1-1.948,1.073q-.1.007-.192.007m-.066-4.964q-.05,0-.1,0a1.494,1.494,0,0,0-1.076.6,2.092,2.092,0,0,0,.2,2.7,1.45,1.45,0,0,0,2.228-.161,2.092,2.092,0,0,0-.2-2.7,1.509,1.509,0,0,0-1.051-.447" transform="translate(-823.625 -2138.589)" fill="#371a45"/>
            <path id="Path_2763" data-name="Path 2763" d="M1122.038,2284.145h0a45.742,45.742,0,0,1-5.3.854,46.669,46.669,0,0,1-12.5-.43c-3.6-.446-3.727-7.333-.385-8.242a59.949,59.949,0,0,0,12.6.357c1.173-.088,2.379-.218,3.6-.4l.033,0c.848-.124,1.7-.273,2.558-.452h0c2.809.1,3.779,6.152-.606,8.315" transform="translate(-1034.686 -2137.902)" fill="#fff"/>
            <path id="Path_2764" data-name="Path 2764" d="M1094.26,2268.521a48.571,48.571,0,0,1-8.033-.674c-2.1-.274-3.577-2.146-3.765-4.778-.163-2.284.782-5.048,3.242-5.718a1.156,1.156,0,0,1,.481-.027,57.534,57.534,0,0,0,18.378-.486,1.175,1.175,0,0,1,.276-.023c1.624.06,2.948,1.377,3.371,3.356a6.479,6.479,0,0,1-3.509,7.146,1.161,1.161,0,0,1-.261.092,47.014,47.014,0,0,1-10.182,1.113m-8.144-8.876c-1,.434-1.447,1.96-1.354,3.26.081,1.134.594,2.511,1.775,2.657l.049.007a45.258,45.258,0,0,0,17.215-.382,4.115,4.115,0,0,0,2.156-4.534c-.15-.7-.543-1.421-1.094-1.522a60.319,60.319,0,0,1-18.746.513" transform="translate(-1016.842 -2120.038)" fill="#371a45"/>
            <path id="Path_2765" data-name="Path 2765" d="M528.065,2417.327l.9,7.954-3.135-7.365Z" transform="translate(-493.967 -2270.823)" fill="#371a45"/>
            <path id="Path_2766" data-name="Path 2766" d="M275.754,2657.72c1.046,1.365,2.291,2.688,3.463,4.077a13.935,13.935,0,0,1,2.911,4.6,13.425,13.425,0,0,0-3.708-3.766c-1.413-1.089-2.892-2.1-4.332-3.316Z" transform="translate(-257.477 -2496.647)" fill="#371a45"/>
            <path id="Path_2767" data-name="Path 2767" d="M1376.8,2743.2a23.861,23.861,0,0,0,2.327,5.994,17.861,17.861,0,0,1-2.362-2.354,33.173,33.173,0,0,1-2.065-2.687l2.1-.952" transform="translate(-1291.382 -2576.945)" fill="#371a45"/>
            <path id="Path_2768" data-name="Path 2768" d="M1165.592,2775.935l-.031-1.977a12.408,12.408,0,0,0,9.243-3.988,15.169,15.169,0,0,0,3.555-11.413l1.971-.153a17.145,17.145,0,0,1-4.064,12.9,14.34,14.34,0,0,1-10.673,4.633" transform="translate(-1094.922 -2591.23)" fill="#371a45"/>
            <path id="Path_2769" data-name="Path 2769" d="M1569.567,2903.313l5.795-4.123-4.171,5.76Z" transform="translate(-1474.442 -2723.482)" fill="#371a45"/>
            <path id="Path_2770" data-name="Path 2770" d="M26.721,2728.118a9.235,9.235,0,0,1-2.964-.571l.644-1.869c1.18.406,2.77.755,3.639.106s.974-2.22.923-3.434c-.12-2.824-8.479-13.35-15.179-14.553-1.166-.21-2.711-.286-3.447.539-.835.936-.515,2.818-.321,3.464l-1.891.576c-.042-.137-1.01-3.388.73-5.349,1.079-1.215,2.855-1.611,5.278-1.176,4.605.827,9.268,5.289,11.059,7.168,2.788,2.926,5.646,6.921,5.746,9.247.1,2.458-.473,4.175-1.716,5.1a4.075,4.075,0,0,1-2.5.75" transform="translate(-7.345 -2541.701)" fill="#371a45"/>
            <rect id="Rectangle_17089" data-name="Rectangle 17089" width="9.603" height="1.977" transform="translate(2.326 171.097) rotate(-27.593)" fill="#371a45"/>
            <rect id="Rectangle_17090" data-name="Rectangle 17090" width="10.909" height="1.977" transform="translate(5.919 175.545) rotate(-27.593)" fill="#371a45"/>
            <rect id="Rectangle_17091" data-name="Rectangle 17091" width="8.06" height="1.977" transform="matrix(0.886, -0.463, 0.463, 0.886, 14.124, 182.952)" fill="#371a45"/>
            <rect id="Rectangle_17092" data-name="Rectangle 17092" width="10.909" height="1.977" transform="translate(9.29 179.531) rotate(-27.593)" fill="#371a45"/>
            <path id="Path_2771" data-name="Path 2771" d="M390.857,2496.551l-1.975-.085c.354-8.183-1.221-13.99-4.683-17.257a9.707,9.707,0,0,0-7.16-2.711l-.211-1.965a11.711,11.711,0,0,1,8.693,3.206c3.923,3.674,5.718,10,5.337,18.813" transform="translate(-353.99 -2324.535)" fill="#371a45"/>
            <path id="Path_2772" data-name="Path 2772" d="M1108.674,1920.619a26.571,26.571,0,0,1-7.216,9.545,24.139,24.139,0,0,0,4.217-7.563,25.064,25.064,0,0,0,.807-2.7Z" transform="translate(-1034.704 -1803.545)" fill="#371a45"/>
            <path id="Path_2773" data-name="Path 2773" d="M1315.526,1672.108c-5.321,0-9.817-3.616-9.885-3.671l1.254-1.528-.627.764.626-.765c.359.293,8.87,7.1,15.482.087l1.438,1.356a11.067,11.067,0,0,1-8.289,3.757" transform="translate(-1226.512 -1565.884)" fill="#371a45"/>
            <path id="Path_2774" data-name="Path 2774" d="M932,2625.614l1.168-5.021,1.139,5.027Z" transform="translate(-875.516 -2461.771)" fill="#371a45"/>
            <g id="Group_8749" data-name="Group 8749" transform="translate(74.493 58.476)" opacity="0.25">
              <g id="Group_8748" data-name="Group 8748">
                <g id="Group_8747" data-name="Group 8747" clip-path="url(#clip-path-26)">
                  <path id="Path_2775" data-name="Path 2775" d="M1258.618,1072.408c-6.509-2.121-9.773,2.285-9.773,2.285s-5.53,7.5-10.53,7.176-7.8-6.873-9.015-13.766,5.53-13.939,5.53-13.939a9.822,9.822,0,0,0,1.879-.679c5.342-2.606,3.348-8.718,3.348-8.718l-.033,0-3.6.4c.3-3.915-2.533-9.23-2.533-9.23,19-26.151,11.394-63.593,11.394-63.593,4.242-1.894,2.506-7.3,2.506-7.3,1.827-1.109,4.03,3.024,2.009,7.067,5.3,21.07,2.345,43.412-7.557,66.824a46.032,46.032,0,0,1,.373,5.379h0c2.809.1,3.779,6.151-.606,8.315h0a66,66,0,0,1-4.015,14.309,11.372,11.372,0,0,0,1.03,6.179l9.585-6.339a2.562,2.562,0,0,1,2.267-.294c1.37.488,3.736,1.785,7.051,5.23.23.239.461.47.691.694" transform="translate(-1229.154 -964.863)" fill="#371a45"/>
                </g>
              </g>
            </g>
            <g id="Group_8752" data-name="Group 8752" transform="translate(39.943 117.625)" opacity="0.25">
              <g id="Group_8751" data-name="Group 8751">
                <g id="Group_8750" data-name="Group 8750" clip-path="url(#clip-path-27)">
                  <path id="Path_2776" data-name="Path 2776" d="M659.061,1944.441s11.974,11.758,27.755,4.414a15.574,15.574,0,0,0,4.215-8.026c-8.129,6.636-19.332,6.665-31.969,3.611" transform="translate(-659.061 -1940.83)" fill="#371a45"/>
                </g>
              </g>
            </g>
            <g id="Group_8755" data-name="Group 8755" transform="translate(3.449 133.055)" opacity="0.25">
              <g id="Group_8754" data-name="Group 8754">
                <g id="Group_8753" data-name="Group 8753" clip-path="url(#clip-path-28)">
                  <path id="Path_2777" data-name="Path 2777" d="M132.874,2210.3l-7.5,2.348a11.563,11.563,0,0,1-2.879,6.288c-1.364,1.364-6.233,2.233-11.391,2.463-.012,1.331-.027,3.306-.027,4.815-.588-.042-12.479-.879-17.233,3.3a81.4,81.4,0,0,0-12.479,15.815s-2.633,4.873-9.224,2.724c-4.361-1.421-11.567-6.121-15.23-11.785,11.891,10.336,22.442,1.812,22.442,1.812s6.173-8.612,8.5-14.373,9.388-4.045,9.388-4.045a9.891,9.891,0,0,1-4.815-6.712c19.521,3.176,21.545-13.806,21.545-13.806l6.248-3.715,1.642,1.685,1.233,3.188,2.282.809c-2.8,3.233,0,8.594,0,8.594Z" transform="translate(-56.911 -2195.43)" fill="#371a45"/>
                </g>
              </g>
            </g>
            <g id="Group_8758" data-name="Group 8758" transform="translate(14.719 198.509)" opacity="0.25">
              <g id="Group_8757" data-name="Group 8757">
                <g id="Group_8756" data-name="Group 8756" clip-path="url(#clip-path-29)">
                  <path id="Path_2778" data-name="Path 2778" d="M339.914,3282.3c0,3.793-21.726,6.868-48.526,6.868s-48.526-3.075-48.526-6.868,21.726-6.868,48.526-6.868,48.526,3.075,48.526,6.868" transform="translate(-242.862 -3275.43)" fill="#9e0e3e"/>
                </g>
              </g>
            </g>
            <g id="Group_8761" data-name="Group 8761" transform="translate(27.657 112.614)" opacity="0.25">
              <g id="Group_8760" data-name="Group 8760">
                <g id="Group_8759" data-name="Group 8759" clip-path="url(#clip-path-30)">
                  <path id="Path_2779" data-name="Path 2779" d="M456.35,1858.148s5.821,9.43.77,11.248l4.495,4.545.707-1.789,2.488-7.62" transform="translate(-456.35 -1858.148)" fill="#371a45"/>
                </g>
              </g>
            </g>
          </g>
        </g>
      </g>
    </g>
    <g id="No_Results" data-name="No Results" transform="translate(23 109.5)">
      <g id="circle" transform="translate(-19.155 1)">
        <path id="Stroke_1" data-name="Stroke 1" d="M0,0V3" transform="translate(10 131)" fill="none" stroke="#d2d8df" stroke-linecap="round" stroke-miterlimit="10" stroke-width="2.921"/>
        <g id="Group_8" data-name="Group 8" transform="translate(0 132)">
          <path id="Stroke_2" data-name="Stroke 2" d="M0,0,2.451,2.524" transform="translate(3.262 0.625)" fill="none" stroke="#d2d8df" stroke-linecap="round" stroke-miterlimit="10" stroke-width="2.921"/>
          <path id="Stroke_4" data-name="Stroke 4" d="M0,0H3.466" transform="translate(0.395 7.343)" fill="none" stroke="#d2d8df" stroke-linecap="round" stroke-miterlimit="10" stroke-width="2.921"/>
          <path id="Stroke_6" data-name="Stroke 6" d="M0,2.524,2.451,0" transform="translate(2.982 11.657)" fill="none" stroke="#d2d8df" stroke-linecap="round" stroke-miterlimit="10" stroke-width="2.921"/>
        </g>
        <path id="Stroke_9" data-name="Stroke 9" d="M0,3V0" transform="translate(10 144)" fill="none" stroke="#d2d8df" stroke-linecap="round" stroke-miterlimit="10" stroke-width="2.921"/>
        <path id="Stroke_10" data-name="Stroke 10" d="M2,2,0,0" transform="translate(13 143)" fill="none" stroke="#d2d8df" stroke-linecap="round" stroke-miterlimit="10" stroke-width="2.921"/>
        <path id="Stroke_11" data-name="Stroke 11" d="M3,0H0" transform="translate(16 140)" fill="none" stroke="#d2d8df" stroke-linecap="round" stroke-miterlimit="10" stroke-width="2.921"/>
        <path id="Stroke_12" data-name="Stroke 12" d="M2,0,0,2" transform="translate(15 133)" fill="none" stroke="#d2d8df" stroke-linecap="round" stroke-miterlimit="10" stroke-width="2.921"/>
        <path id="Stroke_13" data-name="Stroke 13" d="M0,0V2" transform="translate(171)" fill="none" stroke="#d2d8df" stroke-linecap="round" stroke-miterlimit="10" stroke-width="2.921"/>
        <path id="Stroke_15" data-name="Stroke 15" d="M0,0H2" transform="translate(165 6)" fill="none" stroke="#d2d8df" stroke-linecap="round" stroke-miterlimit="10" stroke-width="2.921"/>
        <path id="Stroke_16" data-name="Stroke 16" d="M0,2V0" transform="translate(171 10)" fill="none" stroke="#d2d8df" stroke-linecap="round" stroke-miterlimit="10" stroke-width="2.921"/>
        <path id="Stroke_17" data-name="Stroke 17" d="M2,0H0" transform="translate(174 6)" fill="none" stroke="#d2d8df" stroke-linecap="round" stroke-miterlimit="10" stroke-width="2.921"/>
        <path id="Stroke_18" data-name="Stroke 18" d="M0,0V3" transform="translate(55 84)" fill="none" stroke="#d2d8df" stroke-linecap="round" stroke-miterlimit="10" stroke-width="2.921"/>
        <path id="Stroke_19" data-name="Stroke 19" d="M0,0H3" transform="translate(46 93)" fill="none" stroke="#d2d8df" stroke-linecap="round" stroke-miterlimit="10" stroke-width="2.921"/>
        <path id="Stroke_20" data-name="Stroke 20" d="M0,3V0" transform="translate(55 98)" fill="none" stroke="#d2d8df" stroke-linecap="round" stroke-miterlimit="10" stroke-width="2.921"/>
        <path id="Stroke_21" data-name="Stroke 21" d="M3,0H0" transform="translate(60 93)" fill="none" stroke="#d2d8df" stroke-linecap="round" stroke-miterlimit="10" stroke-width="2.921"/>
        <g id="Group_42" data-name="Group 42" transform="translate(26 27)">
          <path id="Stroke_22" data-name="Stroke 22" d="M4.328,0A4.329,4.329,0,1,1,0,4.329" transform="translate(239.926 166.039)" fill="none" stroke="#d2d8df" stroke-linecap="round" stroke-miterlimit="10" stroke-width="2.921"/>
          <path id="Fill_26" data-name="Fill 26" d="M0,7.326C2.57,6.524,6.509,3.381,7.421,0c.827,2.989,4.293,6.524,7.421,6.792-3.521,1.247-6.887,4.95-7.421,7.859C7.057,11.686,2.4,7.758,0,7.326" transform="translate(264.062 119.437)" fill="#ebecee"/>
          <path id="Fill_28" data-name="Fill 28" d="M0,3.663A6.307,6.307,0,0,0,3.71,0,5.071,5.071,0,0,0,7.42,3.4,6.169,6.169,0,0,0,3.71,7.325C3.528,5.842,1.2,3.878,0,3.663" transform="translate(0.273 161.043)" fill="#ebecee"/>
          <path id="Fill_30" data-name="Fill 30" d="M6.712,3.357A3.356,3.356,0,1,1,3.356,0,3.356,3.356,0,0,1,6.712,3.357" transform="translate(17.413 22.24)" fill="#d1d8df"/>
          <path id="Fill_32" data-name="Fill 32" d="M11.219,5.611A5.609,5.609,0,1,1,5.61,0a5.61,5.61,0,0,1,5.609,5.611" transform="translate(237 29)" fill="#ebecee"/>
          <path id="Fill_34" data-name="Fill 34" d="M8.9,4.451A4.449,4.449,0,1,1,4.449,0,4.449,4.449,0,0,1,8.9,4.451" transform="translate(317.017 14.959)" fill="#ebecee"/>
          <path id="Stroke_36" data-name="Stroke 36" d="M5.609,2.806A2.8,2.8,0,1,1,2.8,0,2.805,2.805,0,0,1,5.609,2.806Z" transform="translate(81.235 224.462)" fill="none" stroke="#d2d8df" stroke-linecap="round" stroke-miterlimit="10" stroke-width="2.921"/>
          <path id="Stroke_38" data-name="Stroke 38" d="M6.712,3.357A3.356,3.356,0,1,1,3.356,0,3.356,3.356,0,0,1,6.712,3.357Z" transform="translate(78.463 0.675)" fill="none" stroke="#d2d8df" stroke-linecap="round" stroke-miterlimit="10" stroke-width="2.921"/>
          <path id="Stroke_40" data-name="Stroke 40" d="M5.633,8.04A4.155,4.155,0,1,1,8.038,2.679,4.155,4.155,0,0,1,5.633,8.04Z" transform="translate(165.146 250.296)" fill="none" stroke="#d2d8df" stroke-linecap="round" stroke-miterlimit="10" stroke-width="2.921"/>
        </g>
      </g>
    </g>
  </g>
</svg>
