<?xml version="1.0" encoding="utf-8"?>
<!-- Generator: Adobe Illustrator 26.5.0, SVG Export Plug-In . SVG Version: 6.00 Build 0)  -->
<svg version="1.1" xmlns="http://www.w3.org/2000/svg" xmlns:xlink="http://www.w3.org/1999/xlink" x="0px" y="0px"
	 viewBox="0 0 1122 1122" style="enable-background:new 0 0 1122 1122;" xml:space="preserve">
<style type="text/css">
	.st0{display:none;}
	.st1{display:inline;fill:#B0CDCD;}
	.st2{opacity:0.47;fill:#CACACA;}
	.st3{enable-background:new    ;}
	.st4{fill:#898883;}
	.st5{fill:#BAB9B1;}
	.st6{fill:#E8E8E8;}
	.st7{fill:#F4F4F4;}
	.st8{fill:#CECECE;}
	.st9{fill:#C6C5C1;}
	.st10{fill:#919087;}
	.st11{fill:#9B5C5D;}
	.st12{fill:#A36162;}
	.st13{fill:#995B5C;}
	.st14{fill:#C77677;}
</style>
<g id="BG" class="st0">
	<rect x="-0.2" class="st1" width="1122" height="1122"/>
</g>
<g id="Shadow">
	<polygon class="st2" points="818.7,719.5 817.9,719.3 653.9,677.6 653.8,677.5 586.9,585.7 229,793.7 295.6,885.2 295.9,885.5 
		458.8,928.6 459.3,929.3 535.1,1023.7 893,815.7 	"/>
</g>
<g id="Object">
	<g>
		<g>
			<g class="st3">
				<g>
					<polygon class="st4" points="295.9,823.5 295.8,830.6 229,738.8 229,731.7 					"/>
				</g>
				<g>
					<polygon class="st5" points="458.8,866.6 458.8,873.7 295.8,830.6 295.9,823.5 					"/>
				</g>
				<g>
					<polygon class="st6" points="653.9,615.5 295.6,823.1 295.9,823.5 458.8,866.6 459.3,867.2 817.9,657.3 					"/>
					<polygon class="st7" points="893,753.6 818.7,657.5 817.9,657.3 459.3,867.2 535.1,961.6 					"/>
					<polygon class="st8" points="653.8,615.5 586.9,523.7 229,731.7 295.6,823.1 653.9,615.5 					"/>
				</g>
				<g>
					<polygon class="st9" points="893,753.6 893,760.8 535.1,968.8 535.1,961.6 					"/>
				</g>
				<g>
					<polygon class="st10" points="535.1,961.6 535.1,968.8 458.8,873.7 458.8,866.6 					"/>
				</g>
			</g>
		</g>
		
			<image style="overflow:visible;opacity:0.65;" width="489" height="197" xlink:href="8ABE5726.png"  transform="matrix(0.24 0 0 0.24 502.32 717.16)">
		</image>
		<g id="XMLID_2_">
			<g class="st3">
				<path class="st11" d="M608.9,480.6c0.7-0.2,1.4-0.4,2.1-0.6c0.4-0.1,0.9-0.3,1.3-0.4c0.7-0.3,1.5-0.6,2.2-0.9
					c0.3-0.2,0.7-0.3,1.1-0.4c1-0.5,2.1-1,3.1-1.6l37.6-21.8c-1,0.6-2,1.1-3.1,1.6c-0.3,0.2-0.7,0.3-1.1,0.4
					c-0.7,0.3-1.4,0.6-2.2,0.9c-0.4,0.2-0.9,0.3-1.3,0.4c-0.7,0.2-1.4,0.4-2.1,0.6c-0.5,0.1-1,0.2-1.4,0.4c-0.7,0.2-1.4,0.3-2.1,0.4
					c-0.5,0.1-1.1,0.2-1.6,0.3c-0.6,0.1-1.2,0.2-1.8,0.2c-0.6,0.1-1.1,0.1-1.7,0.2c-0.6,0-1.2,0.1-1.9,0.1c-0.6,0-1.2,0-1.8,0
					c-0.6,0-1.3,0-1.9,0c-0.6,0-1.2-0.1-1.8-0.1c-0.7,0-1.3-0.1-2-0.2c-0.7-0.1-1.3-0.1-2-0.2c-0.5-0.1-1-0.1-1.5-0.2
					c-0.7-0.1-1.5-0.3-2.3-0.4c-0.5-0.1-1-0.2-1.4-0.3c-0.8-0.2-1.7-0.4-2.5-0.6c-0.4-0.1-0.9-0.2-1.3-0.3c-1.1-0.3-2.3-0.7-3.4-1.1
					c-0.1,0-0.3-0.1-0.4-0.1c-1.3-0.4-2.6-0.9-3.9-1.4c-0.4-0.2-0.8-0.3-1.2-0.5c-0.9-0.4-1.8-0.8-2.7-1.2c-0.5-0.2-1-0.5-1.5-0.7
					c-0.8-0.4-1.7-0.8-2.5-1.2c-0.5-0.3-1.1-0.6-1.6-0.8c-1.1-0.6-2.2-1.2-3.4-1.8l-37.6,21.8c0.7,0.4,1.4,0.8,2.1,1.2
					c0.4,0.2,0.9,0.4,1.3,0.7c0.5,0.3,1.1,0.6,1.6,0.8c0.8,0.4,1.7,0.8,2.5,1.2c0.5,0.2,1,0.5,1.5,0.7c0.9,0.4,1.8,0.8,2.7,1.2
					c0.4,0.2,0.8,0.4,1.2,0.5c1.3,0.5,2.6,1,3.8,1.4c0,0,0,0,0,0c0.1,0,0.3,0.1,0.4,0.1c1.1,0.4,2.3,0.7,3.4,1.1
					c0.4,0.1,0.9,0.2,1.3,0.3c0.8,0.2,1.7,0.4,2.5,0.6c0.5,0.1,1,0.2,1.4,0.3c0.8,0.2,1.5,0.3,2.3,0.4c0.5,0.1,1,0.2,1.5,0.2
					c0.4,0.1,0.7,0.1,1.1,0.2c0.3,0,0.6,0,0.9,0.1c0.7,0.1,1.3,0.1,2,0.2c0.6,0,1.2,0.1,1.8,0.1c0.6,0,1.3,0,1.9,0
					c0.6,0,1.2,0,1.8,0c0.6,0,1.2-0.1,1.9-0.1c0.6,0,1.1-0.1,1.7-0.2c0.6-0.1,1.2-0.1,1.8-0.2c0.3,0,0.7-0.1,1-0.1
					c0.2,0,0.4-0.1,0.6-0.1c0.7-0.1,1.4-0.3,2.1-0.4C607.9,480.9,608.4,480.8,608.9,480.6z"/>
				<path class="st12" d="M549.5,464.5c0.5,0.4,1.1,0.8,1.6,1.1c0.9,0.6,1.8,1.2,2.7,1.8c0.4,0.3,0.9,0.6,1.3,0.9
					c1.4,0.9,2.7,1.7,4.1,2.5l37.6-21.8c-1.4-0.8-2.8-1.6-4.1-2.5c-0.5-0.3-0.9-0.6-1.4-0.9c-0.9-0.6-1.8-1.2-2.7-1.8
					c-0.5-0.4-1.1-0.8-1.6-1.1c-0.8-0.6-1.6-1.2-2.4-1.8c-0.6-0.4-1.1-0.9-1.7-1.3c-0.8-0.6-1.5-1.2-2.3-1.8
					c-0.6-0.5-1.3-1.1-1.9-1.6c-0.7-0.6-1.4-1.2-2.1-1.7c-0.6-0.5-1.3-1.1-1.9-1.7c-0.7-0.6-1.4-1.2-2-1.8c-0.6-0.6-1.2-1.2-1.9-1.8
					c-0.7-0.6-1.3-1.3-2-1.9c-0.6-0.6-1.2-1.2-1.8-1.8c-0.6-0.7-1.3-1.3-1.9-2c-0.6-0.6-1.2-1.3-1.8-1.9c-0.6-0.7-1.3-1.4-1.9-2.1
					c-0.6-0.7-1.2-1.3-1.7-2c-0.6-0.7-1.2-1.4-1.8-2.1c-0.6-0.7-1.1-1.4-1.7-2c-0.6-0.7-1.2-1.5-1.8-2.2c-0.6-0.7-1.1-1.4-1.6-2.1
					c-0.6-0.8-1.2-1.5-1.7-2.3c-0.5-0.7-1.1-1.4-1.6-2.2c-0.6-0.8-1.1-1.5-1.7-2.3c-0.5-0.7-1-1.5-1.5-2.2c-0.5-0.8-1.1-1.6-1.6-2.4
					c-0.5-0.7-1-1.5-1.5-2.3c-0.5-0.8-1-1.6-1.5-2.4c-0.5-0.8-0.9-1.5-1.4-2.3c-0.5-0.8-1-1.6-1.5-2.5c-0.5-0.8-0.9-1.6-1.4-2.3
					c-0.5-0.8-0.9-1.7-1.4-2.5c-0.4-0.8-0.9-1.6-1.3-2.4c-0.5-0.8-0.9-1.7-1.3-2.5c-0.4-0.8-0.8-1.6-1.2-2.4
					c-0.4-0.9-0.8-1.7-1.3-2.6c-0.4-0.8-0.8-1.6-1.1-2.4c-0.4-0.8-0.7-1.6-1.1-2.4c-0.5-1-0.9-2-1.3-3c-0.3-0.8-0.7-1.6-1-2.4
					c-0.4-1-0.8-2-1.2-3c-0.3-0.8-0.6-1.6-0.9-2.4c-0.4-1-0.8-2-1.1-3.1c-0.3-0.8-0.6-1.6-0.8-2.4c-0.4-1-0.7-2.1-1-3.1
					c-0.3-0.8-0.5-1.6-0.8-2.4c-0.2-0.7-0.4-1.4-0.6-2c-0.3-1-0.6-2-0.8-2.9c-0.2-0.7-0.4-1.4-0.6-2.1c-0.2-1-0.5-1.9-0.7-2.9
					c-0.2-0.7-0.3-1.4-0.5-2.1c-0.2-1-0.4-1.9-0.6-2.9c-0.1-0.7-0.3-1.4-0.4-2.1c-0.2-1-0.4-2.1-0.6-3.1c-0.1-0.6-0.2-1.2-0.3-1.7
					c-0.2-1.2-0.4-2.5-0.5-3.7c0-0.4-0.1-0.7-0.1-1.1c-0.2-1.6-0.4-3.2-0.5-4.8c0-0.4-0.1-0.8-0.1-1.2c-0.1-1.1-0.2-2.3-0.2-3.4
					c-0.1-1.9-0.1-3.7-0.1-5.6c0-1.5,0-2.9,0.1-4.3c0-0.4,0-0.8,0.1-1.1c0.1-1.2,0.1-2.4,0.3-3.6c0-0.2,0-0.4,0.1-0.6
					c0.1-1.3,0.3-2.6,0.5-3.9c0.1-0.5,0.1-0.9,0.2-1.4c0.1-0.9,0.3-1.8,0.5-2.6c0.1-0.5,0.2-1,0.3-1.4c0.2-0.8,0.4-1.7,0.6-2.5
					c0.1-0.4,0.2-0.9,0.3-1.3c0.2-0.9,0.5-1.9,0.8-2.8c0.1-0.3,0.2-0.6,0.2-0.8c0.4-1.2,0.8-2.3,1.2-3.4c0.1-0.3,0.2-0.5,0.3-0.8
					c0.3-0.8,0.7-1.6,1-2.4c0.2-0.4,0.3-0.7,0.5-1.1c0.3-0.7,0.7-1.3,1-2c0.2-0.4,0.4-0.7,0.6-1.1c0.4-0.6,0.7-1.3,1.1-1.9
					c0.2-0.3,0.4-0.6,0.6-0.9c0.5-0.8,1-1.5,1.6-2.2c0.1-0.1,0.2-0.3,0.3-0.4c0.6-0.8,1.3-1.6,2-2.4c0.2-0.2,0.4-0.4,0.6-0.7
					c0.5-0.5,1-1.1,1.5-1.6c0.3-0.3,0.5-0.5,0.8-0.8c0.5-0.5,1-0.9,1.5-1.3c0.3-0.2,0.6-0.5,0.9-0.7c0.5-0.4,1.1-0.8,1.6-1.3
					c0.3-0.2,0.5-0.4,0.8-0.6c0.8-0.6,1.7-1.1,2.5-1.6l-37.6,21.8c-0.9,0.5-1.7,1-2.5,1.6c-0.3,0.2-0.5,0.4-0.8,0.6
					c-0.6,0.4-1.1,0.8-1.6,1.3c-0.3,0.2-0.6,0.5-0.9,0.7c-0.5,0.4-1,0.9-1.5,1.3c-0.3,0.3-0.5,0.5-0.8,0.8c-0.5,0.5-1,1-1.5,1.6
					c-0.2,0.2-0.4,0.4-0.6,0.7c-0.7,0.8-1.3,1.6-2,2.4c-0.1,0.1-0.2,0.3-0.3,0.4c-0.5,0.7-1.1,1.5-1.6,2.2c-0.2,0.3-0.4,0.6-0.6,0.9
					c-0.4,0.6-0.8,1.2-1.1,1.9c-0.2,0.4-0.4,0.7-0.6,1.1c-0.3,0.6-0.7,1.3-1,2c-0.2,0.4-0.4,0.7-0.5,1.1c-0.4,0.8-0.7,1.6-1,2.4
					c-0.1,0.3-0.2,0.5-0.3,0.8c-0.4,1.1-0.8,2.2-1.2,3.4c-0.1,0.3-0.2,0.6-0.2,0.8c-0.3,0.9-0.5,1.8-0.8,2.8
					c-0.1,0.4-0.2,0.9-0.3,1.3c-0.2,0.8-0.4,1.6-0.6,2.5c-0.1,0.5-0.2,0.9-0.3,1.4c-0.2,0.9-0.3,1.7-0.5,2.6
					c-0.1,0.5-0.1,0.9-0.2,1.4c0,0.2-0.1,0.4-0.1,0.6c-0.1,1.1-0.3,2.2-0.4,3.3c0,0.2,0,0.4-0.1,0.6c-0.1,1.2-0.2,2.4-0.3,3.6
					c0,0.4,0,0.8-0.1,1.1c-0.1,1.4-0.1,2.8-0.1,4.3c0,1.8,0,3.7,0.1,5.6c0,0.1,0,0.3,0,0.4c0,1,0.1,2,0.2,3c0,0.4,0,0.8,0.1,1.2
					c0.1,1.6,0.3,3.2,0.5,4.8c0,0.4,0.1,0.7,0.1,1.1c0.2,1.2,0.3,2.5,0.5,3.7c0.1,0.6,0.2,1.2,0.3,1.7c0.1,0.7,0.2,1.5,0.4,2.2
					c0.1,0.3,0.1,0.6,0.2,0.9c0.1,0.7,0.3,1.4,0.4,2c0.2,1,0.4,1.9,0.6,2.9c0.2,0.7,0.3,1.4,0.5,2.1c0.2,1,0.5,1.9,0.7,2.9
					c0.2,0.7,0.4,1.4,0.6,2.1c0.3,1,0.5,2,0.8,2.9c0.2,0.7,0.4,1.4,0.6,2c0.1,0.3,0.2,0.5,0.2,0.8c0.2,0.5,0.4,1.1,0.5,1.6
					c0.3,1,0.7,2.1,1,3.1c0.3,0.8,0.5,1.6,0.8,2.4c0.4,1,0.7,2.1,1.1,3.1c0.3,0.8,0.6,1.6,0.9,2.4c0.4,1,0.8,2,1.2,3
					c0.3,0.8,0.7,1.6,1,2.4c0.4,1,0.9,2,1.3,3c0.2,0.5,0.4,1,0.6,1.4c0.1,0.3,0.3,0.6,0.5,1c0.4,0.8,0.8,1.6,1.1,2.4
					c0.4,0.9,0.8,1.7,1.3,2.6c0.4,0.8,0.8,1.6,1.2,2.4c0.4,0.9,0.9,1.7,1.3,2.6c0.4,0.8,0.9,1.6,1.3,2.4c0.5,0.8,0.9,1.7,1.4,2.5
					c0.4,0.8,0.9,1.6,1.4,2.3c0.5,0.8,1,1.7,1.5,2.5c0.5,0.8,0.9,1.5,1.4,2.3c0.5,0.8,1,1.6,1.5,2.4c0.5,0.8,1,1.5,1.5,2.3
					c0.5,0.8,1.1,1.6,1.6,2.4c0.5,0.7,1,1.5,1.5,2.2c0.6,0.8,1.1,1.6,1.7,2.3c0.5,0.7,1,1.4,1.6,2.1c0.6,0.8,1.1,1.5,1.7,2.3
					c0.5,0.7,1.1,1.4,1.6,2.1c0.6,0.7,1.2,1.5,1.8,2.2c0.6,0.7,1.1,1.4,1.7,2c0.6,0.7,1.2,1.4,1.8,2.1c0.6,0.7,1.2,1.3,1.7,2
					c0.6,0.7,1.3,1.4,1.9,2.1c0.6,0.6,1.2,1.3,1.8,1.9c0.6,0.7,1.3,1.3,1.9,2c0.6,0.6,1.2,1.2,1.8,1.8c0.7,0.6,1.3,1.3,2,1.9
					c0.6,0.6,1.2,1.2,1.9,1.8c0.7,0.6,1.3,1.2,2,1.8c0.6,0.6,1.3,1.1,1.9,1.7c0.7,0.6,1.4,1.2,2.1,1.7c0.6,0.5,1.3,1.1,1.9,1.6
					c0.2,0.2,0.4,0.3,0.6,0.5c0.5,0.4,1.1,0.8,1.6,1.3c0.6,0.4,1.1,0.9,1.7,1.3C547.9,463.3,548.7,463.9,549.5,464.5z"/>
				<path class="st13" d="M684.3,542.3l-126,146.3l0,0c24.9-14.5,47.2-33,66-54.8l97.6-113.3L684.3,542.3z"/>
				<path class="st12" d="M457.5,182.4c0.4-0.2,0.8-0.3,1.1-0.5c0.6-0.3,1.2-0.5,1.8-0.8c0.4-0.2,0.8-0.3,1.2-0.5
					c0.6-0.2,1.2-0.5,1.7-0.7c0.4-0.2,0.9-0.3,1.3-0.5c0.6-0.2,1.2-0.4,1.8-0.6c0.4-0.1,0.9-0.3,1.3-0.4c0.6-0.2,1.2-0.4,1.8-0.5
					c0.4-0.1,0.9-0.2,1.3-0.4c0.6-0.2,1.3-0.3,1.9-0.5c0.4-0.1,0.9-0.2,1.3-0.3c0.7-0.1,1.4-0.3,2-0.4c0.4-0.1,0.8-0.2,1.2-0.2
					c0.6-0.1,1.1-0.2,1.7-0.3c0.5-0.1,1-0.1,1.4-0.2c0.6-0.1,1.2-0.1,1.8-0.2c0.5-0.1,1-0.1,1.5-0.2c0.6-0.1,1.2-0.1,1.8-0.1
					c0.5,0,1-0.1,1.5-0.1c0.6,0,1.2,0,1.9-0.1c0.5,0,1,0,1.4,0c0.7,0,1.3,0,2,0c0.5,0,0.9,0,1.4,0c0.7,0,1.4,0,2.2,0.1
					c0.4,0,0.8,0,1.2,0c0.9,0.1,1.9,0.1,2.9,0.2c0.2,0,0.4,0,0.6,0c1.2,0.1,2.3,0.2,3.5,0.4c0,0,0.1,0,0.1,0
					c1.8,0.2,3.7,0.5,5.6,0.8c0.3,0,0.5,0.1,0.8,0.1c1.8,0.3,3.6,0.7,5.5,1.1c0.3,0.1,0.7,0.2,1,0.2c1.8,0.4,3.7,0.9,5.6,1.5
					c0.3,0.1,0.6,0.2,0.9,0.3c2,0.6,3.9,1.2,5.9,1.9c0.1,0,0.1,0.1,0.2,0.1c1.9,0.7,3.9,1.4,5.9,2.2c0.3,0.1,0.5,0.2,0.8,0.3
					c1.9,0.8,3.9,1.6,5.8,2.5c0.4,0.2,0.7,0.3,1.1,0.5c1.9,0.9,3.9,1.8,5.9,2.8c0.3,0.2,0.7,0.3,1,0.5c2.1,1,4.1,2.1,6.2,3.2
					c1.3,0.7,2.6,1.4,3.9,2.2l37.6-21.8c-1.3-0.7-2.5-1.4-3.8-2.1c0,0,0,0-0.1,0c-2.1-1.1-4.1-2.2-6.2-3.2c-0.3-0.2-0.6-0.3-1-0.5
					c-2-1-3.9-1.9-5.9-2.8c-0.4-0.2-0.7-0.3-1.1-0.5c-2-0.9-3.9-1.7-5.8-2.5c-0.3-0.1-0.5-0.2-0.8-0.3c-2-0.8-3.9-1.5-5.9-2.2
					c-0.1,0-0.1,0-0.2-0.1c0,0,0,0-0.1,0c-2-0.7-3.9-1.3-5.9-1.9c-0.3-0.1-0.6-0.2-0.9-0.3c-1.9-0.5-3.7-1-5.6-1.5
					c-0.3-0.1-0.7-0.2-1-0.2c-1.8-0.4-3.7-0.8-5.5-1.1c-0.3,0-0.5-0.1-0.8-0.1c-1.9-0.3-3.7-0.6-5.6-0.8c0,0,0,0-0.1,0c0,0,0,0,0,0
					c-1.2-0.1-2.3-0.3-3.5-0.4c-0.2,0-0.4,0-0.6,0c-1-0.1-1.9-0.2-2.9-0.2c-0.4,0-0.8,0-1.2,0c-0.7,0-1.4-0.1-2.2-0.1
					c-0.5,0-0.9,0-1.4,0c-0.7,0-1.3,0-2,0c-0.5,0-1,0-1.4,0c-0.6,0-1.3,0-1.9,0.1c-0.5,0-1,0.1-1.5,0.1c-0.6,0-1.2,0.1-1.8,0.1
					c-0.5,0-1,0.1-1.5,0.2c-0.6,0.1-1.2,0.1-1.8,0.2c-0.5,0.1-1,0.1-1.5,0.2c-0.6,0.1-1.1,0.2-1.7,0.3c-0.1,0-0.2,0-0.3,0
					c-0.3,0.1-0.6,0.1-1,0.2c-0.7,0.1-1.4,0.3-2,0.4c-0.4,0.1-0.9,0.2-1.3,0.3c-0.6,0.1-1.3,0.3-1.9,0.5c-0.4,0.1-0.9,0.2-1.3,0.4
					c-0.6,0.2-1.2,0.3-1.8,0.5c-0.4,0.1-0.9,0.3-1.3,0.4c-0.6,0.2-1.2,0.4-1.8,0.6c-0.4,0.1-0.9,0.3-1.3,0.5
					c-0.6,0.2-1.2,0.4-1.8,0.7c-0.4,0.2-0.8,0.3-1.2,0.5c-0.6,0.2-1.2,0.5-1.8,0.8c-0.4,0.2-0.8,0.3-1.1,0.5
					c-0.6,0.3-1.3,0.6-1.9,0.9c-0.3,0.2-0.6,0.3-0.9,0.5c-0.9,0.5-1.9,1-2.8,1.5l-37.6,21.8c0.9-0.5,1.8-1,2.8-1.5
					c0.3-0.2,0.6-0.3,0.9-0.5C456.2,183,456.9,182.7,457.5,182.4z"/>
				<path class="st14" d="M560.1,195.9c-84-48.5-152.3-9.6-152.6,87c-0.1,36.6,11.6,76.1,26.3,114.8l124.5,290.9l126-146.3
					c16.4-24.9,27.2-46.9,27.3-83.8C711.9,362,644.1,244.4,560.1,195.9z M559.3,470.8c-46-26.5-83.1-90.9-82.9-143.7
					c0.1-52.8,37.5-74.1,83.5-47.6c46,26.5,83.1,90.9,82.9,143.7C642.6,476.1,605.3,497.4,559.3,470.8z"/>
				<path class="st11" d="M727.3,512c0.3-0.5,0.6-1,0.9-1.5c0.6-1,1.2-2,1.7-2.9c0.3-0.4,0.5-0.9,0.8-1.3c0.8-1.4,1.6-2.8,2.4-4.2
					c0,0,0-0.1,0.1-0.1c0.7-1.4,1.4-2.7,2.1-4.1c0.2-0.4,0.4-0.9,0.7-1.3c0.5-1,1-2,1.4-3c0.2-0.5,0.5-1,0.7-1.5
					c0.5-1,0.9-2,1.3-3.1c0.2-0.5,0.4-0.9,0.6-1.4c0.6-1.5,1.2-3,1.7-4.5c0-0.1,0-0.1,0.1-0.2c0.5-1.4,1-2.9,1.5-4.4
					c0.2-0.5,0.3-1,0.4-1.5c0.3-1.1,0.7-2.2,1-3.3c0.2-0.6,0.3-1.1,0.4-1.7c0.3-1.1,0.6-2.3,0.8-3.5c0.1-0.5,0.2-1,0.3-1.5
					c0.4-1.7,0.7-3.4,1-5.1c0-0.1,0-0.2,0.1-0.3c0.2-1.4,0.5-2.8,0.6-4.3c0-0.2,0.1-0.5,0.1-0.7c0.1-0.6,0.1-1.2,0.2-1.8
					c0.1-1.3,0.3-2.6,0.4-3.9c0.1-0.7,0.1-1.3,0.2-2c0.1-1.3,0.2-2.7,0.2-4.1c0-0.6,0.1-1.2,0.1-1.9c0.1-2,0.1-4.1,0.1-6.2
					c0-1.7,0-3.4-0.1-5c0-0.5,0-1.1,0-1.6c0-1.2-0.1-2.3-0.1-3.5c0-0.3,0-0.5,0-0.8c0-0.2,0-0.5,0-0.7c-0.1-2.4-0.3-4.7-0.5-7.1
					c0-0.3,0-0.5-0.1-0.8c-0.2-2.3-0.4-4.7-0.7-7.1c0-0.2,0-0.4-0.1-0.7c-0.3-2.4-0.6-4.8-1-7.2c-0.1-0.4-0.1-0.9-0.2-1.3
					c-0.4-2.4-0.8-4.7-1.2-7.1c0-0.2-0.1-0.4-0.1-0.6c0-0.2-0.1-0.5-0.1-0.7c-0.5-2.5-1-5-1.5-7.5c-0.1-0.3-0.1-0.6-0.2-0.9
					c-0.6-2.6-1.2-5.2-1.8-7.8c0-0.1,0-0.2-0.1-0.2c-0.6-2.6-1.3-5.2-2.1-7.8c-0.1-0.3-0.2-0.7-0.3-1c-0.7-2.5-1.4-5-2.2-7.5
					c-0.1-0.2-0.1-0.5-0.2-0.7c-0.1-0.2-0.1-0.3-0.2-0.5c-1-3.1-2-6.2-3-9.2c-0.1-0.3-0.2-0.6-0.3-0.9c-1.1-3.2-2.3-6.4-3.5-9.6
					c-0.1-0.1-0.1-0.3-0.2-0.4c-1.3-3.3-2.6-6.7-4-10c-0.1-0.1-0.1-0.2-0.2-0.4c-1.3-3.2-2.8-6.4-4.2-9.6c0-0.1-0.1-0.2-0.1-0.3
					c-0.1-0.2-0.2-0.4-0.3-0.6c-1.3-2.7-2.5-5.5-3.9-8.2c-0.1-0.3-0.3-0.6-0.4-0.9c-1.4-2.7-2.7-5.5-4.2-8.2
					c-0.1-0.2-0.3-0.5-0.4-0.7c-1.4-2.7-2.9-5.5-4.4-8.2c-0.1-0.2-0.2-0.4-0.3-0.6c-1.5-2.7-3.1-5.5-4.7-8.2
					c-0.1-0.1-0.2-0.3-0.3-0.4c-1.6-2.8-3.3-5.5-5-8.2c-0.1-0.1-0.1-0.2-0.2-0.3c-1.8-2.8-3.5-5.5-5.4-8.2c0,0,0,0,0,0
					c-1.8-2.7-3.7-5.4-5.6-8.1c0-0.1-0.1-0.1-0.1-0.2c-1.9-2.6-3.8-5.2-5.7-7.8c-0.1-0.1-0.2-0.2-0.3-0.3c-1.9-2.5-3.8-5-5.8-7.4
					c-0.1-0.2-0.3-0.3-0.4-0.5c-1.9-2.4-3.9-4.8-5.9-7.1c-0.2-0.2-0.3-0.4-0.5-0.6c-2-2.3-3.9-4.5-5.9-6.8c-0.2-0.2-0.4-0.4-0.6-0.7
					c-2-2.2-4-4.3-6-6.5c-0.2-0.2-0.5-0.5-0.7-0.7c-2-2.1-4.1-4.1-6.1-6.2c-0.2-0.2-0.5-0.5-0.7-0.7c-2-2-4.1-3.9-6.2-5.9
					c-0.3-0.2-0.5-0.5-0.8-0.7c-2.1-1.9-4.2-3.7-6.3-5.6c-0.3-0.2-0.6-0.5-0.9-0.7c-2.1-1.8-4.2-3.5-6.4-5.2
					c-0.2-0.1-0.3-0.3-0.5-0.4c-0.1-0.1-0.3-0.2-0.4-0.3c-2-1.6-4-3.1-6-4.6c-0.3-0.3-0.7-0.5-1-0.7c-2-1.5-4.1-3-6.2-4.4
					c-0.3-0.2-0.6-0.4-0.9-0.6c-2.1-1.4-4.2-2.8-6.4-4.2c-0.2-0.1-0.4-0.3-0.6-0.4c-2.3-1.4-4.5-2.8-6.8-4.1l-37.6,21.8
					c2.3,1.3,4.5,2.7,6.8,4.1c0.2,0.1,0.4,0.3,0.6,0.4c2.1,1.4,4.3,2.8,6.4,4.2c0.3,0.2,0.6,0.4,0.9,0.6c2.1,1.4,4.1,2.9,6.2,4.4
					c0.3,0.3,0.7,0.5,1,0.8c2,1.5,4,3,6,4.6c0.3,0.2,0.6,0.5,0.9,0.8c2.1,1.7,4.3,3.5,6.4,5.2c0.3,0.2,0.6,0.5,0.9,0.7
					c2.1,1.8,4.2,3.7,6.3,5.6c0.3,0.2,0.5,0.5,0.8,0.7c2.1,1.9,4.2,3.9,6.2,5.9c0.3,0.2,0.5,0.5,0.7,0.7c2.1,2,4.1,4.1,6.1,6.2
					c0.2,0.2,0.5,0.5,0.7,0.7c2,2.1,4,4.3,6,6.5c0.2,0.2,0.4,0.4,0.6,0.7c2,2.2,4,4.5,5.9,6.8c0.2,0.2,0.3,0.4,0.5,0.6
					c2,2.3,3.9,4.7,5.9,7.1c0.1,0.2,0.3,0.3,0.4,0.5c2,2.4,3.9,4.9,5.8,7.4c0.1,0.1,0.2,0.2,0.3,0.3c1.9,2.6,3.8,5.1,5.7,7.8
					c0,0.1,0.1,0.1,0.1,0.2c1.9,2.7,3.8,5.4,5.6,8.1c0,0,0,0,0,0c1.8,2.7,3.6,5.4,5.4,8.2c0.1,0.1,0.1,0.2,0.2,0.3
					c1.7,2.7,3.4,5.4,5,8.2c0.1,0.1,0.2,0.3,0.3,0.4c1.6,2.7,3.2,5.4,4.7,8.2c0.1,0.2,0.2,0.4,0.3,0.6c1.5,2.7,3,5.4,4.4,8.2
					c0.1,0.2,0.3,0.5,0.4,0.7c1.4,2.7,2.8,5.4,4.2,8.2c0.1,0.3,0.3,0.6,0.4,0.9c1.3,2.7,2.6,5.4,3.9,8.2c0.1,0.3,0.3,0.6,0.4,0.9
					c1.5,3.2,2.9,6.4,4.2,9.6c0.1,0.1,0.1,0.2,0.2,0.4c1.4,3.3,2.7,6.6,4,10c0.1,0.1,0.1,0.3,0.2,0.4c1.2,3.2,2.4,6.4,3.5,9.6
					c0.1,0.3,0.2,0.6,0.3,0.9c1.1,3.1,2.1,6.2,3,9.3c0.1,0.4,0.2,0.8,0.4,1.2c0.8,2.5,1.5,5,2.2,7.5c0.1,0.3,0.2,0.7,0.3,1
					c0.7,2.6,1.4,5.2,2.1,7.8c0,0.1,0,0.2,0.1,0.2c0.6,2.6,1.2,5.2,1.8,7.8c0.1,0.3,0.1,0.6,0.2,0.9c0.5,2.5,1,5,1.5,7.5
					c0.1,0.4,0.2,0.9,0.2,1.3c0.4,2.4,0.8,4.7,1.2,7.1c0.1,0.4,0.1,0.9,0.2,1.3c0.4,2.4,0.7,4.8,1,7.2c0,0.2,0,0.4,0.1,0.7
					c0.3,2.4,0.5,4.7,0.7,7.1c0,0.3,0.1,0.5,0.1,0.8c0.2,2.4,0.3,4.7,0.5,7.1c0,0.5,0.1,1,0.1,1.5c0.1,1.2,0.1,2.3,0.1,3.5
					c0,0.5,0,1.1,0,1.6c0,1.7,0.1,3.4,0.1,5c0,2.1-0.1,4.2-0.1,6.2c0,0.6-0.1,1.3-0.1,1.9c-0.1,1.4-0.1,2.8-0.2,4.1
					c-0.1,0.7-0.1,1.4-0.2,2c-0.1,1.3-0.2,2.6-0.4,3.9c-0.1,0.6-0.1,1.2-0.2,1.8c-0.2,1.7-0.5,3.4-0.7,5c0,0.1,0,0.2-0.1,0.3
					c-0.3,1.7-0.6,3.5-1,5.1c-0.1,0.5-0.2,1-0.3,1.5c-0.3,1.2-0.5,2.3-0.8,3.5c-0.1,0.6-0.3,1.1-0.4,1.7c-0.3,1.1-0.6,2.2-1,3.3
					c-0.1,0.5-0.3,1-0.4,1.5c-0.5,1.5-1,2.9-1.5,4.4c0,0.1,0,0.1-0.1,0.2c-0.5,1.5-1.1,3-1.7,4.5c-0.2,0.5-0.4,0.9-0.6,1.4
					c-0.4,1-0.9,2.1-1.3,3.1c-0.2,0.5-0.5,1-0.7,1.5c-0.5,1-0.9,2-1.4,3c-0.2,0.4-0.4,0.9-0.7,1.3c-0.7,1.4-1.4,2.7-2.1,4.1
					c0,0,0,0.1-0.1,0.1c-0.8,1.4-1.6,2.8-2.4,4.2c-0.3,0.4-0.5,0.9-0.8,1.3c-0.6,1-1.2,2-1.7,2.9c-0.3,0.5-0.6,1-0.9,1.5
					c-0.6,1-1.2,2-1.8,3c-0.3,0.4-0.5,0.9-0.8,1.3c-0.9,1.4-1.8,2.8-2.7,4.2l37.6-21.8c0.9-1.4,1.8-2.8,2.7-4.2
					c0.3-0.4,0.5-0.9,0.8-1.3C726.1,513.9,726.7,513,727.3,512z"/>
			</g>
		</g>
	</g>
</g>
</svg>
