<svg xmlns="http://www.w3.org/2000/svg" width="28" height="28" viewBox="0 0 28 28">
  <g id="Group_9016" data-name="Group 9016" transform="translate(-236 -109)">
    <g id="Group_9008" data-name="Group 9008" transform="translate(0 65)">
      <circle id="Ellipse_1388" data-name="Ellipse 1388" cx="14" cy="14" r="14" transform="translate(236 44)" fill="#fff"/>
      <path id="Icon_map-bowling-alley" data-name="Icon map-bowling-alley" d="M13.646,10.476s-.628-1.57-1.237-3.07a6.538,6.538,0,0,1-.045-2.1,7.655,7.655,0,0,0,.192-2.692,1.507,1.507,0,0,0-1.14-.792,1.411,1.411,0,0,0-1.26,1.108,4.463,4.463,0,0,0,.113,1.283,6.96,6.96,0,0,1-.058,3.759,20.655,20.655,0,0,0-.982,2.336,9.361,9.361,0,0,0-.005,3.234,18.24,18.24,0,0,0,1.219,3.124,4.022,4.022,0,0,0,1.942-.024,10.257,10.257,0,0,0,1.29-3.314A8.607,8.607,0,0,0,13.646,10.476ZM17,9.371S16.367,7.8,15.755,6.3a6.547,6.547,0,0,1-.045-2.1A7.645,7.645,0,0,0,15.9,1.512,1.5,1.5,0,0,0,14.764.721,1.41,1.41,0,0,0,13.5,1.828a4.42,4.42,0,0,0,.115,1.283,6.946,6.946,0,0,1-.059,3.758s-.141.3-.317.68c.571,1.4,1.12,2.775,1.12,2.775l.009.024.006.023a8.854,8.854,0,0,1,.037,2.989,8.145,8.145,0,0,1-.661,2.135l.041.068a4,4,0,0,0,1.942-.025,10.243,10.243,0,0,0,1.29-3.312A8.615,8.615,0,0,0,17,9.371ZM9.516,7.833a2.483,2.483,0,0,0,.093-.248c-.163-.406-.341-.841-.517-1.275a6.481,6.481,0,0,1-.045-2.1A7.655,7.655,0,0,0,9.24,1.519,1.505,1.505,0,0,0,8.1.728a1.412,1.412,0,0,0-1.26,1.106,4.441,4.441,0,0,0,.115,1.284A6.95,6.95,0,0,1,6.9,6.877a20.735,20.735,0,0,0-.982,2.336,9.353,9.353,0,0,0-.005,3.234,18.193,18.193,0,0,0,1.219,3.122,3.988,3.988,0,0,0,1.942-.024l.056-.093q-.338-.9-.617-1.822a9.619,9.619,0,0,1,0-3.374A18,18,0,0,1,9.516,7.833Z" transform="translate(238.24 49.75)" fill="#751132"/>
    </g>
    <g id="Ellipse_1389" data-name="Ellipse 1389" transform="translate(237 110)" fill="none" stroke="#751132" stroke-width="1">
      <circle cx="13" cy="13" r="13" stroke="none"/>
      <circle cx="13" cy="13" r="12.5" fill="none"/>
    </g>
  </g>
</svg>
