<svg xmlns="http://www.w3.org/2000/svg" width="96.202" height="130" viewBox="0 0 96.202 130">
  <g id="Group_9001" data-name="Group 9001" transform="translate(-75.503 -185.087)">
    <g id="UFO" transform="translate(75.461 185.087)">
      <g id="Group_8547" data-name="Group 8547" transform="translate(0.111 0)">
        <g id="Group_8532" data-name="Group 8532" transform="translate(0.063 0)">
          <g id="Group_8523" data-name="Group 8523" transform="translate(0 19.53)">
            <path id="Path_2258" data-name="Path 2258" d="M118.2,232.3a1.923,1.923,0,0,0,1.7,2.087h90.384a1.924,1.924,0,0,0,1.7-2.087H118.2Z" transform="translate(-118.2 -230.2)" fill="#053654"/>
            <path id="Path_2259" data-name="Path 2259" d="M210.385,216.9H120a1.924,1.924,0,0,0-1.7,2.087h93.785A1.932,1.932,0,0,0,210.385,216.9Z" transform="translate(-118.289 -216.9)" fill="#0292b6"/>
          </g>
          <path id="Path_2260" data-name="Path 2260" d="M237.839,247.6c0,4.869-19.775,8.81-44.175,8.81S149.5,252.469,149.5,247.6Z" transform="translate(-146.021 -223.883)" fill="#50c4de"/>
          <path id="Path_2261" data-name="Path 2261" d="M239.327,247.6c-2.123,4.473-21,7.965-43.964,7.965s-41.84-3.491-43.964-7.965Z" transform="translate(-147.71 -223.883)" fill="#1d4a6a"/>
          <g id="Group_8524" data-name="Group 8524" transform="translate(32.925 27.386)">
            <ellipse id="Ellipse_1361" data-name="Ellipse 1361" cx="13.973" cy="3.082" rx="13.973" ry="3.082" fill="#053654"/>
            <rect id="Rectangle_17047" data-name="Rectangle 17047" width="3.146" height="3.082" transform="translate(0 3.082)" fill="#053654"/>
            <rect id="Rectangle_17048" data-name="Rectangle 17048" width="3.146" height="3.082" transform="translate(24.8 3.082)" fill="#053654"/>
          </g>
          <ellipse id="Ellipse_1362" data-name="Ellipse 1362" cx="13.973" cy="3.082" rx="13.973" ry="3.082" transform="translate(32.925 30.454)" fill="#acdbcb"/>
          <path id="Path_2262" data-name="Path 2262" d="M437.528,309.128c-7.292,0-11.65-1.173-12.828-1.964,1.189-.777,5.536-1.964,12.828-1.964s11.65,1.173,12.828,1.964C449.177,307.955,444.82,309.128,437.528,309.128Z" transform="translate(-390.63 -273.627)" fill="#fff"/>
          <g id="Group_8525" data-name="Group 8525" transform="translate(3.479 10.72)">
            <path id="Path_2263" data-name="Path 2263" d="M284.454,154.2a26.569,26.569,0,0,0-4.513,8.565H263.5c2.879-3.655,8.015-6.369,11.338-7.842.6-.068,1.212-.123,1.823-.177,2.279-.2,4.669-.382,7.136-.5Z" transform="translate(-250.828 -153.941)" fill="#3d97ab"/>
            <path id="Path_2264" data-name="Path 2264" d="M425.706,152.3v8.81H411.4a27.1,27.1,0,0,1,4.513-8.565c.222-.014.445-.027.667-.027,2.8-.123,5.7-.2,8.67-.218Z" transform="translate(-382.287 -152.3)" fill="#50c4de"/>
            <path id="Path_2265" data-name="Path 2265" d="M173.51,159.4c-3.313,1.473-8.448,4.187-11.338,7.842H149.5c0-3.273,8.982-6.137,22.3-7.651C172.366,159.523,172.932,159.468,173.51,159.4Z" transform="translate(-149.5 -158.432)" fill="#317483"/>
            <path id="Path_2266" data-name="Path 2266" d="M736.834,166.033H722.661c-3-3.819-8.47-6.6-11.761-8.033l1.69.164C726.974,159.623,736.834,162.6,736.834,166.033Z" transform="translate(-648.495 -157.223)" fill="#317483"/>
            <path id="Path_2267" data-name="Path 2267" d="M554.417,161.11H540.1V152.3h.756q4.268,0,8.326.164c.222.014.445.014.667.027A27.056,27.056,0,0,1,554.417,161.11Z" transform="translate(-496.681 -152.3)" fill="#50c4de"/>
            <path id="Path_2268" data-name="Path 2268" d="M648.709,162.233H632.28a26.842,26.842,0,0,0-4.58-8.633c.222.014.445.014.656.027,2.334.109,4.6.245,6.781.423.611.041,1.212.1,1.8.15C640.239,155.632,645.708,158.428,648.709,162.233Z" transform="translate(-574.543 -153.423)" fill="#3d97ab"/>
          </g>
          <g id="Group_8526" data-name="Group 8526" transform="translate(23.877)">
            <path id="Path_2269" data-name="Path 2269" d="M368,74.2a33.968,33.968,0,0,0-5.847-.5c-10.082,0-18.708,4.378-22.254,10.57,2.657-.314,7.192-.791,12.783-1.091A28.7,28.7,0,0,1,368,74.2Z" transform="translate(-339.133 -73.7)" fill="#abdcce"/>
            <path id="Path_2270" data-name="Path 2270" d="M333.767,144.291a13.749,13.749,0,0,0-.767,1.541c3.724-.477,7.826-.846,12.194-1.077.434-.532.889-1.05,1.356-1.555C340.959,143.5,336.424,143.964,333.767,144.291Z" transform="translate(-333 -133.721)" fill="#045582"/>
            <path id="Path_2271" data-name="Path 2271" d="M486.714,87.7c-2.8-5.033-8.937-8.879-16.485-10.2A28.775,28.775,0,0,0,454.9,86.474,156,156,0,0,1,486.714,87.7Z" transform="translate(-441.35 -76.982)" fill="#8fd1be"/>
            <path id="Path_2272" data-name="Path 2272" d="M444.056,141.408c-.467.5-.911,1.009-1.356,1.555,3.69-.2,7.57-.314,11.583-.314a197.252,197.252,0,0,1,22.187,1.187,13.089,13.089,0,0,0-.6-1.2A157.98,157.98,0,0,0,444.056,141.408Z" transform="translate(-430.506 -131.93)" fill="#04456a"/>
          </g>
          <g id="Group_8527" data-name="Group 8527" transform="translate(46.442 10.72)">
            <path id="Path_2273" data-name="Path 2273" d="M536.912,152.3v8.81H536V152.3h.912Z" transform="translate(-536 -152.3)" fill="#acdbcb"/>
          </g>
          <g id="Group_8528" data-name="Group 8528" transform="translate(55.969 10.883)">
            <path id="Path_2274" data-name="Path 2274" d="M627.425,162.147h-.978A26.629,26.629,0,0,0,621.7,153.5c.222.014.445.014.667.027s.445.014.656.027A27.128,27.128,0,0,1,627.425,162.147Z" transform="translate(-621.7 -153.5)" fill="#acdbcb"/>
          </g>
          <g id="Group_8529" data-name="Group 8529" transform="translate(64.084 11.347)">
            <path id="Path_2275" data-name="Path 2275" d="M708.884,165.083h-1.267c-3.6-4.255-10.36-7.174-12.917-8.183.612.041,1.212.1,1.8.15l1.69.164C701.625,158.85,706.283,161.537,708.884,165.083Z" transform="translate(-694.7 -156.9)" fill="#acdbcb"/>
          </g>
          <g id="Group_8530" data-name="Group 8530" transform="translate(32.103 10.952)">
            <path id="Path_2276" data-name="Path 2276" d="M412.669,154a26.875,26.875,0,0,0-4.7,8.592H407a26.872,26.872,0,0,1,4.346-8.524l.656-.041C412.224,154.014,412.447,154,412.669,154Z" transform="translate(-407 -154)" fill="#acdbcb"/>
          </g>
          <g id="Group_8531" data-name="Group 8531" transform="translate(15.54 11.511)">
            <path id="Path_2277" data-name="Path 2277" d="M271.773,158.1c-2.812,1.132-9.082,3.982-12.505,8.019H258c2.49-3.41,6.87-6.014,10.249-7.651.556-.068,1.134-.123,1.7-.191C270.55,158.223,271.15,158.168,271.773,158.1Z" transform="translate(-258 -158.1)" fill="#acdbcb"/>
          </g>
        </g>
        <g id="Group_8534" data-name="Group 8534" transform="translate(42.682 17.054)">
          <g id="Group_8533" data-name="Group 8533" transform="translate(0 0)">
            <path id="Path_2283" data-name="Path 2283" d="M3.347-.1A2.462,2.462,0,0,1,6.159,2.709a4.025,4.025,0,0,1-3.45,3.45A2.462,2.462,0,0,1-.1,3.347,4.025,4.025,0,0,1,3.347-.1Z" transform="translate(0 4.576) rotate(-45)" fill="#fff" opacity="0.22"/>
          </g>
          <ellipse id="Ellipse_1364" data-name="Ellipse 1364" cx="1.045" cy="1.282" rx="1.045" ry="1.282" transform="translate(3.235 3.294)" fill="#faaf81"/>
          <ellipse id="Ellipse_1365" data-name="Ellipse 1365" cx="0.545" cy="0.668" rx="0.545" ry="0.668" transform="translate(3.735 3.908)" fill="#f26322"/>
        </g>
        <g id="Group_8536" data-name="Group 8536" transform="translate(28.374 17.05)">
          <g id="Group_8535" data-name="Group 8535" transform="translate(0 0)">
            <path id="Path_2284" data-name="Path 2284" d="M3.347-.1A2.462,2.462,0,0,1,6.159,2.709a4.025,4.025,0,0,1-3.45,3.45A2.462,2.462,0,0,1-.1,3.347,4.025,4.025,0,0,1,3.347-.1Z" transform="translate(0 4.576) rotate(-45)" fill="#fff" opacity="0.22"/>
          </g>
          <ellipse id="Ellipse_1367" data-name="Ellipse 1367" cx="1.045" cy="1.282" rx="1.045" ry="1.282" transform="translate(3.236 3.298)" fill="#faaf81"/>
          <ellipse id="Ellipse_1368" data-name="Ellipse 1368" cx="0.545" cy="0.668" rx="0.545" ry="0.668" transform="translate(3.736 3.912)" fill="#f26322"/>
        </g>
        <g id="Group_8538" data-name="Group 8538" transform="translate(12.761 17.629)">
          <g id="Group_8537" data-name="Group 8537" transform="translate(0 0)">
            <path id="Path_2285" data-name="Path 2285" d="M3.514-.046C5.4-.12,6.875,1.092,6.8,2.661A3.521,3.521,0,0,1,3.246,5.638C1.356,5.712-.115,4.5-.041,2.93A3.521,3.521,0,0,1,3.514-.046Z" transform="translate(0 6.701) rotate(-77.566)" fill="#fff" opacity="0.22"/>
          </g>
          <path id="Path_2278" data-name="Path 2278" d="M254.1,224.182a1.067,1.067,0,1,1,1.045,1.282A1.18,1.18,0,0,1,254.1,224.182Z" transform="translate(-251.691 -220.181)" fill="#faaf81"/>
          <path id="Path_2279" data-name="Path 2279" d="M258.6,228.068a.556.556,0,1,1,.545.668A.617.617,0,0,1,258.6,228.068Z" transform="translate(-255.691 -224.067)" fill="#f26322"/>
        </g>
        <g id="Group_8540" data-name="Group 8540" transform="translate(0 17.557)">
          <g id="Group_8539" data-name="Group 8539" transform="translate(0 0)">
            <path id="Path_2286" data-name="Path 2286" d="M3.518-.053C5.4-.138,6.86,1.07,6.775,2.645A3.573,3.573,0,0,1,3.21,5.651c-1.884.085-3.342-1.123-3.257-2.7A3.573,3.573,0,0,1,3.518-.053Z" transform="matrix(0.249, -0.969, 0.969, 0.249, 0, 6.633)" fill="#fff" opacity="0.22"/>
          </g>
          <ellipse id="Ellipse_1371" data-name="Ellipse 1371" cx="1.045" cy="1.282" rx="1.045" ry="1.282" transform="translate(2.497 2.791)" fill="#faaf81"/>
          <ellipse id="Ellipse_1372" data-name="Ellipse 1372" cx="0.545" cy="0.668" rx="0.545" ry="0.668" transform="translate(2.998 3.405)" fill="#f26322"/>
        </g>
        <g id="Group_8542" data-name="Group 8542" transform="translate(57.785 17.588)">
          <g id="Group_8541" data-name="Group 8541" transform="translate(0 0)">
            <path id="Path_2287" data-name="Path 2287" d="M3.516-.049C5.4-.128,6.869,1.083,6.791,2.655A3.542,3.542,0,0,1,3.232,5.642c-1.887.078-3.353-1.132-3.275-2.7A3.542,3.542,0,0,1,3.516-.049Z" transform="translate(0 6.676) rotate(-76.774)" fill="#fff" opacity="0.22"/>
          </g>
          <ellipse id="Ellipse_1374" data-name="Ellipse 1374" cx="1.045" cy="1.282" rx="1.045" ry="1.282" transform="translate(2.449 2.76)" fill="#faaf81"/>
          <ellipse id="Ellipse_1375" data-name="Ellipse 1375" cx="0.545" cy="0.668" rx="0.545" ry="0.668" transform="translate(2.949 3.374)" fill="#f26322"/>
        </g>
        <g id="Group_8544" data-name="Group 8544" transform="translate(74.218 17.593)">
          <g id="Group_8543" data-name="Group 8543" transform="translate(0 0)">
            <path id="Path_2288" data-name="Path 2288" d="M3.516-.049C5.4-.128,6.869,1.083,6.791,2.655A3.542,3.542,0,0,1,3.232,5.642c-1.887.078-3.353-1.132-3.275-2.7A3.542,3.542,0,0,1,3.516-.049Z" transform="translate(0 6.676) rotate(-76.774)" fill="#fff" opacity="0.22"/>
          </g>
          <ellipse id="Ellipse_1377" data-name="Ellipse 1377" cx="1.045" cy="1.282" rx="1.045" ry="1.282" transform="translate(2.445 2.755)" fill="#faaf81"/>
          <ellipse id="Ellipse_1378" data-name="Ellipse 1378" cx="0.545" cy="0.668" rx="0.545" ry="0.668" transform="translate(2.945 3.369)" fill="#f26322"/>
        </g>
        <g id="Group_8546" data-name="Group 8546" transform="translate(87.401 17.055)">
          <g id="Group_8545" data-name="Group 8545" transform="translate(0 0)">
            <path id="Path_2289" data-name="Path 2289" d="M3.347-.1A2.462,2.462,0,0,1,6.159,2.709a4.025,4.025,0,0,1-3.45,3.45A2.462,2.462,0,0,1-.1,3.347,4.025,4.025,0,0,1,3.347-.1Z" transform="translate(0 4.576) rotate(-45)" fill="#fff" opacity="0.22"/>
          </g>
          <ellipse id="Ellipse_1380" data-name="Ellipse 1380" cx="1.045" cy="1.282" rx="1.045" ry="1.282" transform="translate(3.235 3.293)" fill="#faaf81"/>
          <ellipse id="Ellipse_1381" data-name="Ellipse 1381" cx="0.545" cy="0.668" rx="0.545" ry="0.668" transform="translate(3.735 3.907)" fill="#f26322"/>
        </g>
      </g>
      <path id="Path_2280" data-name="Path 2280" d="M443.562,416.063h-6.7L427.6,319.6h25.222Z" transform="translate(-393.034 -286.064)" fill="#fff" opacity="0.36"/>
      <path id="Path_2281" data-name="Path 2281" d="M224.651,416.063H134.2L166.814,319.6h25.222Z" transform="translate(-132.248 -286.064)" fill="#751132" opacity="0.22"/>
      <path id="Path_2282" data-name="Path 2282" d="M351.335,416.063H297.1L311.606,319.6h25.222Z" transform="translate(-277.04 -286.064)" fill="#fff" opacity="0.15"/>
    </g>
    <g id="Astro" transform="translate(-137.989 145.35)">
      <g id="Group_8668" data-name="Group 8668" transform="translate(232.921 79.554)">
        <g id="Group_8548" data-name="Group 8548" transform="translate(10.678 31.346)">
          <path id="Path_2290" data-name="Path 2290" d="M369.236,431.853H355.409A12.209,12.209,0,0,1,343.2,419.644v-4.134A12.209,12.209,0,0,1,355.409,403.3h13.826a12.209,12.209,0,0,1,12.209,12.209v4.134A12.209,12.209,0,0,1,369.236,431.853Z" transform="translate(-343.2 -403.3)" fill="#fff"/>
        </g>
        <g id="Group_8549" data-name="Group 8549" transform="translate(10.097 30.756)">
          <path id="Path_2291" data-name="Path 2291" d="M372.724,426.925H341.083a3.888,3.888,0,0,1-3.883-3.883V401.083a3.888,3.888,0,0,1,3.883-3.883h31.642a3.888,3.888,0,0,1,3.883,3.883v21.959A3.888,3.888,0,0,1,372.724,426.925Zm-31.642-28.563a2.733,2.733,0,0,0-2.73,2.73v21.959a2.733,2.733,0,0,0,2.73,2.73h31.642a2.733,2.733,0,0,0,2.73-2.73V401.083a2.733,2.733,0,0,0-2.73-2.73H341.083Z" transform="translate(-337.2 -397.2)" fill="#371a45"/>
        </g>
        <g id="Group_8550" data-name="Group 8550" transform="translate(9.324 34.3)">
          <path id="Path_2292" data-name="Path 2292" d="M375.01,458.49s-4.773,5.074-10.263,1.656c.068.145,4.251,9.256,5.49,14.281,0,0,5.49,4.038,3.108,7.872s-10.147.107-13.149-3.524-2.488-5.383-10.457-10.66a12.14,12.14,0,0,0-1.607-.8c-.136-.058-.281-.116-.426-.165-1.82-.658-4.231-.91-4.483,2.217l1.762,4.967s2.8,3-1.036,7.039-5.49,6-9.527,4.347c-1.946-.8-2.353-2.634-2.256-4.318a11.6,11.6,0,0,1,.775-3.369c.019-.048.029-.077.029-.077s-4.038-6.11-3.728-11.29a10.653,10.653,0,0,1,.281-1.811c1.075-4.589,4.793-8.956,4.793-8.956l-.455-7.562v-9.111s3.563-4.386,13.642-5.277c.533-.048,1.084-.087,1.656-.107a33.865,33.865,0,0,1,16.508,3.65c4.231,2.275,7.552,5.684,8.3,10.438,0,0,.039.048.116.136C374.836,448.991,378.893,454.346,375.01,458.49Z" transform="translate(-329.225 -433.811)" fill="#fff"/>
        </g>
        <g id="Group_8551" data-name="Group 8551" transform="translate(12.252 54.852)" opacity="0.2">
          <path id="Path_2293" data-name="Path 2293" d="M374.814,657.236s.087.252.242.678l-.039.93c-1.82-.658-4.231-.91-4.483,2.217l1.762,4.967s2.8,3-1.036,7.039-5.49,6-9.527,4.347c-1.946-.8-2.353-2.634-2.256-4.318l.7-1.268a3.2,3.2,0,0,0,3.311,2.7c2.943,0,6.9-4.764,6.371-6.216s-.2-4.725-5.441-3.4c0,0,3.854-.145.939-6.235-1.055-2.208-4.221-2.459-3.176-8.888s13.342-2.576,13.342-2.576l-.426,9.924Z" transform="translate(-359.464 -646.07)" fill="#371a45"/>
        </g>
        <g id="Group_8552" data-name="Group 8552" transform="translate(27.602 34.329)" opacity="0.2">
          <path id="Path_2294" data-name="Path 2294" d="M543.842,482.579c-2.382,3.834-10.147.107-13.149-3.524s-2.488-5.383-10.457-10.66a12.14,12.14,0,0,0-1.607-.8c-.155-.436-.29-.813-.387-1.1l.029-.775,14.175-4.706s.252,4-1.723,6.5a2.648,2.648,0,0,0-.155,3.118,23.1,23.1,0,0,1,2.953,5.6c.62,2.537,4.88,5.335,7.2,4.609s-.639-5.383-.639-5.383l-8.84-22.318H518V434.245c.533-.048,1.084-.087,1.656-.107a33.865,33.865,0,0,1,16.508,3.65,4.6,4.6,0,0,0-2.1,3.854s1.617,6.013,7.155,6.884l-1.481,2.653-2.208-.261s1.288-2.2-1.53-4.638c.174.232.358.465.562.707,0,0-2.488,2.188-.9,4.822,0,0-.436,6.429,1.869,6.9a1.283,1.283,0,0,0,.426.019l.165,2.808a7.767,7.767,0,0,1-2.866-1.094c.068.145,4.25,9.256,5.49,14.281C540.734,474.707,546.224,478.745,543.842,482.579Z" transform="translate(-518 -434.111)" fill="#371a45"/>
        </g>
        <g id="Group_8553" data-name="Group 8553" transform="translate(27.602 65.931)" opacity="0.2">
          <path id="Path_2295" data-name="Path 2295" d="M518.271,760.5l-.029.775c-.155-.426-.242-.678-.242-.678Z" transform="translate(-518 -760.5)" fill="#2e2771"/>
        </g>
        <g id="Group_8554" data-name="Group 8554" transform="translate(47.548 48.484)" opacity="0.2">
          <path id="Path_2296" data-name="Path 2296" d="M731.562,590.8s-3.127,3.331-7.242,2.779c-.048-.01-.106-.01-.155-.019L724,590.747c1.772-.232,1.055-4.87,1.055-4.87a.939.939,0,0,0,.136.126c.349.271,1.4.852,3.515.31,2.672-.687.8-6.013.8-6.013s.465.029,1.113.077C731.388,581.3,735.444,586.652,731.562,590.8Z" transform="translate(-724 -580.3)" fill="#2e2771"/>
        </g>
        <g id="Group_8555" data-name="Group 8555" transform="translate(42.561 43.701)">
          <path id="Path_2297" data-name="Path 2297" d="M672.5,539.711l.165-8.579a.238.238,0,0,1,.242-.232.234.234,0,0,1,.232.223l.523,8.559a.581.581,0,1,1-1.162.029Z" transform="translate(-672.5 -530.9)" fill="#371a45"/>
        </g>
        <g id="Group_8556" data-name="Group 8556" transform="translate(8.743 33.739)">
          <path id="Path_2298" data-name="Path 2298" d="M331.563,481.645a7.491,7.491,0,0,1-2.788-.629,3.962,3.962,0,0,1-2.237-2.2c-.91-2.217.019-5.112.358-6.032-.775-1.239-3.941-6.623-3.66-11.386.29-4.841,4.221-9.9,5.064-10.922l-.445-7.329V434a.576.576,0,0,1,.126-.358c.165-.2,4.251-5.073,15.724-5.6a35.292,35.292,0,0,1,15.327,2.982c4.018,1.849,9.014,5.325,10.041,11.425a13.417,13.417,0,0,1,2.111,3.612c1.123,2.934.707,5.548-1.191,7.591h0a10.876,10.876,0,0,1-3.253,2.237,7.921,7.921,0,0,1-6.235.261,99.691,99.691,0,0,1,4.812,12.723,13.286,13.286,0,0,1,2.4,2.5c1.549,2.149,1.791,4.231.678,6.013a4.059,4.059,0,0,1-3.35,1.869c-3.573.242-8.433-2.556-10.728-5.325a30.57,30.57,0,0,1-1.946-2.692c-1.433-2.188-2.672-4.076-8.385-7.852-.862-.533-3.36-1.772-4.677-1.1a2.051,2.051,0,0,0-.949,1.791l1.685,4.754c.474.61,2.624,3.776-1.123,7.727l-.4.416C335.862,479.776,334.09,481.645,331.563,481.645ZM329.007,443.1l.455,7.543a.576.576,0,0,1-.136.407c-.048.058-4.638,5.509-4.938,10.428s3.592,10.873,3.631,10.931a.571.571,0,0,1,.048.542c-.01.029-1.356,3.273-.465,5.432a2.788,2.788,0,0,0,1.607,1.568c3.534,1.452,4.986-.087,8.491-3.786l.4-.426c3.389-3.573,1.123-6.148,1.026-6.255a.574.574,0,0,1-.116-.194l-1.762-4.967a.508.508,0,0,1-.029-.242,3.207,3.207,0,0,1,1.588-2.847c2.14-1.075,5.441.93,5.809,1.162l.01.01c5.906,3.912,7.271,5.993,8.714,8.182a26.225,26.225,0,0,0,1.869,2.595c2.072,2.5,6.584,5.132,9.76,4.919a2.943,2.943,0,0,0,2.459-1.326c2.072-3.331-2.9-7.068-2.963-7.1a.549.549,0,0,1-.213-.329c-1.162-4.744-5.006-13.216-5.441-14.165l-.01-.019a.564.564,0,0,1,.145-.668.583.583,0,0,1,.687-.058c5.015,3.118,9.469-1.5,9.537-1.559,3.854-4.125-1.007-9.731-1.055-9.789a.62.62,0,0,1-.136-.29c-.891-5.693-5.616-8.975-9.411-10.718a33.931,33.931,0,0,0-14.795-2.876c-9.828.445-13.991,4.251-14.746,5.035V443.1Zm40.579,10.157Z" transform="translate(-323.219 -428.016)" fill="#371a45"/>
        </g>
        <g id="Group_8569" data-name="Group 8569" transform="translate(3.77 0)">
          <g id="Group_8557" data-name="Group 8557" transform="translate(44.503 15.094)">
            <path id="Path_2299" data-name="Path 2299" d="M733.516,250.061h0a.423.423,0,0,1-.436-.416L732.6,237.01a.433.433,0,0,1,.407-.455h0a4.479,4.479,0,0,1,4.609,4.4l.165,4.309A4.57,4.57,0,0,1,733.516,250.061Z" transform="translate(-732.49 -236.443)" fill="#fff"/>
            <path id="Path_2300" data-name="Path 2300" d="M732.5,249.16a.525.525,0,0,1-.349-.136.553.553,0,0,1-.174-.378l-.484-12.635a.532.532,0,0,1,.5-.562,4.362,4.362,0,0,1,3.2,1.172,4.71,4.71,0,0,1,1.52,3.321l.165,4.309a4.676,4.676,0,0,1-4.357,4.909H732.5Zm-.29-13.517h-.194a.337.337,0,0,0-.31.358l.484,12.635a.33.33,0,0,0,.107.242.323.323,0,0,0,.223.087h0a4.468,4.468,0,0,0,4.163-4.706l-.165-4.309a4.526,4.526,0,0,0-1.452-3.185A4.215,4.215,0,0,0,732.214,235.644Z" transform="translate(-731.497 -235.445)" fill="#371a45"/>
          </g>
          <g id="Group_8558" data-name="Group 8558" transform="translate(44.968 21.887)" opacity="0.25">
            <path id="Path_2301" data-name="Path 2301" d="M741.044,305.6l.077,2.024a4.579,4.579,0,0,1-4.26,4.812.423.423,0,0,1-.436-.416l-.126-3.36a.4.4,0,0,0,.4.242l.29-.01A4.533,4.533,0,0,0,741.044,305.6Z" transform="translate(-736.3 -305.6)" fill="#371a45"/>
          </g>
          <g id="Group_8559" data-name="Group 8559" transform="translate(44.048 14.649)">
            <path id="Path_2302" data-name="Path 2302" d="M728.256,245.474a.982.982,0,0,1-.658-.252,1,1,0,0,1-.32-.7l-.484-12.635a1,1,0,0,1,.939-1.036,4.815,4.815,0,0,1,3.524,1.3,5.2,5.2,0,0,1,1.665,3.641l.165,4.309a5.131,5.131,0,0,1-4.793,5.383h0A.058.058,0,0,0,728.256,245.474Zm-.339-13.526.474,12.4a4.025,4.025,0,0,0,3.592-4.221l-.165-4.309a4.038,4.038,0,0,0-1.307-2.866A3.741,3.741,0,0,0,727.917,231.948Z" transform="translate(-726.793 -230.849)" fill="#371a45"/>
          </g>
          <g id="Group_8560" data-name="Group 8560" transform="translate(0.455 16.947)">
            <path id="Path_2303" data-name="Path 2303" d="M281.927,255.6h0a.423.423,0,0,1,.436.416l.484,12.635a.433.433,0,0,1-.407.455h0a4.479,4.479,0,0,1-4.609-4.4l-.165-4.309A4.57,4.57,0,0,1,281.927,255.6Z" transform="translate(-277.557 -255.499)" fill="#fff"/>
            <path id="Path_2304" data-name="Path 2304" d="M281.244,268.308a4.4,4.4,0,0,1-2.992-1.181,4.71,4.71,0,0,1-1.52-3.321l-.165-4.309a4.676,4.676,0,0,1,4.357-4.909h0a.474.474,0,0,1,.368.136.553.553,0,0,1,.174.378l.484,12.635a.532.532,0,0,1-.5.562A1.431,1.431,0,0,1,281.244,268.308Zm-.31-13.516h0a4.468,4.468,0,0,0-4.163,4.706l.165,4.309a4.526,4.526,0,0,0,1.452,3.185,4.213,4.213,0,0,0,3.05,1.123.337.337,0,0,0,.31-.358l-.484-12.635a.33.33,0,0,0-.107-.242A.246.246,0,0,0,280.935,254.792Z" transform="translate(-276.564 -254.587)" fill="#371a45"/>
          </g>
          <g id="Group_8561" data-name="Group 8561" transform="translate(0.662 24.346)" opacity="0.25">
            <path id="Path_2305" data-name="Path 2305" d="M283.648,333.256l.136,3.505a.433.433,0,0,1-.407.455,4.316,4.316,0,0,1-3.311-1.326,4.654,4.654,0,0,1-1.3-3.069L278.7,331a4.385,4.385,0,0,0,4.144,2.517l.445-.019A.417.417,0,0,0,283.648,333.256Z" transform="translate(-278.7 -331)" fill="#371a45"/>
          </g>
          <g id="Group_8562" data-name="Group 8562" transform="translate(0 16.493)">
            <path id="Path_2306" data-name="Path 2306" d="M277,264.523a4.861,4.861,0,0,1-3.3-1.3,5.2,5.2,0,0,1-1.665-3.641l-.165-4.309a5.131,5.131,0,0,1,4.793-5.383h0a.971.971,0,0,1,.7.252,1,1,0,0,1,.32.7l.484,12.635a1,1,0,0,1-.939,1.036A1.715,1.715,0,0,1,277,264.523Zm-.426-13.507a4.024,4.024,0,0,0-3.592,4.221l.165,4.309a4.039,4.039,0,0,0,1.307,2.866,3.813,3.813,0,0,0,2.595,1.007Zm.136-.01Z" transform="translate(-271.861 -249.892)" fill="#371a45"/>
          </g>
          <g id="Group_8563" data-name="Group 8563" transform="translate(3.046)">
            <ellipse id="Ellipse_1382" data-name="Ellipse 1382" cx="21.563" cy="20.759" rx="21.563" ry="20.759" transform="matrix(0.066, -0.998, 0.998, 0.066, 0, 43.03)" fill="#fff"/>
            <path id="Path_2307" data-name="Path 2307" d="M337.155,135.445c-.184,0-.378,0-.562-.01a20.27,20.27,0,0,1-14.281-6.458,21.8,21.8,0,0,1-5.916-15.772c.368-11.938,10.012-21.4,21.514-21.078a20.271,20.271,0,0,1,14.281,6.458,21.8,21.8,0,0,1,5.916,15.772C357.749,126.1,348.406,135.445,337.155,135.445Zm.194-43.125c-11.144,0-20.4,9.256-20.749,20.885a21.625,21.625,0,0,0,5.858,15.627,20.108,20.108,0,0,0,14.146,6.39c11.386.31,20.953-9.053,21.311-20.885h0a21.625,21.625,0,0,0-5.858-15.627,20.108,20.108,0,0,0-14.146-6.39C337.717,92.33,337.533,92.32,337.349,92.32Z" transform="translate(-315.12 -90.902)" fill="#371a45"/>
          </g>
          <g id="Group_8564" data-name="Group 8564" transform="translate(4.409 20.463)" opacity="0.35">
            <path id="Path_2308" data-name="Path 2308" d="M358.815,290.9a21.854,21.854,0,0,1,.107,2.992c-.368,11.9-9.953,21.291-21.417,20.982s-20.459-10.225-20.1-22.124c.01-.339.029-.687.058-1.026,1.084,10.534,9.508,18.851,19.994,19.142C348.59,311.165,357.943,302.315,358.815,290.9Z" transform="translate(-317.393 -290.9)" fill="#371a45"/>
          </g>
          <g id="Group_8565" data-name="Group 8565" transform="translate(3.856 0.771)">
            <path id="Path_2309" data-name="Path 2309" d="M332.912,131.743c-.194,0-.387,0-.571-.01a20.788,20.788,0,0,1-14.6-6.594,22.29,22.29,0,0,1-6.042-16.1c.368-12.19,10.234-21.843,21.979-21.514a20.788,20.788,0,0,1,14.6,6.594,22.29,22.29,0,0,1,6.042,16.1C353.962,122.206,344.405,131.743,332.912,131.743Zm.194-43.115c-10.9,0-19.946,9.053-20.294,20.449a21.173,21.173,0,0,0,5.732,15.3,19.677,19.677,0,0,0,13.826,6.245c11.135.31,20.488-8.859,20.836-20.439l.552.019-.552-.019a21.172,21.172,0,0,0-5.732-15.3,19.677,19.677,0,0,0-13.826-6.245C333.464,88.627,333.29,88.627,333.106,88.627Z" transform="translate(-311.687 -87.516)" fill="#371a45"/>
          </g>
          <g id="Group_8566" data-name="Group 8566" transform="translate(4.572 7.96)">
            <path id="Path_2310" data-name="Path 2310" d="M360.358,177.816a19.889,19.889,0,0,1-3.757,11.328c-1.733,2.411-8.753,6.574-17.331,6.555-7.959-.019-15.133-4.512-16.789-6.962a19.815,19.815,0,0,1-3.4-11.415c.174-11.164,9.489-15.685,20.885-15.55S360.532,166.652,360.358,177.816Z" transform="translate(-319.08 -161.77)" fill="#371a45"/>
          </g>
          <g id="Group_8567" data-name="Group 8567" transform="translate(16.27 13.54)" opacity="0.35">
            <path id="Path_2311" data-name="Path 2311" d="M465.636,219.4a13.993,13.993,0,0,1,3.844,10.467,19.944,19.944,0,0,1-3.757,11.338c-1.733,2.411-8.753,6.574-17.331,6.555a24.985,24.985,0,0,1-8.491-1.607c10.554-.2,19.1-5.325,21.253-8.317a25.315,25.315,0,0,0,4.764-14.388A22.587,22.587,0,0,0,465.636,219.4Z" transform="translate(-439.9 -219.4)" fill="#111a28"/>
          </g>
          <g id="Group_8568" data-name="Group 8568" transform="translate(5.734 5.163)">
            <path id="Path_2312" data-name="Path 2312" d="M369.58,142.461a.6.6,0,0,1-.368-.136l-.01-.01-.048-.048-.039-.058c-3.408-5.122-10.108-8.123-18.387-8.22-8.317-.1-15.114,2.827-18.629,8.046l-.029.039a.564.564,0,0,1-.784.077.549.549,0,0,1-.1-.755c3.737-5.519,10.864-8.627,19.558-8.52,8.637.107,15.676,3.273,19.287,8.7a.554.554,0,0,1-.039.687A.53.53,0,0,1,369.58,142.461Z" transform="translate(-331.081 -132.873)" fill="#371a45"/>
          </g>
        </g>
        <g id="Group_8570" data-name="Group 8570" transform="translate(36.733 69.04)">
          <path id="Path_2313" data-name="Path 2313" d="M612.871,799.187a.566.566,0,0,1-.571-.571.574.574,0,0,1,.571-.581,13.682,13.682,0,0,0,10.835-5.18.572.572,0,0,1,.949.639,14.6,14.6,0,0,1-11.783,5.693Z" transform="translate(-612.3 -792.603)" fill="#371a45"/>
        </g>
        <g id="Group_8571" data-name="Group 8571" transform="translate(45.074 74.155)">
          <path id="Path_2314" data-name="Path 2314" d="M704.1,846.457a6.376,6.376,0,0,1-2.972,2.392c-.174.068-.378.136-.552.2-.116.029-.445.126-.562.155a10.348,10.348,0,0,1-1.336.2A.208.208,0,0,1,698.6,849a8.39,8.39,0,0,0,1.075-.291c.087-.029.252-.087.339-.126l.329-.135.319-.165a5.867,5.867,0,0,0,2.091-1.8,4.417,4.417,0,0,0,.319-.542.6.6,0,1,1,1.114.368c-.01.01-.087.145-.087.145Z" transform="translate(-698.447 -845.434)" fill="#371a45"/>
        </g>
        <g id="Group_8572" data-name="Group 8572" transform="translate(12.446 76.92)">
          <path id="Path_2315" data-name="Path 2315" d="M362.374,875.024a5.826,5.826,0,0,0,4.725.581,6.97,6.97,0,0,0,2.614-1.569.184.184,0,0,1,.261.01.17.17,0,0,1,0,.242,8.3,8.3,0,0,1-1.656,1.414,5.957,5.957,0,0,1-.988.513,6.772,6.772,0,0,1-4.986.029,4.445,4.445,0,0,1-.581-.261.57.57,0,1,1,.61-.958Z" transform="translate(-361.46 -873.987)" fill="#371a45"/>
        </g>
        <g id="Group_8573" data-name="Group 8573" transform="translate(10.224 69.278)">
          <path id="Path_2316" data-name="Path 2316" d="M341.563,800.822a7.426,7.426,0,0,1-2.7-.436.576.576,0,0,1-.3-.755.585.585,0,0,1,.755-.31,7.4,7.4,0,0,0,3.36.271c1.936-.232,4.986-1.172,8.559-4.376a.576.576,0,1,1,.775.852C347.633,799.989,343.915,800.822,341.563,800.822Z" transform="translate(-338.514 -795.068)" fill="#371a45"/>
        </g>
        <g id="Group_8583" data-name="Group 8583" transform="translate(12.382 44.069)">
          <g id="Group_8574" data-name="Group 8574" transform="translate(0.581 5.548)">
            <path id="Path_2317" data-name="Path 2317" d="M396.254,595.621H368.611a1.814,1.814,0,0,1-1.811-1.811h0A1.814,1.814,0,0,1,368.611,592h27.643a1.814,1.814,0,0,1,1.811,1.811h0A1.808,1.808,0,0,1,396.254,595.621Z" transform="translate(-366.8 -592)" fill="#fff"/>
          </g>
          <g id="Group_8575" data-name="Group 8575" transform="translate(0 4.957)">
            <path id="Path_2318" data-name="Path 2318" d="M390.835,590.683H363.191a2.392,2.392,0,1,1,0-4.783h27.643a2.392,2.392,0,1,1,0,4.783Zm-27.643-3.621a1.239,1.239,0,0,0,0,2.479h27.643a1.239,1.239,0,1,0,0-2.479Z" transform="translate(-360.8 -585.9)" fill="#371a45"/>
          </g>
          <g id="Group_8576" data-name="Group 8576" transform="translate(5.761 0.571)">
            <path id="Path_2319" data-name="Path 2319" d="M441.049,544.047v7.513a1.236,1.236,0,0,1-1.239,1.239H421.539a1.236,1.236,0,0,1-1.239-1.239v-7.513a1.22,1.22,0,0,1,.077-.416l.794-2.208a1.244,1.244,0,0,1,1.172-.823h16.683a1.253,1.253,0,0,1,1.172.823l.794,2.208A1.877,1.877,0,0,1,441.049,544.047Z" transform="translate(-420.3 -540.6)" fill="#fff"/>
          </g>
          <g id="Group_8577" data-name="Group 8577" transform="translate(5.19 3.447)">
            <path id="Path_2320" data-name="Path 2320" d="M435.72,571.442H414.971a.571.571,0,1,1,0-1.142H435.72a.571.571,0,1,1,0,1.142Z" transform="translate(-414.4 -570.3)" fill="#371a45"/>
          </g>
          <g id="Group_8578" data-name="Group 8578" transform="translate(5.18)">
            <path id="Path_2321" data-name="Path 2321" d="M434.381,548.052H416.12a1.818,1.818,0,0,1-1.82-1.82v-7.513a1.837,1.837,0,0,1,.107-.61l.794-2.208a1.831,1.831,0,0,1,1.714-1.2H433.6a1.831,1.831,0,0,1,1.714,1.2l.794,2.208a1.881,1.881,0,0,1,.107.61v7.513A1.839,1.839,0,0,1,434.381,548.052Zm-17.467-12.209a.666.666,0,0,0-.629.445l-.794,2.208a.568.568,0,0,0-.039.223v7.513a.669.669,0,0,0,.668.668h18.261a.669.669,0,0,0,.668-.668v-7.513a.568.568,0,0,0-.039-.223l-.794-2.208a.68.68,0,0,0-.629-.445Z" transform="translate(-414.3 -534.7)" fill="#371a45"/>
          </g>
          <g id="Group_8579" data-name="Group 8579" transform="translate(19.539 5.867)">
            <ellipse id="Ellipse_1383" data-name="Ellipse 1383" cx="2.721" cy="2.634" rx="2.721" ry="2.634" fill="#68a5d9"/>
          </g>
          <g id="Group_8580" data-name="Group 8580" transform="translate(19.113 5.451)">
            <path id="Path_2322" data-name="Path 2322" d="M561.347,597.119a3.061,3.061,0,1,1,3.147-3.06A3.11,3.11,0,0,1,561.347,597.119Zm0-5.267a2.2,2.2,0,1,0,2.285,2.2A2.247,2.247,0,0,0,561.347,591.852Z" transform="translate(-558.2 -591)" fill="#371a45"/>
          </g>
          <g id="Group_8581" data-name="Group 8581" transform="translate(19.723 7.039)">
            <path id="Path_2323" data-name="Path 2323" d="M567.037,611.854a2.246,2.246,0,1,1,2.537-2.227A2.4,2.4,0,0,1,567.037,611.854Zm0-3.747a1.535,1.535,0,1,0,1.811,1.51A1.684,1.684,0,0,0,567.037,608.107Z" transform="translate(-564.5 -607.4)" fill="#371a45"/>
          </g>
          <g id="Group_8582" data-name="Group 8582" transform="translate(5.761 0.581)" opacity="0.2">
            <path id="Path_2324" data-name="Path 2324" d="M434.078,548.62a2.681,2.681,0,0,0,2.721,2.634,2.794,2.794,0,0,0,1.491-.426V552.9h-16.75a1.236,1.236,0,0,1-1.239-1.239v-7.513a1.221,1.221,0,0,1,.077-.416l.794-2.208a1.244,1.244,0,0,1,1.172-.823h1.936l14,3.437v2.285a2.769,2.769,0,0,0-1.491-.426A2.658,2.658,0,0,0,434.078,548.62Z" transform="translate(-420.3 -540.7)" fill="#371a45"/>
          </g>
        </g>
        <g id="Group_8587" data-name="Group 8587" transform="translate(4.169 33.813)">
          <g id="Group_8584" data-name="Group 8584" transform="translate(0.574 0.577)">
            <path id="Path_2325" data-name="Path 2325" d="M282.078,435.484l-.155,1.172a.861.861,0,0,0,.775.968l29.028,2.788a.857.857,0,0,0,.939-.765v-.029a.87.87,0,0,0-.736-.949l-28.873-3.931A.872.872,0,0,0,282.078,435.484Z" transform="translate(-281.915 -434.731)" fill="#db9a78"/>
          </g>
          <g id="Group_8585" data-name="Group 8585" transform="translate(0.68 0.594)" opacity="0.6">
            <path id="Path_2326" data-name="Path 2326" d="M313.645,439.778v.029a.92.92,0,0,1-.281.552.868.868,0,0,0-.707-.61l-28.882-3.931a.858.858,0,0,0-.775.3l.058-.465a.855.855,0,0,1,.968-.736l28.873,3.931A.846.846,0,0,1,313.645,439.778Z" transform="translate(-283 -434.909)" fill="#fff"/>
          </g>
          <g id="Group_8586" data-name="Group 8586">
            <path id="Path_2327" data-name="Path 2327" d="M306.444,435.613a.64.64,0,0,1-.136-.01l-29.028-2.789a1.432,1.432,0,0,1-1.288-1.617l.155-1.172h0a1.433,1.433,0,0,1,1.617-1.239l28.873,3.931a1.428,1.428,0,0,1,1.23,1.578v.029A1.443,1.443,0,0,1,306.444,435.613Zm-29.153-5.432-.155,1.172a.28.28,0,0,0,.058.213.263.263,0,0,0,.194.107l29.028,2.789a.282.282,0,0,0,.31-.252v-.029a.275.275,0,0,0-.242-.31l-28.873-3.931a.311.311,0,0,0-.213.058.248.248,0,0,0-.107.184Z" transform="translate(-275.982 -428.775)" fill="#371a45"/>
          </g>
        </g>
        <g id="Group_8653" data-name="Group 8653" transform="translate(1.245 35.581)">
          <g id="Group_8588" data-name="Group 8588" transform="translate(20.344 30.04)">
            <ellipse id="Ellipse_1384" data-name="Ellipse 1384" cx="7.087" cy="2.769" rx="7.087" ry="2.769" fill="#ef4343"/>
          </g>
          <g id="Group_8589" data-name="Group 8589" transform="translate(20.344 30.931)" opacity="0.2">
            <path id="Path_2328" data-name="Path 2328" d="M469.93,768.95c-.678,1.259-3.524,2.2-6.942,2.2-3.921,0-7.087-1.239-7.087-2.769,0-.726.716-1.385,1.878-1.878a1.234,1.234,0,0,0-.155.571c0,1.53,3.176,2.769,7.087,2.769A13.859,13.859,0,0,0,469.93,768.95Z" transform="translate(-455.9 -766.5)" fill="#371a45"/>
          </g>
          <g id="Group_8590" data-name="Group 8590" transform="translate(19.763 29.469)">
            <path id="Path_2329" data-name="Path 2329" d="M457.568,758.081c-3.718,0-7.668-1.172-7.668-3.34s3.95-3.34,7.668-3.34,7.668,1.172,7.668,3.34S461.286,758.081,457.568,758.081Zm0-5.538c-4.038,0-6.516,1.278-6.516,2.2s2.479,2.2,6.516,2.2,6.516-1.278,6.516-2.2S461.606,752.542,457.568,752.542Z" transform="translate(-449.9 -751.4)" fill="#371a45"/>
          </g>
          <g id="Group_8591" data-name="Group 8591" transform="translate(13.731 18.48)">
            <path id="Path_2330" data-name="Path 2330" d="M415.388,641.434v.039a9.491,9.491,0,0,1-.707,3.582c-1.84,4.5-7.049,7.746-13.187,7.746s-11.348-3.244-13.187-7.746a9.342,9.342,0,0,1-.707-3.582v-.039c.029-1.956,6.235-3.534,13.9-3.534C409.143,637.9,415.359,639.488,415.388,641.434Z" transform="translate(-387.6 -637.9)" fill="#ef4343"/>
          </g>
          <g id="Group_8592" data-name="Group 8592" transform="translate(13.722 19.806)" opacity="0.2">
            <path id="Path_2331" data-name="Path 2331" d="M413.371,659.607a14.723,14.723,0,0,1-11.977,5.577c-6.139,0-11.348-3.244-13.187-7.746a9.343,9.343,0,0,1-.707-3.582v-.039c.01-.842,1.162-1.607,3.079-2.217a9.572,9.572,0,0,0,.687,2.9c1.84,4.5,7.049,7.746,13.187,7.746A15.863,15.863,0,0,0,413.371,659.607Z" transform="translate(-387.5 -651.6)" fill="#371a45"/>
          </g>
          <g id="Group_8593" data-name="Group 8593" transform="translate(13.141 17.909)">
            <path id="Path_2332" data-name="Path 2332" d="M395.975,640.24c-7.184,0-14.456-1.414-14.475-4.115v-.019c.039-2.7,7.31-4.105,14.475-4.105s14.436,1.414,14.475,4.105v.029C410.431,638.826,403.159,640.24,395.975,640.24Zm0-7.087a40.946,40.946,0,0,0-9.673,1.017c-2.876.726-3.65,1.569-3.65,1.946v.01c0,.378.775,1.21,3.641,1.946a46.614,46.614,0,0,0,19.365,0c2.876-.736,3.641-1.569,3.641-1.946v-.01c-.01-.378-.784-1.22-3.65-1.946A40.946,40.946,0,0,0,395.975,633.152Z" transform="translate(-381.5 -632)" fill="#371a45"/>
          </g>
          <g id="Group_8594" data-name="Group 8594" transform="translate(20.954 18.083)">
            <path id="Path_2333" data-name="Path 2333" d="M468.861,641.865c-.765,0-1.53-.019-2.266-.048a.554.554,0,0,1-.126-.01c-.678-.029-1.336-.068-1.956-.126-.542-.048-1.1-.1-1.685-.174a.578.578,0,0,1-.494-.445,6.1,6.1,0,1,1,11.9.136.566.566,0,0,1-.5.436c-.571.048-1.133.1-1.685.126-.668.039-1.326.068-1.966.078H470C469.6,641.865,469.22,641.865,468.861,641.865Zm4.812-.794Zm-10.283-.639c.416.048.823.087,1.21.116q.915.073,1.917.116h.107c.726.029,1.472.048,2.227.048.358,0,.726,0,1.123-.01h.077c.62-.01,1.259-.039,1.917-.077.4-.019.8-.048,1.21-.087a4.588,4.588,0,0,0,.058-.726,4.948,4.948,0,0,0-9.9,0C463.352,640.016,463.372,640.229,463.391,640.432Z" transform="translate(-462.2 -633.8)" fill="#371a45"/>
          </g>
          <g id="Group_8595" data-name="Group 8595" transform="translate(13.354 18.122)">
            <path id="Path_2334" data-name="Path 2334" d="M397.962,644.434c-5.209,0-10.07-.871-13.342-2.392a.4.4,0,0,1-.184-.194,9.681,9.681,0,0,1-.736-3.718v-.039c.029-2.527,7.368-3.892,14.262-3.892s14.223,1.365,14.262,3.892h0v.039a9.828,9.828,0,0,1-.736,3.718.36.36,0,0,1-.184.194C408.041,643.563,403.171,644.434,397.962,644.434Zm-12.906-2.982c3.176,1.443,7.862,2.266,12.906,2.266s9.731-.823,12.907-2.266a9.111,9.111,0,0,0,.629-3.321v-.039c-.01-.571-1.017-1.443-3.815-2.149a46.549,46.549,0,0,0-19.442,0c-2.8.716-3.805,1.578-3.815,2.159v.029A9.111,9.111,0,0,0,385.056,641.452Z" transform="translate(-383.7 -634.2)" fill="#fff"/>
          </g>
          <g id="Group_8596" data-name="Group 8596" transform="translate(13.141 17.909)">
            <path id="Path_2335" data-name="Path 2335" d="M395.975,648.063c-6.226,0-11.745-3.263-13.72-8.1a9.916,9.916,0,0,1-.755-3.805v-.039c.039-2.711,7.31-4.115,14.475-4.115s14.436,1.414,14.475,4.105v.048a9.916,9.916,0,0,1-.755,3.805C407.72,644.8,402.2,648.063,395.975,648.063Zm0-14.911a40.946,40.946,0,0,0-9.673,1.017c-2.876.726-3.65,1.569-3.65,1.946v.029a8.824,8.824,0,0,0,.668,3.369c1.8,4.425,6.894,7.4,12.655,7.4s10.854-2.972,12.655-7.4a8.824,8.824,0,0,0,.668-3.369v-.029c-.01-.378-.784-1.22-3.65-1.946A40.946,40.946,0,0,0,395.975,633.152Z" transform="translate(-381.5 -632)" fill="#371a45"/>
          </g>
          <g id="Group_8602" data-name="Group 8602" transform="translate(14.452 15.845)">
            <g id="Group_8597" data-name="Group 8597" transform="translate(0.58 0.569)">
              <path id="Path_2336" data-name="Path 2336" d="M411.383,625.683c-.571-.019-1.123-.058-1.665-.1a37.385,37.385,0,0,1-5.2-.726,15.4,15.4,0,0,1-3.05-.959,8.648,8.648,0,0,1-.426-3.234c.116-1.869.862-3.418,2-3.883,1.675-.678,3.883.3,5.577,2.082a10.031,10.031,0,0,1,2.759,6.816Z" transform="translate(-401.026 -616.569)" fill="#fff"/>
            </g>
            <g id="Group_8598" data-name="Group 8598" transform="translate(0.58 0.569)">
              <path id="Path_2337" data-name="Path 2337" d="M411.383,625.683c-.571-.019-1.123-.058-1.665-.1a37.385,37.385,0,0,1-5.2-.726,15.4,15.4,0,0,1-3.05-.959,8.648,8.648,0,0,1-.426-3.234c.116-1.869.862-3.418,2-3.883,1.675-.678,3.883.3,5.577,2.082a10.031,10.031,0,0,1,2.759,6.816Z" transform="translate(-401.026 -616.569)" fill="#fff"/>
            </g>
            <g id="Group_8599" data-name="Group 8599" transform="translate(3.589 4.302)">
              <path id="Path_2338" data-name="Path 2338" d="M437.79,660.412a37.385,37.385,0,0,1-5.2-.726c-.852-1.782-.552-3.708.7-4.347,1.288-.658,3.089.281,4.028,2.1A4.414,4.414,0,0,1,437.79,660.412Z" transform="translate(-432.108 -655.128)" fill="#ffd45e"/>
            </g>
            <g id="Group_8600" data-name="Group 8600">
              <path id="Path_2339" data-name="Path 2339" d="M405.977,620.947h-.019c-.571-.019-1.143-.058-1.685-.1a38.259,38.259,0,0,1-5.287-.736,16.156,16.156,0,0,1-3.166-1,.625.625,0,0,1-.31-.339,9.353,9.353,0,0,1-.455-3.457c.126-2.169,1.036-3.844,2.362-4.376,1.8-.726,4.241.145,6.206,2.217a10.863,10.863,0,0,1,1.181,1.481,10.534,10.534,0,0,1,1.743,5.742.589.589,0,0,1-.184.407A.533.533,0,0,1,405.977,620.947Zm-9.45-2.769a15.826,15.826,0,0,0,2.711.813,35.767,35.767,0,0,0,5.122.707c.339.029.687.048,1.036.068a9.638,9.638,0,0,0-1.539-4.493,8.173,8.173,0,0,0-1.055-1.317c-1.627-1.7-3.611-2.488-4.948-1.946-.9.368-1.549,1.694-1.646,3.379A8.01,8.01,0,0,0,396.527,618.178Z" transform="translate(-395.04 -610.693)" fill="#371a45"/>
            </g>
            <g id="Group_8601" data-name="Group 8601" transform="translate(3.015 3.731)">
              <path id="Path_2340" data-name="Path 2340" d="M432.433,655.66h-.039a38.25,38.25,0,0,1-5.287-.736.587.587,0,0,1-.4-.31c-.988-2.082-.571-4.318.949-5.112a2.858,2.858,0,0,1,2.672.116,5.161,5.161,0,0,1,2.13,2.227,4.991,4.991,0,0,1,.523,3.36A.552.552,0,0,1,432.433,655.66Zm-4.793-1.8a35.6,35.6,0,0,0,4.3.61,4.381,4.381,0,0,0-2.14-3.834,1.739,1.739,0,0,0-1.617-.116C427.291,650.984,427.069,652.446,427.64,653.859Z" transform="translate(-426.175 -649.224)" fill="#371a45"/>
            </g>
          </g>
          <g id="Group_8603" data-name="Group 8603" transform="translate(15.031 16.456)" opacity="0.2">
            <path id="Path_2341" data-name="Path 2341" d="M411.383,626.072c-.571-.019-1.123-.058-1.665-.1a37.386,37.386,0,0,1-5.2-.726,15.4,15.4,0,0,1-3.05-.959,8.648,8.648,0,0,1-.426-3.234c.116-1.869.862-3.418,2-3.883A2.574,2.574,0,0,1,403.7,617a5.236,5.236,0,0,0-.4,1.995,4.705,4.705,0,0,0,4.531,4.87,4.3,4.3,0,0,0,2.943-1.172A9.092,9.092,0,0,1,411.383,626.072Z" transform="translate(-401.026 -617)" fill="#2e2771"/>
          </g>
          <g id="Group_8610" data-name="Group 8610" transform="translate(29.194 19.361)">
            <g id="Group_8604" data-name="Group 8604" transform="translate(0.416 0.426)">
              <path id="Path_2342" data-name="Path 2342" d="M562.347,655.06a8.627,8.627,0,0,1-1.481.658,16.569,16.569,0,0,1-1.627.474c-.629.155-1.317.29-2.053.416-.213.039-.436.068-.658.107-.542.077-1.113.155-1.7.213q-.8.087-1.656.145c-.513.039-1.026.068-1.559.077-.01-.106-.01-.213-.01-.319a5.538,5.538,0,0,1,10.747-1.772Z" transform="translate(-551.6 -651.4)" fill="#ffd45e"/>
            </g>
            <g id="Group_8605" data-name="Group 8605" transform="translate(0.416 1.385)" opacity="0.2">
              <path id="Path_2343" data-name="Path 2343" d="M562.347,664a8.627,8.627,0,0,1-1.481.658,16.57,16.57,0,0,1-1.627.474c-.629.155-1.317.29-2.053.416-.213.039-.436.068-.658.107-.542.077-1.113.155-1.7.213q-.8.087-1.656.145c-.513.039-1.026.068-1.559.077-.01-.107-.01-.213-.01-.32a5.313,5.313,0,0,1,.958-3.06,5.334,5.334,0,0,0,3.321,1.084,4.527,4.527,0,0,0,4.376-2.5A5.358,5.358,0,0,1,562.347,664Z" transform="translate(-551.6 -661.3)" fill="#2e2771"/>
            </g>
            <g id="Group_8606" data-name="Group 8606" transform="translate(4.047 0.242)" opacity="0.6">
              <path id="Path_2344" data-name="Path 2344" d="M592.373,649.645l-1.5,3.582L589.1,649.7a7.824,7.824,0,0,1,3.273-.058Z" transform="translate(-589.1 -649.5)" fill="#fff"/>
            </g>
            <g id="Group_8607" data-name="Group 8607">
              <path id="Path_2345" data-name="Path 2345" d="M547.736,653.613a.426.426,0,0,1-.426-.407c-.01-.107-.01-.223-.01-.349a5.966,5.966,0,0,1,11.58-1.907.426.426,0,0,1-.194.513,8.991,8.991,0,0,1-1.549.7c-.494.174-1.055.339-1.665.494-.639.155-1.336.3-2.082.426-.223.039-.436.068-.668.107-.581.087-1.162.155-1.723.213a3.432,3.432,0,0,1-.949-.068,3.061,3.061,0,0,0-.707-.068,3.269,3.269,0,0,0-.649.155,3.382,3.382,0,0,1-.949.2C547.745,653.613,547.745,653.613,547.736,653.613Zm5.509-5.761a5.05,5.05,0,0,0-5.083,4.812c.087-.029.184-.058.281-.087a3.552,3.552,0,0,1,.842-.194,3.846,3.846,0,0,1,.91.078,2.611,2.611,0,0,0,.707.058c.552-.058,1.114-.126,1.685-.213.223-.029.436-.068.649-.106.726-.116,1.4-.261,2.014-.407.591-.145,1.123-.3,1.588-.465a8.151,8.151,0,0,0,1.075-.455A5.067,5.067,0,0,0,553.245,647.852Z" transform="translate(-547.3 -647)" fill="#371a45"/>
            </g>
            <g id="Group_8608" data-name="Group 8608" transform="translate(1.559 1.753)">
              <path id="Path_2346" data-name="Path 2346" d="M563.836,669.873a.41.41,0,0,1-.29-.116.467.467,0,0,1-.145-.31v-.155a4.3,4.3,0,0,1,4.386-4.192,4.379,4.379,0,0,1,4.154,2.847.433.433,0,0,1-.019.329.421.421,0,0,1-.242.223c-.494.174-1.055.339-1.665.494-.639.155-1.336.3-2.082.426-.223.039-.436.068-.668.106-.581.087-1.162.155-1.723.213s-1.113.107-1.675.145A.036.036,0,0,0,563.836,669.873Zm3.95-3.912a3.46,3.46,0,0,0-3.505,3.011c.387-.029.784-.068,1.162-.107.552-.058,1.113-.126,1.685-.213.223-.029.436-.068.649-.107.726-.116,1.4-.261,2.014-.407.407-.1.794-.2,1.152-.319A3.53,3.53,0,0,0,567.786,665.962Z" transform="translate(-563.4 -665.1)" fill="#371a45"/>
            </g>
            <g id="Group_8609" data-name="Group 8609" transform="translate(3.155 3.534)">
              <path id="Path_2347" data-name="Path 2347" d="M581.691,686.163c-.174,0-.358-.01-.533-.019a5.475,5.475,0,0,0-.794-.01.43.43,0,0,1-.339-.116.424.424,0,0,1-.136-.329c.039-1.268,1.21-2.188,2.789-2.188a2.752,2.752,0,0,1,2.508,1.5.41.41,0,0,1,0,.368.438.438,0,0,1-.29.232c-.639.155-1.336.3-2.082.426-.223.039-.436.068-.668.107A3.48,3.48,0,0,1,581.691,686.163Zm-.823-.9c.116,0,.232.01.349.019a4.555,4.555,0,0,0,.813,0c.223-.029.436-.068.649-.107.494-.077.959-.174,1.4-.271a2.191,2.191,0,0,0-3.215.358Z" transform="translate(-579.889 -683.5)" fill="#371a45"/>
            </g>
          </g>
          <g id="Group_8644" data-name="Group 8644">
            <g id="Group_8614" data-name="Group 8614" transform="translate(19.142 2.851)">
              <g id="Group_8611" data-name="Group 8611" transform="translate(0.441 0.418)">
                <path id="Path_2348" data-name="Path 2348" d="M449.3,480.8l-1.249,9.072a1.664,1.664,0,0,0,1.249,1.84h0a1.545,1.545,0,0,0,1.21,1.51l.445.1,1.7-11.832Z" transform="translate(-448.038 -480.8)" fill="#ffd45e"/>
              </g>
              <g id="Group_8612" data-name="Group 8612">
                <path id="Path_2349" data-name="Path 2349" d="M446.847,489.857a.363.363,0,0,1-.1-.01l-.445-.1a2,2,0,0,1-1.53-1.607,2.094,2.094,0,0,1-1.268-2.217l1.249-9.072a.436.436,0,0,1,.174-.29.422.422,0,0,1,.339-.068l3.369.687a.429.429,0,0,1,.339.484l-1.7,11.832a.448.448,0,0,1-.184.29A.5.5,0,0,1,446.847,489.857Zm-1.288-12.442-1.181,8.617a1.229,1.229,0,0,0,.92,1.365.433.433,0,0,1,.329.416,1.128,1.128,0,0,0,.862,1.084l1.588-10.97Z" transform="translate(-443.486 -476.484)" fill="#371a45"/>
              </g>
              <g id="Group_8613" data-name="Group 8613" transform="translate(1.268 0.213)">
                <path id="Path_2350" data-name="Path 2350" d="M457.022,490.237h-.048a.441.441,0,0,1-.387-.474l1.1-10.689a.433.433,0,1,1,.862.087l-1.1,10.689A.423.423,0,0,1,457.022,490.237Z" transform="translate(-456.585 -478.685)" fill="#371a45"/>
              </g>
            </g>
            <g id="Group_8615" data-name="Group 8615" transform="translate(0.586 0.59)">
              <path id="Path_2351" data-name="Path 2351" d="M282.573,458.008v.029a.865.865,0,0,1-.939.765l-.523-.048-6.778-.649-21.717-2.082a.867.867,0,0,1-.775-.968l.155-1.172a.863.863,0,0,1,.968-.746l21.369,2.9,6.778.92.726.1A.85.85,0,0,1,282.573,458.008Z" transform="translate(-251.835 -453.131)" fill="#db9a78"/>
            </g>
            <g id="Group_8616" data-name="Group 8616" transform="translate(0.592 0.6)" opacity="0.6">
              <path id="Path_2352" data-name="Path 2352" d="M282.632,458.1v.029a.854.854,0,0,1-.213.474.864.864,0,0,0-.639-.445l-.726-.1-6.778-.92-21.369-2.9a.856.856,0,0,0-.968.746l-.039.329v-.155l.155-1.172a.863.863,0,0,1,.968-.746l21.369,2.9,6.778.92.726.1A.835.835,0,0,1,282.632,458.1Z" transform="translate(-251.9 -453.231)" fill="#fff"/>
            </g>
            <g id="Group_8617" data-name="Group 8617">
              <path id="Path_2353" data-name="Path 2353" d="M276.244,453.871a.64.64,0,0,1-.136-.01l-29.028-2.789a1.442,1.442,0,0,1-.988-.533,1.46,1.46,0,0,1-.3-1.084l.155-1.172a1.435,1.435,0,0,1,1.617-1.23l28.873,3.931a1.423,1.423,0,0,1,1.23,1.578v.029A1.42,1.42,0,0,1,276.244,453.871Zm-28.863-5.684a.332.332,0,0,0-.174.058.263.263,0,0,0-.107.194l-.155,1.172a.28.28,0,0,0,.058.213.263.263,0,0,0,.194.107l29.028,2.789a.282.282,0,0,0,.31-.252v-.029a.275.275,0,0,0-.242-.31l-7.5-1.026-21.369-2.9C247.41,448.2,247.391,448.187,247.381,448.187Z" transform="translate(-245.782 -447.039)" fill="#371a45"/>
            </g>
            <g id="Group_8622" data-name="Group 8622" transform="translate(22.319 2.563)">
              <g id="Group_8618" data-name="Group 8618">
                <path id="Path_2354" data-name="Path 2354" d="M478.1,474.406v19.52h-1.8v-19.52a.9.9,0,0,1,1.026-.891.893.893,0,0,1,.552.3A.929.929,0,0,1,478.1,474.406Z" transform="translate(-476.3 -473.506)" fill="#ffd45e"/>
              </g>
              <g id="Group_8619" data-name="Group 8619" transform="translate(1.801 0.244)">
                <path id="Path_2355" data-name="Path 2355" d="M496.691,476.923V496.2H494.9V476.923a.9.9,0,0,1,1.017-.891.848.848,0,0,1,.552.3A.929.929,0,0,1,496.691,476.923Z" transform="translate(-494.9 -476.025)" fill="#ffd45e"/>
              </g>
              <g id="Group_8620" data-name="Group 8620" transform="translate(3.592 0.494)">
                <path id="Path_2356" data-name="Path 2356" d="M515.182,479.494v19.045H513.4V479.494a.887.887,0,0,1,1.017-.881.849.849,0,0,1,.552.3A.928.928,0,0,1,515.182,479.494Z" transform="translate(-513.4 -478.604)" fill="#ffd45e"/>
              </g>
              <g id="Group_8621" data-name="Group 8621" transform="translate(5.364 0.738)">
                <path id="Path_2357" data-name="Path 2357" d="M533.481,482.012v18.8H531.7v-18.8a.889.889,0,0,1,1.007-.881.848.848,0,0,1,.552.3A.837.837,0,0,1,533.481,482.012Z" transform="translate(-531.7 -481.124)" fill="#ffd45e"/>
              </g>
            </g>
            <g id="Group_8627" data-name="Group 8627" transform="translate(22.223 2.563)" opacity="0.6">
              <g id="Group_8623" data-name="Group 8623">
                <path id="Path_2358" data-name="Path 2358" d="M477.1,474.406v2.062a.909.909,0,0,0-.223-.591.893.893,0,0,0-.552-.3.9.9,0,0,0-1.026.891v-2.062a.9.9,0,0,1,1.026-.891.892.892,0,0,1,.552.3A.878.878,0,0,1,477.1,474.406Z" transform="translate(-475.3 -473.506)" fill="#fff"/>
              </g>
              <g id="Group_8624" data-name="Group 8624" transform="translate(1.898 0.244)">
                <path id="Path_2359" data-name="Path 2359" d="M496.691,476.923v2.062a.909.909,0,0,0-.223-.591.893.893,0,0,0-1.569.591v-2.062a.9.9,0,0,1,1.017-.891.848.848,0,0,1,.552.3A.929.929,0,0,1,496.691,476.923Z" transform="translate(-494.9 -476.025)" fill="#fff"/>
              </g>
              <g id="Group_8625" data-name="Group 8625" transform="translate(3.679 0.484)">
                <path id="Path_2360" data-name="Path 2360" d="M515.091,479.4v2.062a.878.878,0,0,0-.223-.591.941.941,0,0,0-.552-.3.892.892,0,0,0-1.017.881v-2.062a.887.887,0,0,1,1.017-.881.848.848,0,0,1,.552.3A.929.929,0,0,1,515.091,479.4Z" transform="translate(-513.3 -478.504)" fill="#fff"/>
              </g>
              <g id="Group_8626" data-name="Group 8626" transform="translate(5.461 0.738)">
                <path id="Path_2361" data-name="Path 2361" d="M533.481,482.012v2.062a.837.837,0,0,0-.223-.581.942.942,0,0,0-.552-.3.889.889,0,0,0-1.007.881v-2.062a.889.889,0,0,1,1.007-.881.848.848,0,0,1,.552.3A.837.837,0,0,1,533.481,482.012Z" transform="translate(-531.7 -481.124)" fill="#fff"/>
              </g>
            </g>
            <g id="Group_8632" data-name="Group 8632" transform="translate(22.319 22.982)">
              <g id="Group_8628" data-name="Group 8628">
                <rect id="Rectangle_17049" data-name="Rectangle 17049" width="1.801" height="2.062" fill="#ffd45e"/>
              </g>
              <g id="Group_8629" data-name="Group 8629" transform="translate(1.801)">
                <rect id="Rectangle_17050" data-name="Rectangle 17050" width="1.791" height="2.062" fill="#ffd45e"/>
              </g>
              <g id="Group_8630" data-name="Group 8630" transform="translate(3.592)">
                <rect id="Rectangle_17051" data-name="Rectangle 17051" width="1.782" height="2.062" fill="#ffd45e"/>
              </g>
              <g id="Group_8631" data-name="Group 8631" transform="translate(5.374)">
                <rect id="Rectangle_17052" data-name="Rectangle 17052" width="1.782" height="2.062" fill="#ffd45e"/>
              </g>
            </g>
            <g id="Group_8633" data-name="Group 8633" transform="translate(22.319 15.536)" opacity="0.2">
              <rect id="Rectangle_17053" data-name="Rectangle 17053" width="7.146" height="7.455" fill="#2e2771"/>
            </g>
            <g id="Group_8634" data-name="Group 8634" transform="translate(22.319 10.201)" opacity="0.6">
              <rect id="Rectangle_17054" data-name="Rectangle 17054" width="7.146" height="2.943" fill="#fff"/>
            </g>
            <g id="Group_8636" data-name="Group 8636" transform="translate(21.884 2.135)">
              <g id="Group_8635" data-name="Group 8635">
                <path id="Path_2362" data-name="Path 2362" d="M479.381,490.372h-7.146a.434.434,0,0,1-.436-.436v-19.52a1.31,1.31,0,0,1,.455-1,1.356,1.356,0,0,1,1.055-.32,1.315,1.315,0,0,1,.823.445l.029.029a1.329,1.329,0,0,1,1.772.213l.029.029a1.348,1.348,0,0,1,.939-.232,1.325,1.325,0,0,1,.813.436l.029.029a1.316,1.316,0,0,1,1.753.2,1.319,1.319,0,0,1,.329.871v18.8A.45.45,0,0,1,479.381,490.372Zm-6.71-.862h6.284V471.142a.412.412,0,0,0-.116-.3.506.506,0,0,0-.281-.155.433.433,0,0,0-.358.107.469.469,0,0,0-.155.349.436.436,0,1,1-.871,0V470.9a.417.417,0,0,0-.116-.3.458.458,0,0,0-.281-.155.464.464,0,0,0-.368.107.469.469,0,0,0-.155.349.436.436,0,1,1-.871,0v-.242a.457.457,0,0,0-.116-.31.481.481,0,0,0-.281-.155.464.464,0,0,0-.368.107.437.437,0,0,0-.155.349.436.436,0,1,1-.871,0v-.242a.485.485,0,0,0-.116-.31.478.478,0,0,0-.29-.155.457.457,0,0,0-.378.116.445.445,0,0,0-.165.349v19.1Z" transform="translate(-471.8 -469.089)" fill="#371a45"/>
              </g>
            </g>
            <g id="Group_8643" data-name="Group 8643" transform="translate(23.694 3.036)">
              <g id="Group_8637" data-name="Group 8637">
                <path id="Path_2363" data-name="Path 2363" d="M490.936,498.781a.434.434,0,0,1-.436-.436v-19.51a.436.436,0,0,1,.871,0v19.52A.445.445,0,0,1,490.936,498.781Z" transform="translate(-490.5 -478.4)" fill="#371a45"/>
              </g>
              <g id="Group_8638" data-name="Group 8638" transform="translate(0 0.581)">
                <path id="Path_2364" data-name="Path 2364" d="M490.936,504.2a.434.434,0,0,1-.436-.436V484.836a.436.436,0,0,1,.871,0v18.939A.445.445,0,0,1,490.936,504.2Z" transform="translate(-490.5 -484.4)" fill="#371a45"/>
              </g>
              <g id="Group_8639" data-name="Group 8639" transform="translate(2.217 0.668)">
                <path id="Path_2365" data-name="Path 2365" d="M513.4,485.3" transform="translate(-513.4 -485.3)" fill="none" stroke="#2e2771" stroke-linecap="round" stroke-linejoin="round" stroke-width="32.944"/>
              </g>
              <g id="Group_8640" data-name="Group 8640" transform="translate(1.782 0.474)">
                <path id="Path_2366" data-name="Path 2366" d="M509.336,503.207a.434.434,0,0,1-.436-.436V483.736a.436.436,0,0,1,.871,0v19.045A.432.432,0,0,1,509.336,503.207Z" transform="translate(-508.9 -483.3)" fill="#371a45"/>
              </g>
              <g id="Group_8641" data-name="Group 8641" transform="translate(3.999 0.91)">
                <path id="Path_2367" data-name="Path 2367" d="M531.8,487.8" transform="translate(-531.8 -487.8)" fill="none" stroke="#2e2771" stroke-linecap="round" stroke-linejoin="round" stroke-width="32.944"/>
              </g>
              <g id="Group_8642" data-name="Group 8642" transform="translate(3.563 0.716)">
                <path id="Path_2368" data-name="Path 2368" d="M527.736,505.465a.434.434,0,0,1-.436-.436V486.236a.436.436,0,0,1,.871,0v18.8A.432.432,0,0,1,527.736,505.465Z" transform="translate(-527.3 -485.8)" fill="#371a45"/>
              </g>
            </g>
          </g>
          <g id="Group_8652" data-name="Group 8652" transform="translate(21.109 18.218)">
            <g id="Group_8645" data-name="Group 8645" transform="translate(0.416 0.445)">
              <path id="Path_2369" data-name="Path 2369" d="M479.147,645.232A5.337,5.337,0,0,1,479,646.49c-.542.048-1.094.1-1.665.126-.629.039-1.288.068-1.946.077h-.068c-.378.01-.755.01-1.133.01-.765,0-1.52-.019-2.256-.048h-.107c-.668-.029-1.317-.068-1.946-.126-.571-.048-1.123-.107-1.665-.165a5.423,5.423,0,0,1,3.631-6.274,5.617,5.617,0,0,1,1.772-.29,5.512,5.512,0,0,1,5.529,5.432Z" transform="translate(-468.1 -639.8)" fill="#ffd45e"/>
            </g>
            <g id="Group_8646" data-name="Group 8646" transform="translate(4.173 0.436)" opacity="0.6">
              <path id="Path_2370" data-name="Path 2370" d="M510.173,639.913l-1.5,5.006L506.9,639.99a5.617,5.617,0,0,1,1.772-.291A5.857,5.857,0,0,1,510.173,639.913Z" transform="translate(-506.9 -639.7)" fill="#fff"/>
            </g>
            <g id="Group_8647" data-name="Group 8647">
              <path id="Path_2371" data-name="Path 2371" d="M470.307,642.985c-.765,0-1.53-.019-2.266-.048a.47.47,0,0,1-.116-.01c-.678-.029-1.336-.068-1.956-.126-.542-.039-1.1-.1-1.675-.174a.421.421,0,0,1-.368-.339,5.764,5.764,0,0,1-.126-1.23,5.955,5.955,0,0,1,11.909,0,5.853,5.853,0,0,1-.165,1.365.422.422,0,0,1-.378.329c-.571.048-1.133.1-1.675.126-.668.039-1.326.068-1.966.078h-.077C471.042,642.985,470.665,642.985,470.307,642.985Zm4.812-.649Zm-10.409-.513c.455.048.9.1,1.326.126.61.048,1.259.1,1.927.126h.107c.726.029,1.481.048,2.237.048.358,0,.726,0,1.123-.01h.077c.62-.01,1.268-.039,1.927-.077.436-.029.881-.058,1.326-.1a5.084,5.084,0,1,0-10.108-.862A4.746,4.746,0,0,0,464.71,641.823Z" transform="translate(-463.8 -635.2)" fill="#371a45"/>
            </g>
            <g id="Group_8648" data-name="Group 8648" transform="translate(1.559 1.772)">
              <path id="Path_2372" data-name="Path 2372" d="M484.848,659.513c-.765,0-1.53-.019-2.266-.048a.474.474,0,0,1-.116-.01c-.678-.029-1.336-.068-1.956-.126a.43.43,0,0,1-.368-.281,4.039,4.039,0,0,1-.242-1.355,4.391,4.391,0,0,1,8.772,0,3.943,3.943,0,0,1-.271,1.452.434.434,0,0,1-.378.271c-.668.039-1.326.068-1.966.078h-.077C485.583,659.513,485.206,659.513,484.848,659.513Zm3.147-.523Zm-7.126-.484c.523.039,1.075.077,1.636.1h.107c.726.029,1.481.048,2.237.048.358,0,.726,0,1.123-.01h.077c.533-.01,1.075-.029,1.636-.058a2.985,2.985,0,0,0,.126-.881,3.53,3.53,0,0,0-7.049,0A3.736,3.736,0,0,0,480.868,658.506Z" transform="translate(-479.9 -653.5)" fill="#371a45"/>
            </g>
            <g id="Group_8649" data-name="Group 8649" transform="translate(3.224 3.544)">
              <path id="Path_2373" data-name="Path 2373" d="M500.382,676.041c-.765,0-1.53-.019-2.266-.048a.51.51,0,0,1-.126-.01.4.4,0,0,1-.281-.145,2.354,2.354,0,0,1-.61-1.559,2.743,2.743,0,0,1,5.461,0,2.374,2.374,0,0,1-.649,1.607.418.418,0,0,1-.31.135h-.068C501.118,676.041,500.741,676.041,500.382,676.041Zm-2.149-.9c.7.029,1.423.039,2.149.039.32,0,.649,0,1-.01a1.489,1.489,0,0,0,.3-.881,1.877,1.877,0,0,0-3.718,0A1.485,1.485,0,0,0,498.233,675.14Z" transform="translate(-497.1 -671.8)" fill="#371a45"/>
            </g>
            <g id="Group_8650" data-name="Group 8650" transform="translate(3.815 5.219)">
              <path id="Path_2374" data-name="Path 2374" d="M505.892,691.666c-.775,0-1.539-.019-2.275-.048a.439.439,0,0,1-.416-.445,2.131,2.131,0,0,1,4.26.039.438.438,0,0,1-.426.436C506.628,691.666,506.25,691.666,505.892,691.666Zm-1.743-.891q.857.029,1.743.029h.629a1.272,1.272,0,0,0-1.191-.833A1.257,1.257,0,0,0,504.149,690.775Z" transform="translate(-503.2 -689.1)" fill="#371a45"/>
            </g>
            <g id="Group_8651" data-name="Group 8651" transform="translate(0.426 3.66)" opacity="0.2">
              <path id="Path_2375" data-name="Path 2375" d="M479.247,675.072a5.335,5.335,0,0,1-.145,1.259c-.542.048-1.094.1-1.665.126-.629.039-1.288.068-1.946.077h-.068c-.378.01-.755.01-1.133.01-.765,0-1.52-.019-2.256-.048h-.107c-.668-.029-1.317-.068-1.946-.126-.571-.048-1.123-.107-1.665-.165a5.482,5.482,0,0,1-.116-1.133,5.322,5.322,0,0,1,.358-1.927,10.241,10.241,0,0,0,5.015,1.162A9.943,9.943,0,0,0,478.821,673,5.321,5.321,0,0,1,479.247,675.072Z" transform="translate(-468.2 -673)" fill="#2e2771"/>
            </g>
          </g>
        </g>
        <g id="Group_8661" data-name="Group 8661" transform="translate(0 36.95)">
          <g id="Group_8654" data-name="Group 8654" transform="translate(0.584 0.573)">
            <path id="Path_2376" data-name="Path 2376" d="M255.062,474.113v.087c-.145,3.573-4.076,4.551-4.076,4.551-2.033,3.021-9.663,6.071-11.667.755a6.034,6.034,0,0,1,.455-5.044,15.21,15.21,0,0,1,4.512-4.89s.155-.252.4-.591l3.118.3c-.068.184-.116.29-.116.29a5.777,5.777,0,0,0,.726-.232c1.52-.61,2.7-1.8,3.592-2.149a.856.856,0,0,1,.978.116l.01.01a1.319,1.319,0,0,1,.339.513,2.678,2.678,0,0,1-.271,1.936c-.087.174-.145.271-.145.271S255.168,470.617,255.062,474.113Z" transform="translate(-238.956 -467.092)" fill="#fff"/>
          </g>
          <g id="Group_8655" data-name="Group 8655">
            <path id="Path_2377" data-name="Path 2377" d="M238.225,477.64a7.27,7.27,0,0,1-.794-.048,4.772,4.772,0,0,1-4.105-3.224c-2.024-5.374,4.154-9.9,5.083-10.544.068-.116.194-.3.358-.523a.574.574,0,0,1,.523-.232l3.118.3a.516.516,0,0,1,.29.116c.019-.01.029-.01.048-.019a10.761,10.761,0,0,0,2.14-1.268,7.18,7.18,0,0,1,1.452-.881,1.393,1.393,0,0,1,1.588.242l.01.01.01.01a2.468,2.468,0,0,1,.29,2.856c.8.474,2.043,1.656,1.936,4.444h0c-.116,3.021-2.75,4.57-4.3,5.025A10.43,10.43,0,0,1,238.225,477.64Zm1.3-13.4c-.116.174-.184.281-.184.281a.635.635,0,0,1-.174.184c-.068.048-6.565,4.434-4.744,9.256a3.609,3.609,0,0,0,3.156,2.488,9.232,9.232,0,0,0,7.494-3.369.557.557,0,0,1,.339-.232c.145-.039,3.515-.93,3.641-4.018h0c.126-3.021-1.636-3.544-1.714-3.573a.572.572,0,0,1-.339-.862h0s.048-.087.116-.223c.184-.378.552-1.3.048-1.791l-.01-.01c-.048-.048-.116-.1-.368,0a6.779,6.779,0,0,0-1.21.755,11.346,11.346,0,0,1-2.372,1.394,6.6,6.6,0,0,1-.813.261.58.58,0,0,1-.581-.2.616.616,0,0,1-.077-.136Z" transform="translate(-232.921 -461.178)" fill="#371a45"/>
          </g>
          <g id="Group_8656" data-name="Group 8656" transform="translate(12.588 2.871)">
            <path id="Path_2378" data-name="Path 2378" d="M365.374,491.806a7.585,7.585,0,0,1-1.539,1.356c-.184.126-.378.242-.571.349a.227.227,0,0,1-.261-.368c.145-.145.29-.29.426-.445a6.934,6.934,0,0,0,.988-1.5.579.579,0,1,1,.959.61Z" transform="translate(-362.927 -490.831)" fill="#371a45"/>
          </g>
          <g id="Group_8657" data-name="Group 8657" transform="translate(7.654 2.477)">
            <path id="Path_2379" data-name="Path 2379" d="M314.012,487.785a.547.547,0,0,1-.165.087,3.72,3.72,0,0,1-1.694.1.205.205,0,0,1-.039-.4,2.74,2.74,0,0,0,1.191-.668s.01-.019-.019,0a.571.571,0,1,1,.726.881Z" transform="translate(-311.977 -486.765)" fill="#371a45"/>
          </g>
          <g id="Group_8658" data-name="Group 8658" transform="translate(4.589 2.449)">
            <path id="Path_2380" data-name="Path 2380" d="M282.157,487.35c-.823,1.51-1.433,3.428-.7,5.083a3.474,3.474,0,0,0,.407.649.274.274,0,0,1-.048.378.28.28,0,0,1-.368-.029,4.04,4.04,0,0,1-.9-1.52,7.444,7.444,0,0,1,.6-5.112.574.574,0,1,1,1.007.552Z" transform="translate(-280.319 -486.476)" fill="#371a45"/>
          </g>
          <g id="Group_8659" data-name="Group 8659" transform="translate(9.478 11.399)">
            <path id="Path_2381" data-name="Path 2381" d="M334.064,580.3a5.842,5.842,0,0,1-3.108-.658.267.267,0,0,1,.194-.494,5.061,5.061,0,0,0,2.634.048.4.4,0,0,0,.058-.019.677.677,0,1,1,.639,1.075c-.01,0-.416.048-.416.048Z" transform="translate(-330.812 -578.906)" fill="#371a45"/>
          </g>
          <g id="Group_8660" data-name="Group 8660" transform="translate(3.198 5.283)">
            <path id="Path_2382" data-name="Path 2382" d="M268.163,516.476a6.073,6.073,0,0,0-.62,6.274,6.579,6.579,0,0,0,2.634,2.876.577.577,0,0,1-.562,1.007,5.411,5.411,0,0,1-.668-.455,7.818,7.818,0,0,1-2.847-4.454,7.123,7.123,0,0,1,1.385-5.809.44.44,0,1,1,.678.562Z" transform="translate(-265.951 -515.744)" fill="#371a45"/>
          </g>
        </g>
        <g id="Group_8667" data-name="Group 8667" transform="translate(42.059 46.585)">
          <g id="Group_8662" data-name="Group 8662" transform="translate(0.572 0.578)">
            <path id="Path_2383" data-name="Path 2383" d="M685.7,578.472l-.019.019-.01.01c-.058.058-.184.184-.387.358-.039.029-.077.068-.116.1-.078.068-.174.145-.271.223l-.145.116c-.029.019-.058.048-.087.068-.048.039-.1.077-.155.116-.3.213-.649.445-1.046.678-.107.058-.223.126-.339.184-.01.01-.029.01-.039.019-.116.058-.242.116-.358.174-.136.058-.261.116-.4.174a2.523,2.523,0,0,1-.242.1c-.01,0-.019.01-.029.01a.85.85,0,0,1-.145.048l-.174.058c-.039.01-.077.029-.116.039-.145.048-.3.087-.445.126-.107.029-.2.048-.31.068-.213.039-.426.078-.639.107-.058.01-.107.01-.165.019s-.116.01-.184.019a5.91,5.91,0,0,1-4.289-1.075,5.5,5.5,0,0,1-1.53-2.159,10.713,10.713,0,0,1-.833-4.212,3.62,3.62,0,0,1,1.084-2.624s.1-4.957,2.44-4.551c2.1.358,1.007,4.289.968,4.415a1.889,1.889,0,0,1,1.791-.484s.416-3.379,5.141-2.692c0,0,.039.048.116.136a.133.133,0,0,1,.029.039.173.173,0,0,1,.048.068c.039.048.087.107.136.174a.256.256,0,0,0,.048.058c.184.242.426.581.678.988.039.058.068.116.107.174.145.242.29.5.445.784.039.068.068.145.107.213s.048.116.077.165l.058.116c.029.058.048.107.077.165a2.345,2.345,0,0,1,.1.232c.029.077.068.155.1.242.019.039.029.078.048.126a1.1,1.1,0,0,0,.048.126.628.628,0,0,1,.039.126l.029.087c.01.039.029.087.039.126.068.223.135.455.184.688.01.039.019.087.029.135.019.078.029.165.048.252.01.048.019.107.029.155A5.869,5.869,0,0,1,685.7,578.472Z" transform="translate(-673.22 -566.655)" fill="#fff"/>
          </g>
          <g id="Group_8663" data-name="Group 8663" transform="translate(0.572 0.568)" opacity="0.2">
            <path id="Path_2384" data-name="Path 2384" d="M685.7,578.382l-.019.019-.01.01c-.058.058-.184.184-.387.358-.039.029-.077.068-.116.1-.078.068-.174.145-.271.223l-.145.116c-.029.019-.058.048-.087.068-.048.039-.1.077-.155.116-.3.213-.649.445-1.046.678-.107.058-.223.126-.339.184-.01.01-.029.01-.039.019-.116.058-.242.116-.358.174-.136.058-.261.116-.4.174-.077.029-.165.068-.242.1-.01,0-.019.01-.029.01a.85.85,0,0,1-.145.048l-.174.058c-.039.01-.077.029-.116.039-.145.048-.3.087-.445.126-.107.029-.2.048-.31.068-.213.039-.426.077-.639.106-.058.01-.107.01-.165.019a7.239,7.239,0,0,1-4.473-1.065,5.494,5.494,0,0,1-1.53-2.159,10.713,10.713,0,0,1-.833-4.212,3.62,3.62,0,0,1,1.084-2.624s.1-4.957,2.44-4.551c0,0-2.488,2.188-.9,4.822,0,0-.436,6.429,1.869,6.9s1.481-4.851,1.481-4.851,1.249,3.544,2.653,2.779a2.159,2.159,0,0,0,1.007-2.353,2.284,2.284,0,0,0,2.469-.3c1.336-1.346-1.656-5.713-1.656-5.713s.465.029,1.113.077a.133.133,0,0,1,.029.039.174.174,0,0,1,.048.068c.039.048.087.107.136.174a.258.258,0,0,0,.048.058c.184.242.426.581.678.988.039.058.068.116.107.174.145.242.29.5.445.784.039.068.068.145.107.213s.048.116.077.165l.058.116c.029.058.048.107.078.165a2.374,2.374,0,0,1,.1.232c.029.078.068.155.1.242.019.039.029.077.048.126a1.073,1.073,0,0,0,.048.126.627.627,0,0,1,.039.126l.029.087c.01.039.029.087.039.126.068.223.135.455.184.688.01.039.019.087.029.136.019.077.029.165.048.252.01.048.019.106.029.155A5.964,5.964,0,0,1,685.7,578.382Z" transform="translate(-673.22 -566.555)" fill="#371a45"/>
          </g>
          <g id="Group_8664" data-name="Group 8664">
            <path id="Path_2385" data-name="Path 2385" d="M673.836,576.51a5.551,5.551,0,0,1-5.645-3.612,11.169,11.169,0,0,1-.871-4.464,4.47,4.47,0,0,1,1.094-2.847c.039-.842.271-3.428,1.51-4.454a1.976,1.976,0,0,1,2.943.513,4.853,4.853,0,0,1,.319,3,3.165,3.165,0,0,1,.552-.048,3.9,3.9,0,0,1,1.307-1.84,5.674,5.674,0,0,1,4.357-.813.586.586,0,0,1,.349.184,13.684,13.684,0,0,1,2.227,3.747c1.123,2.934.707,5.548-1.191,7.591h0a10.385,10.385,0,0,1-6.206,3A6.533,6.533,0,0,1,673.836,576.51Zm-2.692-14.678a.746.746,0,0,0-.494.184c-.765.629-1.084,2.682-1.1,3.834a.574.574,0,0,1-.223.445,3.051,3.051,0,0,0-.862,2.2,10.1,10.1,0,0,0,.784,3.96c.9,2.179,2.527,3.069,5.248,2.885a9.368,9.368,0,0,0,5.451-2.643c1.6-1.7,1.917-3.844.968-6.361a12.9,12.9,0,0,0-1.888-3.263,4.4,4.4,0,0,0-3.273.62,2.67,2.67,0,0,0-1,1.607.551.551,0,0,1-.223.387.543.543,0,0,1-.436.107,1.331,1.331,0,0,0-1.259.29.579.579,0,0,1-.988-.562c.184-.581.532-2.469.029-3.292a.723.723,0,0,0-.552-.368A.658.658,0,0,0,671.145,561.832Zm9.218,11.251Z" transform="translate(-667.312 -560.688)" fill="#371a45"/>
          </g>
          <g id="Group_8665" data-name="Group 8665" transform="translate(6.25 3.928)">
            <path id="Path_2386" data-name="Path 2386" d="M732.744,601.349a11.4,11.4,0,0,1,3.941,4.7,14.735,14.735,0,0,1,.726,1.878.272.272,0,0,1-.5.2,14.7,14.7,0,0,0-.842-1.762l-.242-.416c-.087-.136-.31-.465-.4-.6a10.5,10.5,0,0,0-2.847-2.779,3.571,3.571,0,0,0-.368-.213.571.571,0,1,1,.533-1.007Z" transform="translate(-731.859 -601.258)" fill="#371a45"/>
          </g>
          <g id="Group_8666" data-name="Group 8666" transform="translate(4.5 4.431)">
            <path id="Path_2387" data-name="Path 2387" d="M714.619,606.511c1.346.939,1.869,3.35,2.1,4.87a.26.26,0,0,1-.213.291.248.248,0,0,1-.281-.184,12.316,12.316,0,0,0-.842-2.275,4.252,4.252,0,0,0-1.278-1.675.574.574,0,0,1,.513-1.026Z" transform="translate(-713.785 -606.447)" fill="#371a45"/>
          </g>
        </g>
      </g>
      <g id="Group_8669" data-name="Group 8669" transform="translate(233.244 117.455)" opacity="0.2">
        <path id="Path_2388" data-name="Path 2388" d="M252.362,477.264v.087c-.145,3.573-4.076,4.551-4.076,4.551-2.033,3.021-9.663,6.071-11.667.755a6.033,6.033,0,0,1,.455-5.044c-.116,1.588.223,3.418,2.44,3.273a4.115,4.115,0,0,0,1.888.726,1.278,1.278,0,0,0,.794-2.314c-.881-.658-1.782-2-1.075-4.735,0,0,1.936,2.333,3.863,1.249A41.63,41.63,0,0,0,250.629,471a19.064,19.064,0,0,1-2.149,4.376,1.817,1.817,0,0,0,.581,2.634C250.174,478.639,251.558,478.93,252.362,477.264Z" transform="translate(-236.256 -471)" fill="#371a45"/>
      </g>
      <g id="Group_8670" data-name="Group 8670" transform="translate(242.236 142.619)" opacity="0.2">
        <path id="Path_2389" data-name="Path 2389" d="M339.7,745.762s-2.14,2.837-6.855.591c.019-.048.029-.078.029-.078s-4.038-6.109-3.728-11.29a10.651,10.651,0,0,1,.281-1.811,7.834,7.834,0,0,0,.736-2.275S328.454,745.656,339.7,745.762Z" transform="translate(-329.125 -730.9)" fill="#371a45"/>
      </g>
      <g id="Group_8671" data-name="Group 8671" transform="translate(273.708 100.03)" opacity="0.5">
        <ellipse id="Ellipse_1385" data-name="Ellipse 1385" cx="3.447" cy="2.411" rx="3.447" ry="2.411" transform="matrix(0.178, -0.984, 0.984, 0.178, 0, 6.783)" fill="#fff"/>
      </g>
      <g id="Group_8672" data-name="Group 8672" transform="translate(271.93 108.77)" opacity="0.5">
        <ellipse id="Ellipse_1386" data-name="Ellipse 1386" cx="1.578" cy="1.317" rx="1.578" ry="1.317" transform="matrix(0.276, -0.961, 0.961, 0.276, 0, 3.034)" fill="#fff"/>
      </g>
      <g id="Group_8673" data-name="Group 8673" transform="translate(244.802 90.609)" opacity="0.5">
        <path id="Path_2390" data-name="Path 2390" d="M356.489,213.042s-3.156-11.057,2.634-15.376,14.01-4.2,13.807-3.66c0,0-9.14,2.179-12.819,9.615A43.829,43.829,0,0,0,356.489,213.042Z" transform="translate(-355.631 -193.739)" fill="#fff"/>
      </g>
    </g>
  </g>
</svg>
