<svg xmlns="http://www.w3.org/2000/svg" width="31.167" height="31.167" viewBox="0 0 31.167 31.167">
  <path id="Icon_material-my-location" data-name="Icon material-my-location" d="M17,11.333A5.667,5.667,0,1,0,22.667,17,5.665,5.665,0,0,0,17,11.333Zm12.665,4.25A12.742,12.742,0,0,0,18.417,4.335V1.417H15.583V4.335A12.742,12.742,0,0,0,4.335,15.583H1.417v2.833H4.335A12.742,12.742,0,0,0,15.583,29.665v2.918h2.833V29.665A12.742,12.742,0,0,0,29.665,18.417h2.918V15.583H29.665ZM17,26.917A9.917,9.917,0,1,1,26.917,17,9.909,9.909,0,0,1,17,26.917Z" transform="translate(-1.417 -1.417)" fill="#4b4b4b"/>
</svg>
